<svg width="672" height="672" viewBox="0 0 672 672" fill="none" xmlns="http://www.w3.org/2000/svg">
<g clip-path="url(#clip0_9_63)">
<path d="M671.6 0H0V671.6H671.6V0Z" fill="url(#paint0_linear_9_63)"/>
<path d="M143.9 279.7C143.9 271.9 148.7 268.1 154.9 268.1C159.4 268.1 162.9 270.2 164.5 274.2C166.2 270.2 169.7 268.1 174.2 268.1C180.4 268.1 185.2 272 185.2 279.7V301.4H181.6V279.7C181.6 274.2 178.3 271.3 174 271.3C169.6 271.3 166.4 274.3 166.4 279.7V301.4H162.7V279.7C162.7 274.3 159.5 271.3 155.1 271.3C150.7 271.3 147.5 274.1 147.5 279.7V301.4H143.9V279.7ZM191 268.7H215V272H194.6V283.1H212.1V286.4H194.6V298H215V301.3H191V268.7ZM229.8 272H218.7V268.7H244.5V272H233.4V301.4H229.8V272ZM249.2 268.7H252.8V283.2H274V268.7H277.6V301.4H274V286.4H252.8V301.4H249.2V268.7ZM282.6 285C282.6 275.2 289.8 268 300 268C310.2 268 317.4 275.2 317.4 285C317.4 294.8 310.2 302 300 302C289.8 302 282.6 294.8 282.6 285ZM313.8 285C313.8 277.1 308.2 271.3 300 271.3C291.9 271.3 286.2 277.1 286.2 285C286.2 292.9 291.8 298.7 300 298.7C308.2 298.7 313.8 292.9 313.8 285ZM322.5 268.7H334.2C345.5 268.7 351.6 275.2 351.6 285.1C351.6 295 345.6 301.5 334.2 301.5H322.5V268.7ZM334.2 298.1C343.5 298.1 348 292.9 348 285.1C348 277.3 343.5 272.1 334.2 272.1H326.1V298.2L334.2 298.1ZM354.9 285.1C354.9 275.3 362.1 268.1 372.3 268.1C382.5 268.1 389.7 275.3 389.7 285.1C389.7 294.9 382.5 302.1 372.3 302.1C362.1 302.1 354.9 294.8 354.9 285.1ZM386.1 285.1C386.1 277.2 380.5 271.4 372.3 271.4C364.1 271.4 358.5 277.2 358.5 285.1C358.5 293 364.1 298.8 372.3 298.8C380.5 298.8 386.1 292.9 386.1 285.1ZM394.8 268.7H398.4V298.1H418.2V301.4H394.8V268.7ZM419.1 285.1C419.1 275.3 426.3 268.1 436.5 268.1C446.7 268.1 453.9 275.3 453.9 285.1C453.9 294.9 446.7 302.1 436.5 302.1C426.3 302.1 419.1 294.8 419.1 285.1ZM450.3 285.1C450.3 277.2 444.7 271.4 436.5 271.4C428.3 271.4 422.7 277.2 422.7 285.1C422.7 293 428.3 298.8 436.5 298.8C444.7 298.8 450.3 292.9 450.3 285.1ZM457.3 285.1C457.3 275.3 464.5 268.1 474.7 268.1C482.6 268.1 488.8 272.5 491.1 279H487.1C485 274.4 480.5 271.4 474.6 271.4C466.5 271.4 460.8 277.2 460.8 285.1C460.8 293 466.4 298.8 474.6 298.8C481.7 298.8 486.9 294.8 488.1 288.3H472.5V285H492V286.6C491.2 295.6 484.3 302 474.6 302C464.5 302 457.3 294.8 457.3 285.1ZM504.9 287.1L491.4 268.7H495.8L506.8 284.1L517.7 268.7H522L508.5 287V301.4H504.9V287.1Z" fill="url(#paint1_linear_9_63)"/>
<path d="M387.828 207.428C383.769 207.311 378.661 207.021 376.477 206.781L372.507 206.346L371.378 205.136C369.358 202.971 369.989 201.506 375.067 196.572C379.169 192.588 380.932 191.312 384.802 189.534C386.923 188.559 388.075 188.242 390.866 187.87C395.158 187.296 395.1 187.296 397.45 187.905C400.116 188.598 402.242 189.86 405.142 192.469C408.173 195.196 408.557 196.104 407.758 198.646C406.898 201.377 405.262 203.601 403.087 204.991C399.236 207.453 397.649 207.706 387.828 207.425V207.428Z" fill="url(#paint2_linear_9_63)"/>
<path d="M409.669 170.362C405.95 166.602 400.709 165.41 402.668 164.542C404.911 163.531 415.491 161.17 416.281 160.786C417.07 160.403 417.862 160.125 418.042 160.168C418.221 160.21 418.914 160.695 419.58 161.242C421.29 162.646 423.456 162.999 426.844 162.426C428.278 162.184 429.618 161.87 429.821 161.729C430.036 161.579 428.632 161.399 426.446 161.295C421.862 161.079 421.854 161.076 420.235 159.694C418.763 158.437 418.163 157.065 417.167 152.679C416.093 147.946 416.6 146.279 419.616 144.631C422.228 143.204 425.472 142.745 429.389 143.248C431.177 143.478 432.961 143.849 433.355 144.073C434.725 144.851 436.146 148.054 437.128 152.574C438.515 158.962 438.533 159.497 437.416 161.653C435.986 164.412 432.148 168.29 425.612 173.579C422.709 175.928 415.014 179.373 414.317 179.297C413.087 175.735 412.463 173.666 409.669 170.362Z" fill="url(#paint3_linear_9_63)" fill-opacity="0.992157"/>
<path fill-rule="evenodd" clip-rule="evenodd" d="M260.778 66.1855C247.475 66.2663 236.607 71.971 229.807 83.7589C227.402 87.6431 227.694 90.196 232.311 92.5973C236.673 94.9163 236.972 90.5073 239.188 87.2022C244.35 80.022 252.156 74.8289 261.024 75.5649C265.907 75.2942 273.132 78.2081 276.692 81.9908C279.703 84.4879 280.351 91.5571 278.654 95.2073C275.855 103.485 268.465 108.769 262.888 115.113C252.319 126.367 240.475 136.688 231.974 149.696C227.69 156.356 224.524 164.205 225.631 172.264C226.153 180.901 234.441 190.262 245.443 196.319C255.723 201 267.066 206.172 292.375 205.962C301.8 205.998 319.633 201.885 315.787 196.291C318.692 193.006 311.813 187.659 305.877 189.148C297.56 195.182 267.342 192.915 252.743 186.728C249.013 184.906 241.933 180.233 239.597 174.989C237.273 168.211 237.484 161.996 243.093 154.723C247.315 149.248 248.446 146.749 251.54 143.272C262.487 131.192 274.101 120.277 284.427 107.639C291.977 98.1835 294.654 85.696 286.369 76.3127C279.714 68.8597 270.33 66.2021 260.778 66.1855Z" fill="url(#paint4_linear_9_63)"/>
<path d="M311.015 203.253C301.078 194.848 301.23 191.144 299.359 176.559C299.025 173.96 299.022 163.688 299.354 160.272C300.285 150.677 302.159 142.582 305.027 135.767C305.546 134.535 306.191 132.988 306.461 132.331C307.552 129.67 311.368 122.273 313.211 119.245C319.867 107.617 329.335 98.1262 340.539 92.8048C347.7 88.463 358.248 85.7265 367.342 83.765C368.177 83.4711 369.911 82.7465 371.194 82.1548C386.272 104.145 375.54 101.56 380.709 108.131C382.516 112.285 385.072 115.441 386.937 118.589C387.851 122.126 389.68 123.415 392.625 139.575C393.195 142.698 394.545 147.692 395.074 149.293C395.742 151.252 396.356 153.228 396.973 155.203C400.103 160.952 405.045 177.146 405.045 177.146C403.008 176.112 389.77 167.322 386.912 166.704C385.761 166.455 385.618 165.332 384.056 164.99C382.494 164.648 377.394 168.935 376.196 168.756C376.196 168.756 368.725 153.176 366.459 148.604C360.709 137.88 363.597 136.84 363.411 141.782C363.04 143.019 355.668 155.275 359.838 159.702C361.065 161.394 363.415 161.328 366.098 161.005C367.948 160.907 369.634 160.772 369.847 160.706C370.48 160.509 383.019 161.133 385.602 161.489C389.213 161.988 392.604 163.291 398.08 165.498C400.786 166.589 405.277 168.77 407.665 170.553C410.076 172.353 410.139 172.434 411.836 175.887C413.989 180.27 414.206 181.722 413.273 185.512C412.598 188.251 411.547 190.663 410.735 191.337C410.334 191.67 410.081 191.562 409.019 190.603C407.518 189.247 402.932 187.05 400.166 186.363C398.813 186.026 396.886 185.862 394.27 185.858C390.79 185.855 390.135 185.94 387.993 186.682C385.277 187.623 380.42 190.227 377.98 192.05C377.076 192.726 374.587 194.965 372.45 197.025C370.313 199.086 367.623 201.367 366.472 202.094C360.032 206.234 357.046 208.763 349.564 210.587C328.246 214.19 322.228 210.408 311.015 203.253Z" fill="url(#paint5_linear_9_63)"/>
<path fill-rule="evenodd" clip-rule="evenodd" d="M410.261 62.5222C406.251 62.5261 402.263 63.8917 398.798 65.8201C397.551 66.8623 399.867 67.8599 400.461 68.55C403.863 71.5117 406.279 76.0165 406.224 80.5541C404.876 79.62 404.489 77.4283 403.403 76.0984C400.689 72.1384 397.143 67.345 391.831 67.3487C385.85 67.2211 380.817 72.6421 380.687 78.4945C379.664 84.8225 383.862 90.8008 388.945 94.1461C384.06 94.1174 380.183 90.2017 378.905 85.7058C378.093 84.2875 378.602 81.1432 376.349 81.1547C374.277 81.4925 372.071 81.8673 370.164 82.6596C370.718 87.2325 371.361 91.862 372.622 96.2984C374.938 100.547 379.082 103.443 381.883 107.362C386.857 114.364 392.329 121.265 395.326 129.404C396.591 132.99 396.702 137.945 400.841 139.537C404.755 141.46 408.595 143.795 412.7 145.182C417.789 143.381 422.732 140.759 428.271 140.699C431.655 140.19 435.329 140.945 438.524 139.603C441.823 137.128 443.399 132.983 444.622 129.181C444.973 124.809 445.272 120.137 443.117 116.134C442.686 114.214 440.348 112.458 441.738 110.512C445.188 102.126 448.125 92.4023 444.593 83.5459C439.249 70.143 424.272 62.2419 410.261 62.5222Z" fill="url(#paint6_linear_9_63)"/>
<path d="M410.328 92.5775L425.912 91.9806C426.17 93.5981 426.95 95.144 428.244 96.3431C431.319 99.1911 436.118 99.0077 438.966 95.9335C441.814 92.8591 441.631 88.0595 438.557 85.2114C435.482 82.3635 430.683 82.5469 427.835 85.621C426.636 86.9154 425.977 88.5167 425.842 90.1488L410.258 90.7458C410 89.1283 409.22 87.5823 407.925 86.382C404.85 83.5339 400.051 83.7175 397.203 86.7916C394.355 89.866 394.538 94.6655 397.612 97.5136C398.907 98.7127 400.507 99.3721 402.14 99.5062L402.723 114.751C401.106 115.01 399.56 115.789 398.36 117.084C395.512 120.158 395.696 124.958 398.77 127.806C401.844 130.654 406.644 130.47 409.492 127.396C412.34 124.322 412.157 119.522 409.082 116.674C407.788 115.475 406.187 114.815 404.555 114.681L403.972 99.4365C405.303 99.2232 406.587 98.6555 407.668 97.7379L414.52 104.085C413.297 106.038 413.591 108.645 415.344 110.269C417.327 112.105 420.422 111.986 422.257 110.004C424.093 108.023 423.974 104.926 421.994 103.091C420.241 101.467 417.619 101.372 415.765 102.742L408.914 96.394C409.748 95.2453 410.216 93.9226 410.328 92.5775Z" fill="url(#paint7_linear_9_63)"/>
<path d="M166.7 539C166.7 533.7 170.5 529.9 176 529.9C181.5 529.9 185.3 533.7 185.3 539C185.3 544.3 181.4 548.1 176 548.1C170.6 548.1 166.7 544.2 166.7 539ZM183.4 539C183.4 534.9 180.1 531.6 176.1 531.6C172 531.6 168.7 534.9 168.7 538.9C168.7 543 172 546.3 176 546.3C179.9 546.4 183.2 543.4 183.3 539.5C183.4 539.3 183.4 539.2 183.4 539ZM187.6 541.4V534.5H189.4V541.4C189.4 544.6 191.3 546.4 194.1 546.4C196.9 546.4 198.8 544.6 198.8 541.4V534.5H200.6V541.4C200.6 545.8 198 548.1 194.1 548.1C190.2 548.1 187.5 545.8 187.6 541.4ZM203.2 539.8C203.2 536 205.5 534.1 208.8 534.1C212.1 534.1 214.3 535.9 214.3 539.8V540H212.5V539.8C212.5 537 211 535.8 208.7 535.8C206.4 535.8 204.9 537 204.9 539.8V547.7H203.1L203.2 539.8ZM223.2 541.2C223 537.5 225.9 534.4 229.6 534.2C229.8 534.2 230 534.2 230.2 534.2C234 534 237.1 536.9 237.3 540.6C237.3 540.8 237.3 541 237.3 541.2C237.4 544.9 234.6 548 230.9 548.1C230.8 548.1 230.6 548.1 230.5 548.1C228.2 548.2 226 547 224.9 544.9V553.4H223.1V541.2H223.2ZM235.6 541.1C235.6 538.2 233.2 535.8 230.3 535.8C227.4 535.8 225 538.2 225 541.1C225 544 227.4 546.4 230.3 546.4C233.1 546.5 235.5 544.3 235.5 541.5C235.6 541.4 235.6 541.2 235.6 541.1ZM239.5 539.8C239.5 536 241.8 534.1 245.1 534.1C248.4 534.1 250.6 535.9 250.6 539.8V540H248.8V539.8C248.8 537 247.3 535.8 245 535.8C242.7 535.8 241.2 537 241.2 539.8V547.7H239.4L239.5 539.8ZM251.8 541.1C251.7 537.2 254.9 533.9 258.8 533.9C262.7 533.8 266 537 266 540.9C266.1 544.8 262.9 548.1 259 548.1H258.9C255.2 548.3 251.9 545.5 251.7 541.7C251.8 541.5 251.8 541.3 251.8 541.1ZM264.3 541.1C264.3 538.2 261.9 535.8 259 535.8C256.1 535.8 253.7 538.2 253.7 541.1C253.7 544 256.1 546.4 259 546.4C261.8 546.5 264.2 544.3 264.2 541.5C264.2 541.4 264.2 541.2 264.3 541.1ZM267.6 541.1C267.5 537.4 270.4 534.2 274.2 534.1C274.4 534.1 274.6 534.1 274.8 534.1C277.9 533.9 280.8 536 281.6 539H279.8C278.7 536.3 275.6 535 272.9 536.1C270.2 537.2 268.9 540.3 270 543C271.1 545.7 274.2 547 276.9 545.9C278.2 545.4 279.2 544.3 279.8 543H281.6C280.8 546 277.9 548.1 274.8 547.9C271.1 548.1 267.9 545.3 267.6 541.5C267.6 541.5 267.6 541.3 267.6 541.1ZM283.1 541.1C283.1 537.2 286.3 534 290.2 534C294.1 534 297.3 537.2 297.3 541.1V541.7H284.9C285.1 544.5 287.4 546.6 290.2 546.4C292 546.5 293.8 545.6 294.7 544H296.7C295 547.6 290.7 549.1 287.1 547.3C284.7 546.2 283.2 543.8 283.1 541.1ZM295.4 540.1C294.8 537.2 292.1 535.3 289.2 535.9C287.1 536.3 285.4 538 285 540.1H295.4ZM298.9 544H300.7C300.8 545.4 302.1 546.4 304.3 546.4C306.5 546.4 307.9 545.3 307.9 543.9C307.9 542.3 306.2 542.1 304.3 541.9C301.9 541.6 299.2 541.2 299.2 538.3C299.2 535.8 301.1 534.1 304.2 534.1C307.3 534.1 309.2 535.8 309.3 538.1H307.5C307.4 536.8 306.2 535.8 304.2 535.8C302.2 535.8 301 536.8 301 538.2C301 539.8 302.7 540 304.6 540.3C306.7 540.6 309.7 540.9 309.7 543.9C309.7 546.4 307.6 548.2 304.3 548.2C301 548.2 299 546.3 298.9 544ZM311.4 544H313.2C313.3 545.4 314.6 546.4 316.8 546.4C319 546.4 320.4 545.3 320.4 543.9C320.4 542.3 318.7 542.1 316.8 541.9C314.4 541.6 311.7 541.2 311.7 538.3C311.7 535.8 313.7 534.1 316.8 534.1C319.9 534.1 321.8 535.8 321.8 538.1H320C319.9 536.8 318.7 535.8 316.7 535.8C314.7 535.8 313.5 536.8 313.5 538.2C313.5 539.8 315.2 540 317.1 540.3C319.2 540.6 322.2 540.9 322.2 543.9C322.2 546.4 320.1 548.2 316.8 548.2C313.6 548.2 311.5 546.3 311.4 544ZM331.5 530.6C331.5 529.8 332.1 529.2 332.9 529.2C333.7 529.2 334.3 529.8 334.3 530.6C334.3 531.4 333.7 532 332.9 532C332.1 532 331.5 531.4 331.5 530.6ZM332 534.6H333.8V547.8H332V534.6ZM336.9 540.9C336.9 536.5 339.5 534.2 343.4 534.2C347.3 534.2 349.9 536.5 349.9 540.9V547.8H348.1V540.9C348.1 537.6 346.2 535.9 343.4 535.9C340.6 535.9 338.7 537.6 338.7 540.9V547.8H336.9V540.9ZM359.1 541.3C359.1 537.4 362.3 534.2 366.2 534.2C370.1 534.2 373.3 537.4 373.3 541.3V547.8H371.6V544.5C370.7 546.8 368.4 548.2 365.9 548.1C362.2 548.2 359.2 545.3 359.1 541.7C359.1 541.5 359.1 541.4 359.1 541.3ZM371.5 541.2C371.5 538.3 369.1 535.9 366.2 535.9C363.3 535.9 360.9 538.3 360.9 541.2C360.9 544.1 363.3 546.5 366.2 546.5C369 546.6 371.4 544.4 371.5 541.6C371.5 541.4 371.5 541.3 371.5 541.2ZM383.1 540.9C383.1 536.5 385.7 534.2 389.6 534.2C393.5 534.2 396.1 536.5 396.1 540.9V547.8H394.3V540.9C394.3 537.6 392.4 535.9 389.6 535.9C386.8 535.9 384.9 537.6 384.9 540.9V547.8H383.1V540.9ZM398.7 541.5V534.6H400.5V541.5C400.5 544.7 402.4 546.5 405.2 546.5C408 546.5 409.9 544.7 409.9 541.5V534.6H411.7V541.5C411.7 545.9 409.1 548.2 405.2 548.2C401.3 548.2 398.7 545.8 398.7 541.5ZM414.4 542.9V529.9H416.2V534.6H424V536.2H416.2V542.9C416.2 545.3 417.5 546.4 419.6 546.4C421.7 546.4 423 545.3 423 542.9V542.6H424.7V542.9C424.7 546.4 422.6 548.1 419.6 548.1C416.6 548.1 414.4 546.3 414.4 542.9ZM426.5 544.1H428.3C428.4 545.5 429.7 546.5 431.9 546.5C434.1 546.5 435.5 545.4 435.5 544C435.5 542.4 433.8 542.2 431.9 542C429.5 541.7 426.8 541.3 426.8 538.4C426.8 535.9 428.8 534.2 431.8 534.2C434.8 534.2 436.8 535.9 436.9 538.2H435.1C435 536.9 433.8 535.9 431.8 535.9C429.8 535.9 428.6 536.9 428.6 538.3C428.6 539.9 430.3 540.1 432.2 540.4C434.3 540.7 437.3 541 437.3 544C437.3 546.5 435.2 548.3 431.9 548.3C428.6 548.3 426.6 546.3 426.5 544.1ZM439.9 528.8H441.7V537.1C442.6 535.2 444.6 534.1 446.7 534.2C450.2 534.2 453 536.3 453 540.9V547.8H451.2V540.9C451.2 537.6 449.3 535.9 446.5 535.9C443.7 535.9 441.8 537.7 441.8 540.9V547.8H440L439.9 528.8ZM455 541.2C455 537.3 458.2 534.1 462.1 534.1C466 534.1 469.2 537.3 469.2 541.2V541.8H456.9C457.1 544.6 459.4 546.7 462.2 546.5C464 546.6 465.8 545.7 466.7 544.1H468.7C467 547.7 462.7 549.2 459.1 547.4C456.7 546.2 455.2 543.8 455 541.2ZM467.4 540.2C466.8 537.3 464.1 535.4 461.2 536C459.1 536.4 457.4 538.1 457 540.2H467.4ZM471.8 528.8H473.6V547.8H471.8V528.8ZM477.2 528.8H479V547.8H477.2V528.8ZM482.7 536.9C482.7 536.2 483.3 535.5 484 535.5C484 535.5 484 535.5 484.1 535.5C484.9 535.5 485.5 536.1 485.5 536.9C485.5 537.7 484.9 538.3 484.1 538.3C483.3 538.3 482.7 537.7 482.7 536.9ZM482.7 546.8C482.7 546.1 483.3 545.4 484 545.4C484 545.4 484 545.4 484.1 545.4C484.9 545.4 485.5 546 485.5 546.8C485.5 547.6 484.9 548.2 484.1 548.2C483.3 548.2 482.7 547.5 482.7 546.8Z" fill="url(#paint8_linear_9_63)"/>
<path d="M511.2 577C511.2 575.2 512.9 573.7 514.8 574.2C515.9 574.4 516.7 575.3 517 576.4C517.4 578.3 516 580 514.2 580C512.5 580 511.2 578.7 511.2 577ZM514.1 566.7C515.9 566.7 517.4 565 516.9 563.1C516.7 562 515.8 561.2 514.7 560.9C512.8 560.5 511.1 561.9 511.1 563.7C511.2 565.4 512.5 566.7 514.1 566.7ZM514.1 557.6C515.9 557.6 517.4 555.9 516.9 554C516.7 552.9 515.8 552.1 514.7 551.8C512.8 551.4 511.1 552.8 511.1 554.6C511.2 556.3 512.5 557.6 514.1 557.6ZM514.1 548.4C515.9 548.4 517.4 546.7 516.9 544.8C516.7 543.7 515.8 542.9 514.7 542.6C512.8 542.2 511.1 543.6 511.1 545.4C511.2 547.1 512.5 548.4 514.1 548.4ZM514.1 539.3C515.9 539.3 517.4 537.6 516.9 535.7C516.7 534.6 515.8 533.8 514.7 533.5C512.8 533.1 511.1 534.5 511.1 536.3C511.2 538 512.5 539.3 514.1 539.3ZM514.1 530.1C515.9 530.1 517.4 528.4 516.9 526.5C516.7 525.4 515.8 524.6 514.7 524.3C512.8 523.9 511.1 525.3 511.1 527.1C511.2 528.8 512.5 530.1 514.1 530.1ZM514.1 521C515.9 521 517.4 519.3 516.9 517.4C516.7 516.3 515.8 515.5 514.7 515.2C512.8 514.8 511.1 516.2 511.1 518C511.2 519.7 512.5 521 514.1 521ZM508.3 574.1C510.1 574.1 511.6 572.4 511.1 570.5C510.9 569.4 510 568.6 508.9 568.3C507 567.9 505.3 569.3 505.3 571.1C505.3 572.8 506.7 574.1 508.3 574.1ZM502.4 568.3C504.2 568.3 505.7 566.6 505.2 564.7C505 563.6 504.1 562.8 503 562.5C501.1 562.1 499.4 563.5 499.4 565.3C499.5 567 500.8 568.3 502.4 568.3ZM522.9 571.2C522.9 569.4 521.2 567.9 519.3 568.4C518.2 568.6 517.4 569.5 517.1 570.6C516.7 572.5 518.1 574.2 519.9 574.2C521.6 574.1 522.9 572.9 522.9 571.2ZM528.7 565.4C528.7 563.6 527 562.1 525.1 562.6C524 562.8 523.2 563.7 522.9 564.8C522.5 566.7 523.9 568.4 525.7 568.4C527.4 568.3 528.7 567 528.7 565.4C528.8 565.4 528.8 565.4 528.7 565.4Z" fill="url(#paint9_linear_9_63)"/>
<path d="M172.789 366.383C170.123 366.383 168.053 364.719 168.053 361.327V352.154H169.931V361.327C169.931 363.567 171.211 364.655 172.917 364.655C174.645 364.655 175.925 363.525 175.925 361.327V352.154H177.803V361.327C177.803 363.525 179.061 364.655 180.789 364.655C182.496 364.655 183.776 363.567 183.776 361.327V352.154H185.653V361.327C185.653 364.719 183.584 366.383 180.917 366.383C179.061 366.383 177.589 365.53 176.864 363.93C176.117 365.53 174.667 366.383 172.789 366.383ZM193.05 366.383C189.722 366.383 187.375 364.037 187.375 360.837C187.375 357.637 189.722 355.29 193.05 355.29C196.378 355.29 198.682 357.637 198.682 360.837V361.455H189.21C189.445 363.482 190.959 364.762 193.05 364.762C194.565 364.762 195.653 364.207 196.314 363.162H198.234C197.423 365.125 195.503 366.383 193.05 366.383ZM189.253 359.898H196.847C196.463 357.999 194.949 356.911 193.05 356.911C191.087 356.911 189.615 358.042 189.253 359.898ZM211.216 366.383C208.101 366.383 206.01 364.591 206.01 361.071V355.567H207.76V361.071C207.76 363.482 209.125 364.762 211.216 364.762C213.306 364.762 214.672 363.482 214.672 361.071V355.567H216.421V361.071C216.421 364.57 214.33 366.383 211.216 366.383ZM218.51 366.106V360.623C218.51 357.103 220.601 355.29 223.716 355.29C226.83 355.29 228.921 357.082 228.921 360.623V366.106H227.172V360.623C227.172 358.191 225.806 356.911 223.716 356.911C221.625 356.911 220.26 358.191 220.26 360.623V366.106H218.51ZM236.279 366.383C232.93 366.383 230.584 364.058 230.584 360.773C230.584 357.402 233.08 355.29 235.981 355.29C237.837 355.29 239.373 356.143 240.141 357.615V350.959H241.89V360.751C241.89 364.186 239.543 366.383 236.279 366.383ZM236.258 364.762C238.583 364.762 240.141 363.098 240.141 360.837C240.141 358.554 238.583 356.911 236.258 356.911C233.933 356.911 232.354 358.554 232.354 360.837C232.354 363.098 233.933 364.762 236.258 364.762ZM249.237 366.383C245.909 366.383 243.563 364.037 243.563 360.837C243.563 357.637 245.909 355.29 249.237 355.29C252.565 355.29 254.869 357.637 254.869 360.837V361.455H245.397C245.632 363.482 247.147 364.762 249.237 364.762C250.752 364.762 251.84 364.207 252.501 363.162H254.421C253.611 365.125 251.691 366.383 249.237 366.383ZM245.44 359.898H253.035C252.651 357.999 251.136 356.911 249.237 356.911C247.275 356.911 245.803 358.042 245.44 359.898ZM256.531 366.106V359.855C256.531 356.783 258.366 355.29 261.032 355.29C263.678 355.29 265.491 356.783 265.491 359.877V359.983H263.763V359.855C263.763 357.786 262.654 356.911 261.032 356.911C259.368 356.911 258.28 357.786 258.28 359.855V366.106H256.531ZM270.791 366.383C268.167 366.383 266.503 364.975 266.439 363.098H268.209C268.273 364.079 269.191 364.805 270.791 364.805C272.476 364.805 273.372 364.037 273.372 363.077C273.372 361.946 272.156 361.797 270.727 361.626C268.871 361.391 266.673 361.071 266.673 358.703C266.673 356.677 268.273 355.29 270.769 355.29C273.265 355.29 274.801 356.698 274.844 358.49H273.116C273.052 357.573 272.22 356.869 270.769 356.869C269.297 356.869 268.444 357.594 268.444 358.554C268.444 359.685 269.681 359.813 271.068 360.005C272.817 360.218 275.143 360.517 275.143 362.927C275.143 364.997 273.436 366.383 270.791 366.383ZM281.025 366.383C278.55 366.383 276.843 364.975 276.843 362.159V351.834H278.593V355.567H284.587V357.167H278.593V362.159C278.593 363.951 279.553 364.762 281.025 364.762C282.497 364.762 283.478 363.973 283.478 362.159V361.925H285.185V362.159C285.185 364.975 283.499 366.383 281.025 366.383ZM291.897 366.383C289.06 366.383 286.5 364.335 286.5 360.922C286.5 357.615 288.847 355.29 292.196 355.29C295.503 355.29 297.807 357.551 297.807 360.922V366.106H296.207V363.653C295.481 365.445 293.839 366.383 291.897 366.383ZM292.175 364.762C294.5 364.762 296.079 363.098 296.079 360.837C296.079 358.554 294.5 356.911 292.175 356.911C289.849 356.911 288.271 358.554 288.271 360.837C288.271 363.098 289.849 364.762 292.175 364.762ZM299.906 366.106V360.623C299.906 357.103 301.997 355.29 305.111 355.29C308.226 355.29 310.317 357.082 310.317 360.623V366.106H308.567V360.623C308.567 358.191 307.202 356.911 305.111 356.911C303.021 356.911 301.655 358.191 301.655 360.623V366.106H299.906ZM317.675 366.383C314.326 366.383 311.979 364.058 311.979 360.773C311.979 357.402 314.475 355.29 317.377 355.29C319.233 355.29 320.769 356.143 321.537 357.615V350.959H323.286V360.751C323.286 364.186 320.939 366.383 317.675 366.383ZM317.654 364.762C319.979 364.762 321.537 363.098 321.537 360.837C321.537 358.554 319.979 356.911 317.654 356.911C315.329 356.911 313.75 358.554 313.75 360.837C313.75 363.098 315.329 364.762 317.654 364.762ZM336.3 366.383C332.972 366.383 330.625 364.037 330.625 360.837C330.625 357.637 332.972 355.29 336.3 355.29C339.628 355.29 341.932 357.637 341.932 360.837V361.455H332.46C332.694 363.482 334.209 364.762 336.3 364.762C337.814 364.762 338.902 364.207 339.564 363.162H341.484C340.673 365.125 338.753 366.383 336.3 366.383ZM332.502 359.898H340.097C339.713 357.999 338.198 356.911 336.3 356.911C334.337 356.911 332.865 358.042 332.502 359.898ZM348.564 366.383C345.727 366.383 343.167 364.335 343.167 360.922C343.167 357.615 345.513 355.29 348.863 355.29C352.169 355.29 354.473 357.551 354.473 360.922V366.106H352.873V363.653C352.148 365.445 350.505 366.383 348.564 366.383ZM348.841 364.762C351.167 364.762 352.745 363.098 352.745 360.837C352.745 358.554 351.167 356.911 348.841 356.911C346.516 356.911 344.937 358.554 344.937 360.837C344.937 363.098 346.516 364.762 348.841 364.762ZM361.82 366.383C358.492 366.383 356.146 364.037 356.146 360.837C356.146 357.637 358.492 355.29 361.82 355.29C364.594 355.29 366.663 356.911 367.26 359.301H365.49C364.935 357.85 363.591 356.911 361.82 356.911C359.495 356.911 357.916 358.554 357.916 360.837C357.916 363.098 359.495 364.762 361.82 364.762C363.591 364.762 364.935 363.823 365.49 362.373H367.26C366.663 364.762 364.594 366.383 361.82 366.383ZM369.289 366.106V350.959H371.038V357.445C371.763 356.037 373.086 355.29 374.771 355.29C377.481 355.29 379.699 356.954 379.699 360.623V366.106H377.95V360.623C377.95 358.191 376.585 356.911 374.494 356.911C372.446 356.911 371.038 358.213 371.038 360.623V366.106H369.289ZM392.695 366.383C389.367 366.383 387.021 364.037 387.021 360.837C387.021 357.637 389.367 355.29 392.695 355.29C395.469 355.29 397.538 356.911 398.135 359.301H396.365C395.81 357.85 394.466 356.911 392.695 356.911C390.37 356.911 388.791 358.554 388.791 360.837C388.791 363.098 390.37 364.762 392.695 364.762C394.466 364.762 395.81 363.823 396.365 362.373H398.135C397.538 364.762 395.469 366.383 392.695 366.383ZM405.028 366.383C401.913 366.383 399.822 364.591 399.822 361.071V355.567H401.572V361.071C401.572 363.482 402.937 364.762 405.028 364.762C407.118 364.762 408.484 363.482 408.484 361.071V355.567H410.233V361.071C410.233 364.57 408.142 366.383 405.028 366.383ZM416.29 366.383C413.666 366.383 412.002 364.975 411.938 363.098H413.709C413.773 364.079 414.69 364.805 416.29 364.805C417.976 364.805 418.872 364.037 418.872 363.077C418.872 361.946 417.656 361.797 416.226 361.626C414.37 361.391 412.173 361.071 412.173 358.703C412.173 356.677 413.773 355.29 416.269 355.29C418.765 355.29 420.301 356.698 420.344 358.49H418.616C418.552 357.573 417.72 356.869 416.269 356.869C414.797 356.869 413.944 357.594 413.944 358.554C413.944 359.685 415.181 359.813 416.568 360.005C418.317 360.218 420.642 360.517 420.642 362.927C420.642 364.997 418.936 366.383 416.29 366.383ZM426.525 366.383C424.05 366.383 422.343 364.975 422.343 362.159V351.834H424.093V355.567H430.087V357.167H424.093V362.159C424.093 363.951 425.053 364.762 426.525 364.762C427.997 364.762 428.978 363.973 428.978 362.159V361.925H430.685V362.159C430.685 364.975 428.999 366.383 426.525 366.383ZM437.674 366.383C434.346 366.383 432 364.037 432 360.837C432 357.637 434.346 355.29 437.674 355.29C441.002 355.29 443.349 357.637 443.349 360.837C443.349 364.037 441.002 366.383 437.674 366.383ZM437.674 364.762C440 364.762 441.578 363.098 441.578 360.837C441.578 358.554 440 356.911 437.674 356.911C435.349 356.911 433.77 358.554 433.77 360.837C433.77 363.098 435.349 364.762 437.674 364.762ZM445.01 366.106V359.983C445.01 356.783 446.866 355.29 449.319 355.29C450.983 355.29 452.37 356.058 453.074 357.509C453.778 356.058 455.143 355.29 456.828 355.29C459.282 355.29 461.138 356.783 461.138 359.983V366.106H459.388V359.983C459.388 357.893 458.258 356.911 456.679 356.911C455.122 356.911 453.97 357.935 453.97 359.983V366.106H452.22V359.983C452.22 357.935 451.026 356.911 449.468 356.911C447.89 356.911 446.759 357.893 446.759 359.983V366.106H445.01ZM468.466 366.383C465.138 366.383 462.791 364.037 462.791 360.837C462.791 357.637 465.138 355.29 468.466 355.29C471.794 355.29 474.098 357.637 474.098 360.837V361.455H464.626C464.861 363.482 466.375 364.762 468.466 364.762C469.981 364.762 471.069 364.207 471.73 363.162H473.65C472.839 365.125 470.919 366.383 468.466 366.383ZM464.669 359.898H472.263C471.879 357.999 470.365 356.911 468.466 356.911C466.503 356.911 465.031 358.042 464.669 359.898ZM475.76 366.106V359.855C475.76 356.783 477.594 355.29 480.261 355.29C482.906 355.29 484.72 356.783 484.72 359.877V359.983H482.992V359.855C482.992 357.786 481.882 356.911 480.261 356.911C478.597 356.911 477.509 357.786 477.509 359.855V366.106H475.76ZM493.06 353.733C492.335 353.733 491.801 353.178 491.801 352.453C491.801 351.727 492.335 351.194 493.06 351.194C493.785 351.194 494.319 351.727 494.319 352.453C494.319 353.178 493.785 353.733 493.06 353.733ZM492.185 366.106V355.567H493.935V366.106H492.185ZM500.374 366.383C497.75 366.383 496.086 364.975 496.022 363.098H497.792C497.856 364.079 498.774 364.805 500.374 364.805C502.059 364.805 502.955 364.037 502.955 363.077C502.955 361.946 501.739 361.797 500.31 361.626C498.454 361.391 496.256 361.071 496.256 358.703C496.256 356.677 497.856 355.29 500.352 355.29C502.848 355.29 504.384 356.698 504.427 358.49H502.699C502.635 357.573 501.803 356.869 500.352 356.869C498.88 356.869 498.027 357.594 498.027 358.554C498.027 359.685 499.264 359.813 500.651 360.005C502.4 360.218 504.726 360.517 504.726 362.927C504.726 364.997 503.019 366.383 500.374 366.383Z" fill="#F9F9F9"/>
<path d="M172.289 393.05C169.174 393.05 167.083 391.258 167.083 387.738V382.234H168.833V387.738C168.833 390.149 170.198 391.429 172.289 391.429C174.379 391.429 175.745 390.149 175.745 387.738V382.234H177.494V387.738C177.494 391.237 175.403 393.05 172.289 393.05ZM179.583 392.773V387.29C179.583 383.77 181.674 381.957 184.789 381.957C187.903 381.957 189.994 383.749 189.994 387.29V392.773H188.245V387.29C188.245 384.858 186.879 383.578 184.789 383.578C182.698 383.578 181.333 384.858 181.333 387.29V392.773H179.583ZM193.342 380.399C192.616 380.399 192.083 379.845 192.083 379.119C192.083 378.394 192.616 377.861 193.342 377.861C194.067 377.861 194.6 378.394 194.6 379.119C194.6 379.845 194.067 380.399 193.342 380.399ZM192.467 392.773V382.234H194.216V392.773H192.467ZM207.567 397.274H205.818V390.725C205.05 392.197 203.514 393.05 201.658 393.05C198.757 393.05 196.261 390.938 196.261 387.567C196.261 384.282 198.607 381.957 201.957 381.957C205.221 381.957 207.567 384.154 207.567 387.589V397.274ZM201.935 391.429C204.261 391.429 205.818 389.765 205.818 387.503C205.818 385.221 204.261 383.578 201.935 383.578C199.61 383.578 198.031 385.221 198.031 387.503C198.031 389.765 199.61 391.429 201.935 391.429ZM214.872 393.05C211.757 393.05 209.666 391.258 209.666 387.738V382.234H211.416V387.738C211.416 390.149 212.781 391.429 214.872 391.429C216.962 391.429 218.328 390.149 218.328 387.738V382.234H220.077V387.738C220.077 391.237 217.986 393.05 214.872 393.05ZM227.414 393.05C224.086 393.05 221.74 390.703 221.74 387.503C221.74 384.303 224.086 381.957 227.414 381.957C230.742 381.957 233.046 384.303 233.046 387.503V388.122H223.574C223.809 390.149 225.324 391.429 227.414 391.429C228.929 391.429 230.017 390.874 230.678 389.829H232.598C231.788 391.791 229.868 393.05 227.414 393.05ZM223.617 386.565H231.212C230.828 384.666 229.313 383.578 227.414 383.578C225.452 383.578 223.98 384.709 223.617 386.565ZM234.634 395.503L235.38 392.965C234.89 392.815 234.548 392.346 234.548 391.791C234.548 391.066 235.082 390.533 235.807 390.533C236.532 390.533 237.066 391.066 237.066 391.791C237.066 392.005 237.002 392.282 236.916 392.474L235.658 395.503H234.634ZM250.095 393.05C247.258 393.05 244.698 391.002 244.698 387.589C244.698 384.282 247.045 381.957 250.394 381.957C253.701 381.957 256.005 384.218 256.005 387.589V392.773H254.405V390.319C253.679 392.111 252.037 393.05 250.095 393.05ZM250.373 391.429C252.698 391.429 254.277 389.765 254.277 387.503C254.277 385.221 252.698 383.578 250.373 383.578C248.047 383.578 246.469 385.221 246.469 387.503C246.469 389.765 248.047 391.429 250.373 391.429ZM258.104 392.773V387.29C258.104 383.77 260.195 381.957 263.309 381.957C266.424 381.957 268.515 383.749 268.515 387.29V392.773H266.765V387.29C266.765 384.858 265.4 383.578 263.309 383.578C261.219 383.578 259.853 384.858 259.853 387.29V392.773H258.104ZM275.873 393.05C272.524 393.05 270.177 390.725 270.177 387.439C270.177 384.069 272.673 381.957 275.575 381.957C277.431 381.957 278.967 382.81 279.735 384.282V377.626H281.484V387.418C281.484 390.853 279.137 393.05 275.873 393.05ZM275.852 391.429C278.177 391.429 279.735 389.765 279.735 387.503C279.735 385.221 278.177 383.578 275.852 383.578C273.527 383.578 271.948 385.221 271.948 387.503C271.948 389.765 273.527 391.429 275.852 391.429ZM294.22 393.05C291.383 393.05 288.823 391.002 288.823 387.589C288.823 384.282 291.17 381.957 294.519 381.957C297.826 381.957 300.13 384.218 300.13 387.589V392.773H298.53V390.319C297.804 392.111 296.162 393.05 294.22 393.05ZM294.498 391.429C296.823 391.429 298.402 389.765 298.402 387.503C298.402 385.221 296.823 383.578 294.498 383.578C292.172 383.578 290.594 385.221 290.594 387.503C290.594 389.765 292.172 391.429 294.498 391.429ZM307.498 393.05C304.149 393.05 301.802 390.725 301.802 387.439C301.802 384.069 304.298 381.957 307.199 381.957C309.055 381.957 310.591 382.81 311.359 384.282V377.626H313.109V387.418C313.109 390.853 310.762 393.05 307.498 393.05ZM307.477 391.429C309.802 391.429 311.359 389.765 311.359 387.503C311.359 385.221 309.802 383.578 307.477 383.578C305.151 383.578 303.573 385.221 303.573 387.503C303.573 389.765 305.151 391.429 307.477 391.429ZM320.179 393.05C317.341 393.05 314.781 391.002 314.781 387.589C314.781 384.282 317.128 381.957 320.477 381.957C323.784 381.957 326.088 384.218 326.088 387.589V392.773H324.488V390.319C323.763 392.111 322.12 393.05 320.179 393.05ZM320.456 391.429C322.781 391.429 324.36 389.765 324.36 387.503C324.36 385.221 322.781 383.578 320.456 383.578C318.131 383.578 316.552 385.221 316.552 387.503C316.552 389.765 318.131 391.429 320.456 391.429ZM328.187 397.274V387.589C328.187 384.154 330.534 381.957 333.798 381.957C337.147 381.957 339.494 384.282 339.494 387.567C339.494 390.938 337.019 393.05 334.096 393.05C332.262 393.05 330.704 392.197 329.936 390.725V397.274H328.187ZM333.819 391.429C336.166 391.429 337.723 389.765 337.723 387.503C337.723 385.221 336.166 383.578 333.819 383.578C331.494 383.578 329.936 385.221 329.936 387.503C329.936 389.765 331.494 391.429 333.819 391.429ZM345.348 393.05C342.873 393.05 341.166 391.642 341.166 388.826V378.501H342.916V382.234H348.91V383.834H342.916V388.826C342.916 390.618 343.876 391.429 345.348 391.429C346.82 391.429 347.801 390.639 347.801 388.826V388.591H349.508V388.826C349.508 391.642 347.822 393.05 345.348 393.05ZM362.164 393.05C358.836 393.05 356.49 390.703 356.49 387.503C356.49 384.303 358.836 381.957 362.164 381.957C365.492 381.957 367.839 384.303 367.839 387.503C367.839 390.703 365.492 393.05 362.164 393.05ZM362.164 391.429C364.49 391.429 366.068 389.765 366.068 387.503C366.068 385.221 364.49 383.578 362.164 383.578C359.839 383.578 358.26 385.221 358.26 387.503C358.26 389.765 359.839 391.429 362.164 391.429ZM374.705 393.05C371.59 393.05 369.5 391.258 369.5 387.738V382.234H371.249V387.738C371.249 390.149 372.614 391.429 374.705 391.429C376.796 391.429 378.161 390.149 378.161 387.738V382.234H379.91V387.738C379.91 391.237 377.82 393.05 374.705 393.05ZM382 392.773V386.522C382 383.45 383.834 381.957 386.501 381.957C389.146 381.957 390.96 383.45 390.96 386.543V386.65H389.232V386.522C389.232 384.453 388.122 383.578 386.501 383.578C384.837 383.578 383.749 384.453 383.749 386.522V392.773H382ZM403.012 393.05C400.174 393.05 397.615 391.002 397.615 387.589C397.615 384.282 399.961 381.957 403.31 381.957C406.617 381.957 408.921 384.218 408.921 387.589V392.773H407.321V390.319C406.596 392.111 404.953 393.05 403.012 393.05ZM403.289 391.429C405.614 391.429 407.193 389.765 407.193 387.503C407.193 385.221 405.614 383.578 403.289 383.578C400.964 383.578 399.385 385.221 399.385 387.503C399.385 389.765 400.964 391.429 403.289 391.429ZM411.404 392.773V377.626H413.154V392.773H411.404ZM420.936 397.551C418.376 397.551 416.349 396.485 415.624 394.095H417.416C417.949 395.439 419.293 396.015 420.936 396.015C423.24 396.015 424.797 394.906 424.797 391.983V390.618C424.029 392.111 422.493 392.965 420.616 392.965C417.779 392.965 415.219 391.023 415.219 387.503C415.219 384.303 417.565 381.957 420.893 381.957C424.221 381.957 426.525 384.197 426.525 387.589V391.919C426.525 395.973 424.072 397.551 420.936 397.551ZM420.893 391.343C423.219 391.343 424.797 389.765 424.797 387.503C424.797 385.221 423.219 383.578 420.893 383.578C418.568 383.578 416.989 385.221 416.989 387.503C416.989 389.765 418.568 391.343 420.893 391.343ZM433.872 393.05C430.544 393.05 428.198 390.703 428.198 387.503C428.198 384.303 430.544 381.957 433.872 381.957C437.2 381.957 439.547 384.303 439.547 387.503C439.547 390.703 437.2 393.05 433.872 393.05ZM433.872 391.429C436.198 391.429 437.776 389.765 437.776 387.503C437.776 385.221 436.198 383.578 433.872 383.578C431.547 383.578 429.968 385.221 429.968 387.503C429.968 389.765 431.547 391.429 433.872 391.429ZM441.208 392.773V386.522C441.208 383.45 443.042 381.957 445.709 381.957C448.354 381.957 450.168 383.45 450.168 386.543V386.65H448.44V386.522C448.44 384.453 447.33 383.578 445.709 383.578C444.045 383.578 442.957 384.453 442.957 386.522V392.773H441.208ZM452.841 380.399C452.116 380.399 451.583 379.845 451.583 379.119C451.583 378.394 452.116 377.861 452.841 377.861C453.567 377.861 454.1 378.394 454.1 379.119C454.1 379.845 453.567 380.399 452.841 380.399ZM451.967 392.773V382.234H453.716V392.773H451.967ZM460.368 393.05C457.894 393.05 456.187 391.642 456.187 388.826V378.501H457.936V382.234H463.931V383.834H457.936V388.826C457.936 390.618 458.896 391.429 460.368 391.429C461.84 391.429 462.822 390.639 462.822 388.826V388.591H464.528V388.826C464.528 391.642 462.843 393.05 460.368 393.05ZM466.612 392.773V377.626H468.361V384.111C469.086 382.703 470.409 381.957 472.094 381.957C474.804 381.957 477.022 383.621 477.022 387.29V392.773H475.273V387.29C475.273 384.858 473.908 383.578 471.817 383.578C469.769 383.578 468.361 384.879 468.361 387.29V392.773H466.612ZM479.104 392.773V386.65C479.104 383.45 480.96 381.957 483.413 381.957C485.077 381.957 486.464 382.725 487.168 384.175C487.872 382.725 489.237 381.957 490.922 381.957C493.376 381.957 495.232 383.45 495.232 386.65V392.773H493.482V386.65C493.482 384.559 492.352 383.578 490.773 383.578C489.216 383.578 488.064 384.602 488.064 386.65V392.773H486.314V386.65C486.314 384.602 485.12 383.578 483.562 383.578C481.984 383.578 480.853 384.559 480.853 386.65V392.773H479.104ZM501.28 393.05C498.656 393.05 496.992 391.642 496.928 389.765H498.699C498.763 390.746 499.68 391.471 501.28 391.471C502.965 391.471 503.861 390.703 503.861 389.743C503.861 388.613 502.645 388.463 501.216 388.293C499.36 388.058 497.163 387.738 497.163 385.37C497.163 383.343 498.763 381.957 501.259 381.957C503.754 381.957 505.29 383.365 505.333 385.157H503.605C503.541 384.239 502.709 383.535 501.259 383.535C499.787 383.535 498.933 384.261 498.933 385.221C498.933 386.351 500.171 386.479 501.557 386.671C503.306 386.885 505.632 387.183 505.632 389.594C505.632 391.663 503.925 393.05 501.28 393.05Z" fill="#F9F9F9"/>
<path d="M163.221 419.717C160.383 419.717 157.823 417.669 157.823 414.255C157.823 410.949 160.17 408.623 163.519 408.623C166.826 408.623 169.13 410.885 169.13 414.255V419.439H167.53V416.986C166.805 418.778 165.162 419.717 163.221 419.717ZM163.498 418.095C165.823 418.095 167.402 416.431 167.402 414.17C167.402 411.887 165.823 410.245 163.498 410.245C161.173 410.245 159.594 411.887 159.594 414.17C159.594 416.431 161.173 418.095 163.498 418.095ZM171.229 419.439V413.957C171.229 410.437 173.32 408.623 176.434 408.623C179.549 408.623 181.64 410.415 181.64 413.957V419.439H179.89V413.957C179.89 411.525 178.525 410.245 176.434 410.245C174.344 410.245 172.978 411.525 172.978 413.957V419.439H171.229ZM188.998 419.717C185.649 419.717 183.302 417.391 183.302 414.106C183.302 410.735 185.798 408.623 188.7 408.623C190.556 408.623 192.092 409.477 192.86 410.949V404.293H194.609V414.085C194.609 417.519 192.262 419.717 188.998 419.717ZM188.977 418.095C191.302 418.095 192.86 416.431 192.86 414.17C192.86 411.887 191.302 410.245 188.977 410.245C186.652 410.245 185.073 411.887 185.073 414.17C185.073 416.431 186.652 418.095 188.977 418.095ZM203.633 407.066C202.908 407.066 202.375 406.511 202.375 405.786C202.375 405.061 202.908 404.527 203.633 404.527C204.359 404.527 204.892 405.061 204.892 405.786C204.892 406.511 204.359 407.066 203.633 407.066ZM202.759 419.439V408.901H204.508V419.439H202.759ZM206.979 419.439V413.957C206.979 410.437 209.07 408.623 212.184 408.623C215.299 408.623 217.39 410.415 217.39 413.957V419.439H215.64V413.957C215.64 411.525 214.275 410.245 212.184 410.245C210.094 410.245 208.728 411.525 208.728 413.957V419.439H206.979ZM223.66 419.717C221.186 419.717 219.479 418.309 219.479 415.493V405.167H221.228V408.901H227.223V410.501H221.228V415.493C221.228 417.285 222.188 418.095 223.66 418.095C225.132 418.095 226.114 417.306 226.114 415.493V415.258H227.82V415.493C227.82 418.309 226.135 419.717 223.66 419.717ZM234.81 419.717C231.482 419.717 229.136 417.37 229.136 414.17C229.136 410.97 231.482 408.623 234.81 408.623C238.138 408.623 240.442 410.97 240.442 414.17V414.789H230.97C231.205 416.815 232.72 418.095 234.81 418.095C236.325 418.095 237.413 417.541 238.074 416.495H239.994C239.184 418.458 237.264 419.717 234.81 419.717ZM231.013 413.231H238.608C238.224 411.333 236.709 410.245 234.81 410.245C232.848 410.245 231.376 411.375 231.013 413.231ZM242.104 419.439V413.189C242.104 410.117 243.939 408.623 246.605 408.623C249.251 408.623 251.064 410.117 251.064 413.21V413.317H249.336V413.189C249.336 411.119 248.227 410.245 246.605 410.245C244.941 410.245 243.853 411.119 243.853 413.189V419.439H242.104ZM252.82 419.439V408.538C252.82 405.53 254.655 404.015 257.322 404.015C259.967 404.015 261.78 405.551 261.78 408.581H260.052C260.052 406.533 258.943 405.637 257.322 405.637C255.658 405.637 254.57 406.554 254.57 408.538V410.351H260.543V411.951H254.57V419.439H252.82ZM267.554 419.717C264.716 419.717 262.156 417.669 262.156 414.255C262.156 410.949 264.503 408.623 267.852 408.623C271.159 408.623 273.463 410.885 273.463 414.255V419.439H271.863V416.986C271.138 418.778 269.495 419.717 267.554 419.717ZM267.831 418.095C270.156 418.095 271.735 416.431 271.735 414.17C271.735 411.887 270.156 410.245 267.831 410.245C265.506 410.245 263.927 411.887 263.927 414.17C263.927 416.431 265.506 418.095 267.831 418.095ZM280.81 419.717C277.482 419.717 275.136 417.37 275.136 414.17C275.136 410.97 277.482 408.623 280.81 408.623C283.584 408.623 285.653 410.245 286.25 412.634H284.48C283.925 411.183 282.581 410.245 280.81 410.245C278.485 410.245 276.906 411.887 276.906 414.17C276.906 416.431 278.485 418.095 280.81 418.095C282.581 418.095 283.925 417.157 284.48 415.706H286.25C285.653 418.095 283.584 419.717 280.81 419.717ZM293.185 419.717C289.857 419.717 287.511 417.37 287.511 414.17C287.511 410.97 289.857 408.623 293.185 408.623C296.513 408.623 298.817 410.97 298.817 414.17V414.789H289.345C289.58 416.815 291.095 418.095 293.185 418.095C294.7 418.095 295.788 417.541 296.449 416.495H298.369C297.558 418.458 295.638 419.717 293.185 419.717ZM289.388 413.231H296.982C296.598 411.333 295.084 410.245 293.185 410.245C291.223 410.245 289.751 411.375 289.388 413.231ZM304.447 419.717C301.823 419.717 300.159 418.309 300.095 416.431H301.865C301.929 417.413 302.847 418.138 304.447 418.138C306.132 418.138 307.028 417.37 307.028 416.41C307.028 415.279 305.812 415.13 304.383 414.959C302.527 414.725 300.329 414.405 300.329 412.037C300.329 410.01 301.929 408.623 304.425 408.623C306.921 408.623 308.457 410.031 308.5 411.823H306.772C306.708 410.906 305.876 410.202 304.425 410.202C302.953 410.202 302.1 410.927 302.1 411.887C302.1 413.018 303.337 413.146 304.724 413.338C306.473 413.551 308.799 413.85 308.799 416.261C308.799 418.33 307.092 419.717 304.447 419.717ZM320.348 419.717C317.873 419.717 316.166 418.309 316.166 415.493V405.167H317.916V408.901H323.91V410.501H317.916V415.493C317.916 417.285 318.876 418.095 320.348 418.095C321.82 418.095 322.801 417.306 322.801 415.493V415.258H324.508V415.493C324.508 418.309 322.822 419.717 320.348 419.717ZM331.498 419.717C328.17 419.717 325.823 417.37 325.823 414.17C325.823 410.97 328.17 408.623 331.498 408.623C334.826 408.623 337.172 410.97 337.172 414.17C337.172 417.37 334.826 419.717 331.498 419.717ZM331.498 418.095C333.823 418.095 335.402 416.431 335.402 414.17C335.402 411.887 333.823 410.245 331.498 410.245C329.172 410.245 327.594 411.887 327.594 414.17C327.594 416.431 329.172 418.095 331.498 418.095ZM344.5 419.439V413.317C344.5 410.117 346.356 408.623 348.809 408.623C350.473 408.623 351.86 409.391 352.564 410.842C353.268 409.391 354.633 408.623 356.318 408.623C358.772 408.623 360.628 410.117 360.628 413.317V419.439H358.878V413.317C358.878 411.226 357.748 410.245 356.169 410.245C354.612 410.245 353.46 411.269 353.46 413.317V419.439H351.71V413.317C351.71 411.269 350.516 410.245 348.958 410.245C347.38 410.245 346.249 411.226 346.249 413.317V419.439H344.5ZM367.956 419.717C364.628 419.717 362.281 417.37 362.281 414.17C362.281 410.97 364.628 408.623 367.956 408.623C371.284 408.623 373.588 410.97 373.588 414.17V414.789H364.116C364.351 416.815 365.865 418.095 367.956 418.095C369.471 418.095 370.559 417.541 371.22 416.495H373.14C372.329 418.458 370.409 419.717 367.956 419.717ZM364.159 413.231H371.753C371.369 411.333 369.855 410.245 367.956 410.245C365.993 410.245 364.521 411.375 364.159 413.231ZM380.498 419.717C377.17 419.717 374.823 417.37 374.823 414.17C374.823 410.97 377.17 408.623 380.498 408.623C383.826 408.623 386.13 410.97 386.13 414.17V414.789H376.658C376.892 416.815 378.407 418.095 380.498 418.095C382.012 418.095 383.1 417.541 383.762 416.495H385.682C384.871 418.458 382.951 419.717 380.498 419.717ZM376.7 413.231H384.295C383.911 411.333 382.396 410.245 380.498 410.245C378.535 410.245 377.063 411.375 376.7 413.231ZM391.973 419.717C389.498 419.717 387.791 418.309 387.791 415.493V405.167H389.541V408.901H395.535V410.501H389.541V415.493C389.541 417.285 390.501 418.095 391.973 418.095C393.445 418.095 394.426 417.306 394.426 415.493V415.258H396.133V415.493C396.133 418.309 394.447 419.717 391.973 419.717ZM408.704 424.218C406.272 424.218 404.266 423.087 403.626 420.762H405.376C405.909 422.063 407.061 422.682 408.704 422.682C410.794 422.682 412.202 421.658 412.202 419.119V417.477C411.498 418.885 410.154 419.631 408.469 419.631C405.76 419.631 403.541 417.967 403.541 414.319V408.901H405.29V414.319C405.29 416.751 406.656 418.01 408.746 418.01C410.794 418.01 412.202 416.709 412.202 414.319V408.901H413.952V419.077C413.952 422.746 411.626 424.218 408.704 424.218ZM421.622 419.717C418.294 419.717 415.948 417.37 415.948 414.17C415.948 410.97 418.294 408.623 421.622 408.623C424.95 408.623 427.297 410.97 427.297 414.17C427.297 417.37 424.95 419.717 421.622 419.717ZM421.622 418.095C423.948 418.095 425.526 416.431 425.526 414.17C425.526 411.887 423.948 410.245 421.622 410.245C419.297 410.245 417.718 411.887 417.718 414.17C417.718 416.431 419.297 418.095 421.622 418.095ZM434.163 419.717C431.048 419.717 428.958 417.925 428.958 414.405V408.901H430.707V414.405C430.707 416.815 432.072 418.095 434.163 418.095C436.254 418.095 437.619 416.815 437.619 414.405V408.901H439.368V414.405C439.368 417.903 437.278 419.717 434.163 419.717ZM441.458 419.439V413.189C441.458 410.117 443.292 408.623 445.959 408.623C448.604 408.623 450.418 410.117 450.418 413.21V413.317H448.69V413.189C448.69 411.119 447.58 410.245 445.959 410.245C444.295 410.245 443.207 411.119 443.207 413.189V419.439H441.458ZM462.747 419.717C459.419 419.717 457.073 417.37 457.073 414.17C457.073 410.97 459.419 408.623 462.747 408.623C466.075 408.623 468.379 410.97 468.379 414.17V414.789H458.907C459.142 416.815 460.657 418.095 462.747 418.095C464.262 418.095 465.35 417.541 466.011 416.495H467.931C467.121 418.458 465.201 419.717 462.747 419.717ZM458.95 413.231H466.545C466.161 411.333 464.646 410.245 462.747 410.245C460.785 410.245 459.313 411.375 458.95 413.231ZM468.754 419.439L473.064 414.085L468.925 408.901H471.101L474.365 413.146L477.65 408.901H479.741L475.581 414.085L479.912 419.439H477.757L474.301 415.002L470.866 419.439H468.754ZM485.699 419.717C482.862 419.717 480.302 417.669 480.302 414.255C480.302 410.949 482.649 408.623 485.998 408.623C489.305 408.623 491.609 410.885 491.609 414.255V419.439H490.009V416.986C489.283 418.778 487.641 419.717 485.699 419.717ZM485.977 418.095C488.302 418.095 489.881 416.431 489.881 414.17C489.881 411.887 488.302 410.245 485.977 410.245C483.651 410.245 482.073 411.887 482.073 414.17C482.073 416.431 483.651 418.095 485.977 418.095ZM498.956 419.717C495.628 419.717 493.281 417.37 493.281 414.17C493.281 410.97 495.628 408.623 498.956 408.623C501.729 408.623 503.798 410.245 504.396 412.634H502.625C502.07 411.183 500.726 410.245 498.956 410.245C496.63 410.245 495.052 411.887 495.052 414.17C495.052 416.431 496.63 418.095 498.956 418.095C500.726 418.095 502.07 417.157 502.625 415.706H504.396C503.798 418.095 501.729 419.717 498.956 419.717ZM510.264 419.717C507.789 419.717 506.083 418.309 506.083 415.493V405.167H507.832V408.901H513.827V410.501H507.832V415.493C507.832 417.285 508.792 418.095 510.264 418.095C511.736 418.095 512.717 417.306 512.717 415.493V415.258H514.424V415.493C514.424 418.309 512.739 419.717 510.264 419.717Z" fill="#F9F9F9"/>
<path d="M145.594 446.106V439.855C145.594 436.783 147.428 435.29 150.095 435.29C152.74 435.29 154.554 436.783 154.554 439.877V439.983H152.826V439.855C152.826 437.786 151.716 436.911 150.095 436.911C148.431 436.911 147.343 437.786 147.343 439.855V446.106H145.594ZM161.217 446.383C157.889 446.383 155.542 444.037 155.542 440.837C155.542 437.637 157.889 435.29 161.217 435.29C164.545 435.29 166.849 437.637 166.849 440.837V441.455H157.377C157.611 443.482 159.126 444.762 161.217 444.762C162.731 444.762 163.819 444.207 164.481 443.162H166.401C165.59 445.125 163.67 446.383 161.217 446.383ZM157.419 439.898H165.014C164.63 437.999 163.115 436.911 161.217 436.911C159.254 436.911 157.782 438.042 157.419 439.898ZM179.39 450.607H177.641V444.058C176.873 445.53 175.337 446.383 173.481 446.383C170.58 446.383 168.084 444.271 168.084 440.901C168.084 437.615 170.43 435.29 173.78 435.29C177.044 435.29 179.39 437.487 179.39 440.922V450.607ZM173.758 444.762C176.084 444.762 177.641 443.098 177.641 440.837C177.641 438.554 176.084 436.911 173.758 436.911C171.433 436.911 169.854 438.554 169.854 440.837C169.854 443.098 171.433 444.762 173.758 444.762ZM186.695 446.383C183.58 446.383 181.489 444.591 181.489 441.071V435.567H183.239V441.071C183.239 443.482 184.604 444.762 186.695 444.762C188.785 444.762 190.151 443.482 190.151 441.071V435.567H191.9V441.071C191.9 444.57 189.809 446.383 186.695 446.383ZM195.248 433.733C194.523 433.733 193.989 433.178 193.989 432.453C193.989 431.727 194.523 431.194 195.248 431.194C195.973 431.194 196.507 431.727 196.507 432.453C196.507 433.178 195.973 433.733 195.248 433.733ZM194.373 446.106V435.567H196.123V446.106H194.373ZM198.594 446.106V439.855C198.594 436.783 200.428 435.29 203.095 435.29C205.74 435.29 207.554 436.783 207.554 439.877V439.983H205.826V439.855C205.826 437.786 204.716 436.911 203.095 436.911C201.431 436.911 200.343 437.786 200.343 439.855V446.106H198.594ZM214.217 446.383C210.889 446.383 208.542 444.037 208.542 440.837C208.542 437.637 210.889 435.29 214.217 435.29C217.545 435.29 219.849 437.637 219.849 440.837V441.455H210.377C210.611 443.482 212.126 444.762 214.217 444.762C215.731 444.762 216.819 444.207 217.481 443.162H219.401C218.59 445.125 216.67 446.383 214.217 446.383ZM210.419 439.898H218.014C217.63 437.999 216.115 436.911 214.217 436.911C212.254 436.911 210.782 438.042 210.419 439.898ZM221.51 446.106V439.983C221.51 436.783 223.366 435.29 225.82 435.29C227.484 435.29 228.87 436.058 229.574 437.509C230.278 436.058 231.644 435.29 233.329 435.29C235.782 435.29 237.638 436.783 237.638 439.983V446.106H235.889V439.983C235.889 437.893 234.758 436.911 233.18 436.911C231.622 436.911 230.47 437.935 230.47 439.983V446.106H228.721V439.983C228.721 437.935 227.526 436.911 225.969 436.911C224.39 436.911 223.26 437.893 223.26 439.983V446.106H221.51ZM244.966 446.383C241.638 446.383 239.292 444.037 239.292 440.837C239.292 437.637 241.638 435.29 244.966 435.29C248.294 435.29 250.598 437.637 250.598 440.837V441.455H241.126C241.361 443.482 242.876 444.762 244.966 444.762C246.481 444.762 247.569 444.207 248.23 443.162H250.15C249.34 445.125 247.42 446.383 244.966 446.383ZM241.169 439.898H248.764C248.38 437.999 246.865 436.911 244.966 436.911C243.004 436.911 241.532 438.042 241.169 439.898ZM252.26 446.106V440.623C252.26 437.103 254.351 435.29 257.465 435.29C260.58 435.29 262.671 437.082 262.671 440.623V446.106H260.921V440.623C260.921 438.191 259.556 436.911 257.465 436.911C255.375 436.911 254.009 438.191 254.009 440.623V446.106H252.26ZM268.941 446.383C266.467 446.383 264.76 444.975 264.76 442.159V431.834H266.509V435.567H272.504V437.167H266.509V442.159C266.509 443.951 267.469 444.762 268.941 444.762C270.413 444.762 271.395 443.973 271.395 442.159V441.925H273.101V442.159C273.101 444.975 271.416 446.383 268.941 446.383ZM278.811 446.383C276.187 446.383 274.523 444.975 274.459 443.098H276.23C276.294 444.079 277.211 444.805 278.811 444.805C280.497 444.805 281.393 444.037 281.393 443.077C281.393 441.946 280.177 441.797 278.747 441.626C276.891 441.391 274.694 441.071 274.694 438.703C274.694 436.677 276.294 435.29 278.79 435.29C281.286 435.29 282.822 436.698 282.865 438.49H281.137C281.073 437.573 280.241 436.869 278.79 436.869C277.318 436.869 276.465 437.594 276.465 438.554C276.465 439.685 277.702 439.813 279.089 440.005C280.838 440.218 283.163 440.517 283.163 442.927C283.163 444.997 281.457 446.383 278.811 446.383ZM286.192 446.383C285.467 446.383 284.934 445.85 284.934 445.125C284.934 444.399 285.467 443.866 286.192 443.866C286.918 443.866 287.451 444.399 287.451 445.125C287.451 445.85 286.918 446.383 286.192 446.383ZM299.606 446.106V433.882H295.041V432.154H306.07V433.882H301.483V446.106H299.606ZM308.039 446.106V430.959H309.788V437.445C310.514 436.037 311.836 435.29 313.522 435.29C316.231 435.29 318.45 436.954 318.45 440.623V446.106H316.7V440.623C316.7 438.191 315.335 436.911 313.244 436.911C311.196 436.911 309.788 438.213 309.788 440.623V446.106H308.039ZM325.779 446.383C322.451 446.383 320.104 444.037 320.104 440.837C320.104 437.637 322.451 435.29 325.779 435.29C329.107 435.29 331.411 437.637 331.411 440.837V441.455H321.939C322.174 443.482 323.688 444.762 325.779 444.762C327.294 444.762 328.382 444.207 329.043 443.162H330.963C330.152 445.125 328.232 446.383 325.779 446.383ZM321.982 439.898H329.576C329.192 437.999 327.678 436.911 325.779 436.911C323.816 436.911 322.344 438.042 321.982 439.898ZM338.739 446.106V439.983C338.739 436.783 340.595 435.29 343.049 435.29C344.713 435.29 346.099 436.058 346.803 437.509C347.507 436.058 348.872 435.29 350.558 435.29C353.011 435.29 354.867 436.783 354.867 439.983V446.106H353.118V439.983C353.118 437.893 351.987 436.911 350.408 436.911C348.851 436.911 347.699 437.935 347.699 439.983V446.106H345.95V439.983C345.95 437.935 344.755 436.911 343.198 436.911C341.619 436.911 340.489 437.893 340.489 439.983V446.106H338.739ZM362.195 446.383C358.867 446.383 356.521 444.037 356.521 440.837C356.521 437.637 358.867 435.29 362.195 435.29C365.523 435.29 367.827 437.637 367.827 440.837V441.455H358.355C358.59 443.482 360.105 444.762 362.195 444.762C363.71 444.762 364.798 444.207 365.459 443.162H367.379C366.569 445.125 364.649 446.383 362.195 446.383ZM358.398 439.898H365.993C365.609 437.999 364.094 436.911 362.195 436.911C360.233 436.911 358.761 438.042 358.398 439.898ZM373.67 446.383C371.196 446.383 369.489 444.975 369.489 442.159V431.834H371.238V435.567H377.233V437.167H371.238V442.159C371.238 443.951 372.198 444.762 373.67 444.762C375.142 444.762 376.124 443.973 376.124 442.159V441.925H377.83V442.159C377.83 444.975 376.145 446.383 373.67 446.383ZM379.914 446.106V430.959H381.663V437.445C382.388 436.037 383.711 435.29 385.396 435.29C388.106 435.29 390.324 436.954 390.324 440.623V446.106H388.575V440.623C388.575 438.191 387.21 436.911 385.119 436.911C383.071 436.911 381.663 438.213 381.663 440.623V446.106H379.914ZM397.654 446.383C394.326 446.383 391.979 444.037 391.979 440.837C391.979 437.637 394.326 435.29 397.654 435.29C400.982 435.29 403.328 437.637 403.328 440.837C403.328 444.037 400.982 446.383 397.654 446.383ZM397.654 444.762C399.979 444.762 401.558 443.098 401.558 440.837C401.558 438.554 399.979 436.911 397.654 436.911C395.328 436.911 393.75 438.554 393.75 440.837C393.75 443.098 395.328 444.762 397.654 444.762ZM410.258 446.383C406.909 446.383 404.562 444.058 404.562 440.773C404.562 437.402 407.058 435.29 409.96 435.29C411.816 435.29 413.352 436.143 414.12 437.615V430.959H415.869V440.751C415.869 444.186 413.522 446.383 410.258 446.383ZM410.237 444.762C412.562 444.762 414.12 443.098 414.12 440.837C414.12 438.554 412.562 436.911 410.237 436.911C407.912 436.911 406.333 438.554 406.333 440.837C406.333 443.098 407.912 444.762 410.237 444.762ZM424.894 433.733C424.168 433.733 423.635 433.178 423.635 432.453C423.635 431.727 424.168 431.194 424.894 431.194C425.619 431.194 426.152 431.727 426.152 432.453C426.152 433.178 425.619 433.733 424.894 433.733ZM424.019 446.106V435.567H425.768V446.106H424.019ZM432.207 446.383C429.583 446.383 427.919 444.975 427.855 443.098H429.626C429.69 444.079 430.607 444.805 432.207 444.805C433.892 444.805 434.788 444.037 434.788 443.077C434.788 441.946 433.572 441.797 432.143 441.626C430.287 441.391 428.09 441.071 428.09 438.703C428.09 436.677 429.69 435.29 432.186 435.29C434.682 435.29 436.218 436.698 436.26 438.49H434.532C434.468 437.573 433.636 436.869 432.186 436.869C430.714 436.869 429.86 437.594 429.86 438.554C429.86 439.685 431.098 439.813 432.484 440.005C434.234 440.218 436.559 440.517 436.559 442.927C436.559 444.997 434.852 446.383 432.207 446.383ZM443.926 446.106V440.623C443.926 437.103 446.017 435.29 449.132 435.29C452.246 435.29 454.337 437.082 454.337 440.623V446.106H452.588V440.623C452.588 438.191 451.222 436.911 449.132 436.911C447.041 436.911 445.676 438.191 445.676 440.623V446.106H443.926ZM457.685 433.733C456.96 433.733 456.426 433.178 456.426 432.453C456.426 431.727 456.96 431.194 457.685 431.194C458.41 431.194 458.944 431.727 458.944 432.453C458.944 433.178 458.41 433.733 457.685 433.733ZM456.81 446.106V435.567H458.56V446.106H456.81ZM461.031 446.106V439.983C461.031 436.783 462.887 435.29 465.34 435.29C467.004 435.29 468.391 436.058 469.095 437.509C469.799 436.058 471.164 435.29 472.849 435.29C475.303 435.29 477.159 436.783 477.159 439.983V446.106H475.409V439.983C475.409 437.893 474.279 436.911 472.7 436.911C471.143 436.911 469.991 437.935 469.991 439.983V446.106H468.241V439.983C468.241 437.935 467.047 436.911 465.489 436.911C463.911 436.911 462.78 437.893 462.78 439.983V446.106H461.031ZM484.85 446.383C481.586 446.383 479.239 444.186 479.239 440.751V430.959H480.988V437.615C481.756 436.143 483.314 435.29 485.148 435.29C488.071 435.29 490.546 437.402 490.546 440.773C490.546 444.058 488.199 446.383 484.85 446.383ZM484.871 444.762C487.218 444.762 488.775 443.098 488.775 440.837C488.775 438.554 487.218 436.911 484.871 436.911C482.546 436.911 480.988 438.554 480.988 440.837C480.988 443.098 482.546 444.762 484.871 444.762ZM492.602 446.106V430.959H494.351V446.106H492.602ZM502.091 446.383C498.763 446.383 496.416 444.037 496.416 440.837C496.416 437.637 498.763 435.29 502.091 435.29C505.419 435.29 507.723 437.637 507.723 440.837V441.455H498.251C498.486 443.482 500 444.762 502.091 444.762C503.606 444.762 504.694 444.207 505.355 443.162H507.275C506.464 445.125 504.544 446.383 502.091 446.383ZM498.294 439.898H505.888C505.504 437.999 503.99 436.911 502.091 436.911C500.128 436.911 498.656 438.042 498.294 439.898ZM509.31 448.837L510.057 446.298C509.566 446.149 509.225 445.679 509.225 445.125C509.225 444.399 509.758 443.866 510.484 443.866C511.209 443.866 511.742 444.399 511.742 445.125C511.742 445.338 511.678 445.615 511.593 445.807L510.334 448.837H509.31ZM521.06 433.733C520.335 433.733 519.801 433.178 519.801 432.453C519.801 431.727 520.335 431.194 521.06 431.194C521.785 431.194 522.319 431.727 522.319 432.453C522.319 433.178 521.785 433.733 521.06 433.733ZM520.185 446.106V435.567H521.935V446.106H520.185ZM528.587 446.383C526.112 446.383 524.406 444.975 524.406 442.159V431.834H526.155V435.567H532.15V437.167H526.155V442.159C526.155 443.951 527.115 444.762 528.587 444.762C530.059 444.762 531.04 443.973 531.04 442.159V441.925H532.747V442.159C532.747 444.975 531.062 446.383 528.587 446.383Z" fill="#F9F9F9"/>
<path d="M136.133 473.05C132.805 473.05 130.459 470.703 130.459 467.503C130.459 464.303 132.805 461.957 136.133 461.957C139.461 461.957 141.765 464.303 141.765 467.503V468.122H132.293C132.528 470.149 134.043 471.429 136.133 471.429C137.648 471.429 138.736 470.874 139.397 469.829H141.317C140.507 471.791 138.587 473.05 136.133 473.05ZM132.336 466.565H139.931C139.547 464.666 138.032 463.578 136.133 463.578C134.171 463.578 132.699 464.709 132.336 466.565ZM143.811 472.773V457.626H145.56V472.773H143.811ZM149.311 460.399C148.585 460.399 148.052 459.845 148.052 459.119C148.052 458.394 148.585 457.861 149.311 457.861C150.036 457.861 150.569 458.394 150.569 459.119C150.569 459.845 150.036 460.399 149.311 460.399ZM148.436 472.773V462.234H150.185V472.773H148.436ZM152.656 472.773V466.65C152.656 463.45 154.512 461.957 156.965 461.957C158.629 461.957 160.016 462.725 160.72 464.175C161.424 462.725 162.789 461.957 164.475 461.957C166.928 461.957 168.784 463.45 168.784 466.65V472.773H167.035V466.65C167.035 464.559 165.904 463.578 164.325 463.578C162.768 463.578 161.616 464.602 161.616 466.65V472.773H159.867V466.65C159.867 464.602 158.672 463.578 157.115 463.578C155.536 463.578 154.405 464.559 154.405 466.65V472.773H152.656ZM172.123 460.399C171.398 460.399 170.864 459.845 170.864 459.119C170.864 458.394 171.398 457.861 172.123 457.861C172.848 457.861 173.382 458.394 173.382 459.119C173.382 459.845 172.848 460.399 172.123 460.399ZM171.248 472.773V462.234H172.998V472.773H171.248ZM175.469 472.773V467.29C175.469 463.77 177.559 461.957 180.674 461.957C183.789 461.957 185.879 463.749 185.879 467.29V472.773H184.13V467.29C184.13 464.858 182.765 463.578 180.674 463.578C178.583 463.578 177.218 464.858 177.218 467.29V472.773H175.469ZM192.939 473.05C190.102 473.05 187.542 471.002 187.542 467.589C187.542 464.282 189.889 461.957 193.238 461.957C196.545 461.957 198.849 464.218 198.849 467.589V472.773H197.249V470.319C196.523 472.111 194.881 473.05 192.939 473.05ZM193.217 471.429C195.542 471.429 197.121 469.765 197.121 467.503C197.121 465.221 195.542 463.578 193.217 463.578C190.891 463.578 189.313 465.221 189.313 467.503C189.313 469.765 190.891 471.429 193.217 471.429ZM205.129 473.05C202.654 473.05 200.948 471.642 200.948 468.826V458.501H202.697V462.234H208.692V463.834H202.697V468.826C202.697 470.618 203.657 471.429 205.129 471.429C206.601 471.429 207.582 470.639 207.582 468.826V468.591H209.289V468.826C209.289 471.642 207.604 473.05 205.129 473.05ZM216.279 473.05C212.951 473.05 210.604 470.703 210.604 467.503C210.604 464.303 212.951 461.957 216.279 461.957C219.607 461.957 221.911 464.303 221.911 467.503V468.122H212.439C212.674 470.149 214.188 471.429 216.279 471.429C217.794 471.429 218.882 470.874 219.543 469.829H221.463C220.652 471.791 218.732 473.05 216.279 473.05ZM212.482 466.565H220.076C219.692 464.666 218.178 463.578 216.279 463.578C214.316 463.578 212.844 464.709 212.482 466.565ZM227.541 473.05C224.917 473.05 223.253 471.642 223.189 469.765H224.959C225.023 470.746 225.941 471.471 227.541 471.471C229.226 471.471 230.122 470.703 230.122 469.743C230.122 468.613 228.906 468.463 227.477 468.293C225.621 468.058 223.423 467.738 223.423 465.37C223.423 463.343 225.023 461.957 227.519 461.957C230.015 461.957 231.551 463.365 231.594 465.157H229.866C229.802 464.239 228.97 463.535 227.519 463.535C226.047 463.535 225.194 464.261 225.194 465.221C225.194 466.351 226.431 466.479 227.818 466.671C229.567 466.885 231.893 467.183 231.893 469.594C231.893 471.663 230.186 473.05 227.541 473.05ZM244.53 473.05C241.18 473.05 238.834 470.725 238.834 467.439C238.834 464.069 241.33 461.957 244.231 461.957C246.087 461.957 247.623 462.81 248.391 464.282V457.626H250.14V467.418C250.14 470.853 247.793 473.05 244.53 473.05ZM244.508 471.429C246.833 471.429 248.391 469.765 248.391 467.503C248.391 465.221 246.833 463.578 244.508 463.578C242.183 463.578 240.604 465.221 240.604 467.503C240.604 469.765 242.183 471.429 244.508 471.429ZM253.498 460.399C252.773 460.399 252.239 459.845 252.239 459.119C252.239 458.394 252.773 457.861 253.498 457.861C254.223 457.861 254.757 458.394 254.757 459.119C254.757 459.845 254.223 460.399 253.498 460.399ZM252.623 472.773V462.234H254.373V472.773H252.623ZM260.811 473.05C258.187 473.05 256.523 471.642 256.459 469.765H258.23C258.294 470.746 259.211 471.471 260.811 471.471C262.497 471.471 263.393 470.703 263.393 469.743C263.393 468.613 262.177 468.463 260.747 468.293C258.891 468.058 256.694 467.738 256.694 465.37C256.694 463.343 258.294 461.957 260.79 461.957C263.286 461.957 264.822 463.365 264.865 465.157H263.137C263.073 464.239 262.241 463.535 260.79 463.535C259.318 463.535 258.465 464.261 258.465 465.221C258.465 466.351 259.702 466.479 261.089 466.671C262.838 466.885 265.163 467.183 265.163 469.594C265.163 471.663 263.457 473.05 260.811 473.05ZM266.864 472.773V466.522C266.864 463.45 268.699 461.957 271.366 461.957C274.011 461.957 275.824 463.45 275.824 466.543V466.65H274.096V466.522C274.096 464.453 272.987 463.578 271.366 463.578C269.702 463.578 268.614 464.453 268.614 466.522V472.773H266.864ZM282.445 473.05C279.33 473.05 277.239 471.258 277.239 467.738V462.234H278.989V467.738C278.989 470.149 280.354 471.429 282.445 471.429C284.535 471.429 285.901 470.149 285.901 467.738V462.234H287.65V467.738C287.65 471.237 285.559 473.05 282.445 473.05ZM289.739 477.274V467.589C289.739 464.154 292.086 461.957 295.35 461.957C298.699 461.957 301.046 464.282 301.046 467.567C301.046 470.938 298.571 473.05 295.649 473.05C293.814 473.05 292.257 472.197 291.489 470.725V477.274H289.739ZM295.371 471.429C297.718 471.429 299.275 469.765 299.275 467.503C299.275 465.221 297.718 463.578 295.371 463.578C293.046 463.578 291.489 465.221 291.489 467.503C291.489 469.765 293.046 471.429 295.371 471.429ZM306.9 473.05C304.425 473.05 302.718 471.642 302.718 468.826V458.501H304.468V462.234H310.462V463.834H304.468V468.826C304.468 470.618 305.428 471.429 306.9 471.429C308.372 471.429 309.353 470.639 309.353 468.826V468.591H311.06V468.826C311.06 471.642 309.374 473.05 306.9 473.05ZM314.06 460.399C313.335 460.399 312.802 459.845 312.802 459.119C312.802 458.394 313.335 457.861 314.06 457.861C314.786 457.861 315.319 458.394 315.319 459.119C315.319 459.845 314.786 460.399 314.06 460.399ZM313.186 472.773V462.234H314.935V472.773H313.186ZM322.654 473.05C319.326 473.05 316.979 470.703 316.979 467.503C316.979 464.303 319.326 461.957 322.654 461.957C325.982 461.957 328.329 464.303 328.329 467.503C328.329 470.703 325.982 473.05 322.654 473.05ZM322.654 471.429C324.979 471.429 326.558 469.765 326.558 467.503C326.558 465.221 324.979 463.578 322.654 463.578C320.329 463.578 318.75 465.221 318.75 467.503C318.75 469.765 320.329 471.429 322.654 471.429ZM329.989 472.773V467.29C329.989 463.77 332.08 461.957 335.195 461.957C338.309 461.957 340.4 463.749 340.4 467.29V472.773H338.651V467.29C338.651 464.858 337.285 463.578 335.195 463.578C333.104 463.578 331.739 464.858 331.739 467.29V472.773H329.989ZM353.126 473.05C350.289 473.05 347.729 471.002 347.729 467.589C347.729 464.282 350.076 461.957 353.425 461.957C356.732 461.957 359.036 464.218 359.036 467.589V472.773H357.436V470.319C356.71 472.111 355.068 473.05 353.126 473.05ZM353.404 471.429C355.729 471.429 357.308 469.765 357.308 467.503C357.308 465.221 355.729 463.578 353.404 463.578C351.078 463.578 349.5 465.221 349.5 467.503C349.5 469.765 351.078 471.429 353.404 471.429ZM361.135 472.773V467.29C361.135 463.77 363.226 461.957 366.34 461.957C369.455 461.957 371.546 463.749 371.546 467.29V472.773H369.796V467.29C369.796 464.858 368.431 463.578 366.34 463.578C364.25 463.578 362.884 464.858 362.884 467.29V472.773H361.135ZM378.904 473.05C375.555 473.05 373.208 470.725 373.208 467.439C373.208 464.069 375.704 461.957 378.606 461.957C380.462 461.957 381.998 462.81 382.766 464.282V457.626H384.515V467.418C384.515 470.853 382.168 473.05 378.904 473.05ZM378.883 471.429C381.208 471.429 382.766 469.765 382.766 467.503C382.766 465.221 381.208 463.578 378.883 463.578C376.558 463.578 374.979 465.221 374.979 467.503C374.979 469.765 376.558 471.429 378.883 471.429ZM392.281 472.773V466.65C392.281 463.45 394.137 461.957 396.59 461.957C398.254 461.957 399.641 462.725 400.345 464.175C401.049 462.725 402.414 461.957 404.099 461.957C406.553 461.957 408.409 463.45 408.409 466.65V472.773H406.659V466.65C406.659 464.559 405.529 463.578 403.95 463.578C402.393 463.578 401.241 464.602 401.241 466.65V472.773H399.491V466.65C399.491 464.602 398.297 463.578 396.739 463.578C395.161 463.578 394.03 464.559 394.03 466.65V472.773H392.281ZM411.748 460.399C411.022 460.399 410.489 459.845 410.489 459.119C410.489 458.394 411.022 457.861 411.748 457.861C412.473 457.861 413.006 458.394 413.006 459.119C413.006 459.845 412.473 460.399 411.748 460.399ZM410.873 472.773V462.234H412.622V472.773H410.873ZM415.093 472.773V467.29C415.093 463.77 417.184 461.957 420.299 461.957C423.413 461.957 425.504 463.749 425.504 467.29V472.773H423.755V467.29C423.755 464.858 422.389 463.578 420.299 463.578C418.208 463.578 416.843 464.858 416.843 467.29V472.773H415.093ZM428.852 460.399C428.127 460.399 427.593 459.845 427.593 459.119C427.593 458.394 428.127 457.861 428.852 457.861C429.577 457.861 430.111 458.394 430.111 459.119C430.111 459.845 429.577 460.399 428.852 460.399ZM427.977 472.773V462.234H429.727V472.773H427.977ZM432.197 472.773V466.65C432.197 463.45 434.053 461.957 436.507 461.957C438.171 461.957 439.557 462.725 440.261 464.175C440.965 462.725 442.331 461.957 444.016 461.957C446.469 461.957 448.325 463.45 448.325 466.65V472.773H446.576V466.65C446.576 464.559 445.445 463.578 443.867 463.578C442.309 463.578 441.157 464.602 441.157 466.65V472.773H439.408V466.65C439.408 464.602 438.213 463.578 436.656 463.578C435.077 463.578 433.947 464.559 433.947 466.65V472.773H432.197ZM451.664 460.399C450.939 460.399 450.406 459.845 450.406 459.119C450.406 458.394 450.939 457.861 451.664 457.861C452.39 457.861 452.923 458.394 452.923 459.119C452.923 459.845 452.39 460.399 451.664 460.399ZM450.79 472.773V462.234H452.539V472.773H450.79ZM458.978 473.05C456.354 473.05 454.69 471.642 454.626 469.765H456.396C456.46 470.746 457.378 471.471 458.978 471.471C460.663 471.471 461.559 470.703 461.559 469.743C461.559 468.613 460.343 468.463 458.914 468.293C457.058 468.058 454.86 467.738 454.86 465.37C454.86 463.343 456.46 461.957 458.956 461.957C461.452 461.957 462.988 463.365 463.031 465.157H461.303C461.239 464.239 460.407 463.535 458.956 463.535C457.484 463.535 456.631 464.261 456.631 465.221C456.631 466.351 457.868 466.479 459.255 466.671C461.004 466.885 463.33 467.183 463.33 469.594C463.33 471.663 461.623 473.05 458.978 473.05ZM470.279 473.05C466.951 473.05 464.604 470.703 464.604 467.503C464.604 464.303 466.951 461.957 470.279 461.957C473.607 461.957 475.911 464.303 475.911 467.503V468.122H466.439C466.673 470.149 468.188 471.429 470.279 471.429C471.793 471.429 472.881 470.874 473.543 469.829H475.463C474.652 471.791 472.732 473.05 470.279 473.05ZM466.481 466.565H474.076C473.692 464.666 472.177 463.578 470.279 463.578C468.316 463.578 466.844 464.709 466.481 466.565ZM481.54 473.05C478.916 473.05 477.252 471.642 477.188 469.765H478.959C479.023 470.746 479.94 471.471 481.54 471.471C483.226 471.471 484.122 470.703 484.122 469.743C484.122 468.613 482.906 468.463 481.476 468.293C479.62 468.058 477.423 467.738 477.423 465.37C477.423 463.343 479.023 461.957 481.519 461.957C484.015 461.957 485.551 463.365 485.594 465.157H483.866C483.802 464.239 482.97 463.535 481.519 463.535C480.047 463.535 479.194 464.261 479.194 465.221C479.194 466.351 480.431 466.479 481.818 466.671C483.567 466.885 485.892 467.183 485.892 469.594C485.892 471.663 484.186 473.05 481.54 473.05ZM498.508 473.05C495.18 473.05 492.833 470.703 492.833 467.503C492.833 464.303 495.18 461.957 498.508 461.957C501.281 461.957 503.35 463.578 503.948 465.967H502.177C501.622 464.517 500.278 463.578 498.508 463.578C496.182 463.578 494.604 465.221 494.604 467.503C494.604 469.765 496.182 471.429 498.508 471.429C500.278 471.429 501.622 470.49 502.177 469.039H503.948C503.35 471.429 501.281 473.05 498.508 473.05ZM510.883 473.05C507.555 473.05 505.208 470.703 505.208 467.503C505.208 464.303 507.555 461.957 510.883 461.957C514.211 461.957 516.557 464.303 516.557 467.503C516.557 470.703 514.211 473.05 510.883 473.05ZM510.883 471.429C513.208 471.429 514.787 469.765 514.787 467.503C514.787 465.221 513.208 463.578 510.883 463.578C508.557 463.578 506.979 465.221 506.979 467.503C506.979 469.765 508.557 471.429 510.883 471.429ZM522.186 473.05C519.562 473.05 517.898 471.642 517.834 469.765H519.605C519.669 470.746 520.586 471.471 522.186 471.471C523.871 471.471 524.767 470.703 524.767 469.743C524.767 468.613 523.551 468.463 522.122 468.293C520.266 468.058 518.069 467.738 518.069 465.37C518.069 463.343 519.669 461.957 522.165 461.957C524.661 461.957 526.197 463.365 526.239 465.157H524.511C524.447 464.239 523.615 463.535 522.165 463.535C520.693 463.535 519.839 464.261 519.839 465.221C519.839 466.351 521.077 466.479 522.463 466.671C524.213 466.885 526.538 467.183 526.538 469.594C526.538 471.663 524.831 473.05 522.186 473.05ZM532.42 473.05C529.946 473.05 528.239 471.642 528.239 468.826V458.501H529.988V462.234H535.983V463.834H529.988V468.826C529.988 470.618 530.948 471.429 532.42 471.429C533.892 471.429 534.874 470.639 534.874 468.826V468.591H536.58V468.826C536.58 471.642 534.895 473.05 532.42 473.05ZM539.88 473.05C539.154 473.05 538.621 472.517 538.621 471.791C538.621 471.066 539.154 470.533 539.88 470.533C540.605 470.533 541.138 471.066 541.138 471.791C541.138 472.517 540.605 473.05 539.88 473.05Z" fill="#F9F9F9"/>
</g>
<defs>
<linearGradient id="paint0_linear_9_63" x1="548.329" y1="-26.8781" x2="195.791" y2="574.813" gradientUnits="userSpaceOnUse">
<stop offset="0.01" stop-color="#35435F"/>
<stop offset="1"/>
</linearGradient>
<linearGradient id="paint1_linear_9_63" x1="80.3215" y1="493.832" x2="698.762" y2="-25.0978" gradientUnits="userSpaceOnUse">
<stop offset="0.04" stop-color="#44CCF9"/>
<stop offset="0.12" stop-color="#48C4EF"/>
<stop offset="0.25" stop-color="#53AED4"/>
<stop offset="0.42" stop-color="#648BA9"/>
<stop offset="0.63" stop-color="#7C596D"/>
<stop offset="0.85" stop-color="#9B1B21"/>
<stop offset="0.95" stop-color="#A80000"/>
</linearGradient>
<linearGradient id="paint2_linear_9_63" x1="370.307" y1="197.48" x2="408.119" y2="197.48" gradientUnits="userSpaceOnUse">
<stop stop-color="#6589A7"/>
<stop offset="1" stop-color="#6A7F9B"/>
</linearGradient>
<linearGradient id="paint3_linear_9_63" x1="402.243" y1="161.174" x2="438.214" y2="161.174" gradientUnits="userSpaceOnUse">
<stop stop-color="#6A7C98"/>
<stop offset="1" stop-color="#6E748E"/>
</linearGradient>
<linearGradient id="paint4_linear_9_63" x1="225.408" y1="136.077" x2="316.474" y2="136.077" gradientUnits="userSpaceOnUse">
<stop stop-color="#50B3DA"/>
<stop offset="1" stop-color="#57A5C9"/>
</linearGradient>
<linearGradient id="paint5_linear_9_63" x1="299.107" y1="137.243" x2="446.192" y2="137.243" gradientUnits="userSpaceOnUse">
<stop stop-color="#5AA0C3"/>
<stop offset="1" stop-color="#6F738C"/>
</linearGradient>
<linearGradient id="paint6_linear_9_63" x1="299.107" y1="137.243" x2="446.192" y2="137.243" gradientUnits="userSpaceOnUse">
<stop stop-color="#5AA0C3"/>
<stop offset="1" stop-color="#6F738C"/>
</linearGradient>
<linearGradient id="paint7_linear_9_63" x1="395.181" y1="106.509" x2="440.988" y2="106.509" gradientUnits="userSpaceOnUse">
<stop stop-color="#F9F9F9"/>
<stop offset="1" stop-color="#A8D8E2"/>
</linearGradient>
<linearGradient id="paint8_linear_9_63" x1="166.725" y1="541.095" x2="754.995" y2="541.095" gradientUnits="userSpaceOnUse">
<stop offset="0.04" stop-color="#44CCF9"/>
<stop offset="0.12" stop-color="#48C4EF"/>
<stop offset="0.25" stop-color="#53AED4"/>
<stop offset="0.42" stop-color="#648BA9"/>
<stop offset="0.63" stop-color="#7C596D"/>
<stop offset="0.85" stop-color="#9B1B21"/>
<stop offset="0.95" stop-color="#A80000"/>
</linearGradient>
<linearGradient id="paint9_linear_9_63" x1="514.137" y1="515.113" x2="514.126" y2="579.96" gradientUnits="userSpaceOnUse">
<stop stop-color="white"/>
<stop offset="1" stop-color="white"/>
</linearGradient>
<clipPath id="clip0_9_63">
<rect width="671.6" height="671.6" fill="white"/>
</clipPath>
</defs>
</svg>
