<svg width="530" height="840" viewBox="0 0 530 840" fill="none" xmlns="http://www.w3.org/2000/svg">
<g clip-path="url(#clip0_8_6)">
<path d="M529.4 0H0V839.5H529.4V0Z" fill="url(#paint0_linear_8_6)"/>
<path d="M75.65 327.1C75.65 319.3 80.45 315.5 86.65 315.5C91.15 315.5 94.65 317.6 96.35 321.6C98.05 317.6 101.55 315.5 106.05 315.5C112.25 315.5 117.05 319.4 117.05 327.1V348.8H113.45V327.1C113.45 321.6 110.15 318.7 105.85 318.7C101.55 318.7 98.25 321.7 98.25 327.1V348.8H94.45V327.1C94.45 321.7 91.25 318.7 86.85 318.7C82.45 318.7 79.25 321.5 79.25 327.1V348.8H75.65V327.1ZM122.75 316.1H146.75V319.4H126.35V330.5H143.85V333.8H126.35V345.4H146.75V348.7H122.75V316.1ZM161.55 319.4H150.45V316.1H176.25V319.4H165.15V348.8H161.55V319.4ZM180.95 316.1H184.55V330.6H205.75V316.1H209.35V348.8H205.75V333.8H184.55V348.8H180.95V316.1ZM214.35 332.4C214.35 322.6 221.55 315.4 231.75 315.4C241.95 315.4 249.15 322.6 249.15 332.4C249.15 342.2 241.95 349.4 231.75 349.4C221.55 349.4 214.35 342.2 214.35 332.4ZM245.55 332.4C245.55 324.5 239.95 318.7 231.75 318.7C223.55 318.7 217.95 324.5 217.95 332.4C217.95 340.3 223.55 346.1 231.75 346.1C239.95 346.1 245.55 340.3 245.55 332.4ZM254.25 316.1H265.95C277.25 316.1 283.25 322.6 283.25 332.5C283.25 342.4 277.25 348.9 265.85 348.9H254.15L254.25 316.1ZM265.95 345.5C275.15 345.5 279.65 340.3 279.65 332.5C279.65 324.7 275.15 319.5 265.85 319.5H257.75V345.6L265.95 345.5ZM286.65 332.5C286.65 322.7 293.85 315.5 304.05 315.5C314.25 315.5 321.45 322.7 321.45 332.5C321.45 342.3 314.25 349.5 304.05 349.5C293.85 349.5 286.65 342.2 286.65 332.5ZM317.85 332.5C317.85 324.6 312.25 318.8 304.05 318.8C295.85 318.8 290.25 324.6 290.25 332.5C290.25 340.4 295.85 346.2 304.05 346.2C312.25 346.2 317.85 340.3 317.85 332.5ZM326.55 316.1H330.15V345.5H349.95V348.8H326.55V316.1ZM350.85 332.5C350.85 322.7 358.05 315.5 368.25 315.5C378.45 315.5 385.65 322.7 385.65 332.5C385.65 342.3 378.45 349.5 368.25 349.5C358.05 349.5 350.85 342.2 350.85 332.5ZM382.05 332.5C382.05 324.6 376.45 318.8 368.25 318.8C360.05 318.8 354.45 324.6 354.45 332.5C354.45 340.4 360.05 346.2 368.25 346.2C376.45 346.2 382.05 340.3 382.05 332.5ZM389.05 332.5C389.05 322.7 396.25 315.5 406.45 315.5C414.35 315.5 420.55 319.9 422.85 326.4H418.85C416.75 321.8 412.25 318.8 406.35 318.8C398.25 318.8 392.55 324.6 392.55 332.5C392.55 340.4 398.15 346.2 406.35 346.2C413.45 346.2 418.65 342.2 419.85 335.7H404.25V332.4H423.65V334C422.85 343 415.95 349.4 406.25 349.4C396.25 349.4 389.05 342.2 389.05 332.5ZM436.65 334.5L423.15 316.1H427.55L438.55 331.5L449.45 316.1H453.75L440.35 334.4V348.8H436.75L436.65 334.5Z" fill="url(#paint1_linear_8_6)"/>
<path d="M88 586.4C88 581.1 91.8 577.3 97.3 577.3C102.8 577.3 106.6 581.1 106.6 586.4C106.6 591.7 102.8 595.5 97.3 595.5C91.8 595.5 88 591.6 88 586.4ZM104.7 586.4C104.7 582.3 101.4 579 97.4 579C93.4 579 90 582.3 90 586.3C90 590.4 93.3 593.7 97.3 593.7C101.2 593.8 104.5 590.8 104.6 586.9C104.7 586.7 104.7 586.5 104.7 586.4ZM108.8 588.8V581.9H110.6V588.8C110.6 592 112.5 593.8 115.3 593.8C118.1 593.8 120 592 120 588.8V581.9H121.8V588.8C121.8 593.2 119.2 595.5 115.3 595.5C111.4 595.5 108.8 593.2 108.8 588.8ZM124.5 587.2C124.5 583.4 126.8 581.5 130.1 581.5C133.4 581.5 135.6 583.3 135.6 587.2V587.4H133.8V587.2C133.8 584.4 132.3 583.2 130 583.2C127.7 583.2 126.2 584.4 126.2 587.2V595.1H124.4L124.5 587.2ZM144.5 588.6C144.3 584.9 147.2 581.8 150.9 581.6C151.1 581.6 151.3 581.6 151.5 581.6C155.3 581.4 158.4 584.3 158.6 588C158.6 588.2 158.6 588.4 158.6 588.6C158.7 592.3 155.9 595.4 152.2 595.5C152.1 595.5 151.9 595.5 151.8 595.5C149.5 595.6 147.3 594.4 146.2 592.3V600.8H144.4V588.6H144.5ZM156.9 588.5C156.9 585.6 154.5 583.2 151.6 583.2C148.7 583.2 146.3 585.6 146.3 588.5C146.3 591.4 148.7 593.8 151.6 593.8C154.4 593.9 156.8 591.7 156.8 588.9C156.8 588.7 156.8 588.6 156.9 588.5ZM160.8 587.2C160.8 583.4 163.1 581.5 166.4 581.5C169.7 581.5 171.9 583.3 171.9 587.2V587.4H170.1V587.2C170.1 584.4 168.6 583.2 166.3 583.2C164 583.2 162.5 584.4 162.5 587.2V595.1H160.7L160.8 587.2ZM173.1 588.5C173 584.6 176.2 581.3 180.1 581.3C184 581.2 187.3 584.4 187.3 588.3C187.3 592.2 184.2 595.5 180.3 595.5H180.2C176.5 595.7 173.2 592.9 173 589.1C173 588.9 173 588.7 173.1 588.5ZM185.5 588.5C185.5 585.6 183.1 583.2 180.2 583.2C177.3 583.2 174.9 585.6 174.9 588.5C174.9 591.4 177.3 593.8 180.2 593.8C183 593.9 185.4 591.7 185.4 588.9C185.5 588.7 185.5 588.6 185.5 588.5ZM188.9 588.5C188.8 584.8 191.7 581.6 195.5 581.5C195.7 581.5 195.9 581.5 196.1 581.5C199.2 581.3 202.1 583.4 202.9 586.4H201C199.9 583.7 196.8 582.4 194.1 583.5C191.4 584.6 190.1 587.7 191.2 590.4C192.3 593.1 195.4 594.4 198.1 593.3C199.4 592.8 200.4 591.7 201 590.4H202.8C202 593.4 199.1 595.5 196 595.3C192.3 595.5 189.1 592.7 188.8 588.9C188.8 588.9 188.8 588.7 188.9 588.5ZM204.4 588.5C204.4 584.6 207.6 581.4 211.5 581.4C215.4 581.4 218.6 584.6 218.6 588.5V589.1H206.2C206.4 591.9 208.7 594 211.5 593.8C213.3 593.9 215.1 593 216 591.4H218C216.3 595 212 596.5 208.4 594.7C206 593.6 204.5 591.2 204.4 588.5ZM216.7 587.5C216.1 584.6 213.4 582.7 210.5 583.3C208.4 583.7 206.7 585.4 206.3 587.5H216.7ZM220.2 591.4H222C222.1 592.8 223.4 593.8 225.6 593.8C227.8 593.8 229.2 592.7 229.2 591.3C229.2 589.7 227.5 589.5 225.6 589.3C223.2 589 220.5 588.6 220.5 585.7C220.5 583.2 222.4 581.5 225.6 581.5C228.8 581.5 230.6 583.2 230.7 585.5H228.9C228.8 584.2 227.6 583.2 225.6 583.2C223.6 583.2 222.4 584.2 222.4 585.6C222.4 587.2 224.1 587.4 226 587.7C228.1 588 231.1 588.3 231.1 591.3C231.1 593.8 229 595.6 225.7 595.6C222.4 595.6 220.2 593.7 220.2 591.4ZM232.7 591.4H234.5C234.6 592.8 235.9 593.8 238.1 593.8C240.3 593.8 241.7 592.7 241.7 591.3C241.7 589.7 240 589.5 238.1 589.3C235.7 589 233 588.6 233 585.7C233 583.2 235 581.5 238.1 581.5C241.2 581.5 243.1 583.2 243.2 585.5H241.4C241.3 584.2 240.1 583.2 238.1 583.2C236.1 583.2 234.9 584.2 234.9 585.6C234.9 587.2 236.6 587.4 238.5 587.7C240.6 588 243.6 588.3 243.6 591.3C243.6 593.8 241.5 595.6 238.2 595.6C234.9 595.6 232.7 593.7 232.7 591.4ZM252.8 578C252.8 577.2 253.4 576.6 254.2 576.6C255 576.6 255.6 577.2 255.6 578C255.6 578.8 255 579.4 254.2 579.4C253.4 579.4 252.8 578.8 252.8 578ZM253.3 581.9H255.1V595.1H253.3V581.9ZM258.1 588.2C258.1 583.8 260.7 581.5 264.6 581.5C268.5 581.5 271.1 583.8 271.1 588.2V595.1H269.3V588.2C269.3 584.9 267.4 583.2 264.6 583.2C261.8 583.2 259.9 584.9 259.9 588.2V595.1H258.1V588.2ZM280.4 588.6C280.4 584.7 283.6 581.5 287.5 581.5C291.4 581.5 294.6 584.7 294.6 588.6V595.1H292.9V591.8C292 594.1 289.7 595.5 287.2 595.4C283.5 595.5 280.5 592.6 280.4 589C280.4 588.9 280.4 588.7 280.4 588.6ZM292.8 588.5C292.8 585.6 290.4 583.2 287.5 583.2C284.6 583.2 282.2 585.6 282.2 588.5C282.2 591.4 284.6 593.8 287.5 593.8C290.3 593.9 292.7 591.7 292.8 588.9C292.8 588.8 292.8 588.7 292.8 588.5ZM304.3 588.2C304.3 583.8 306.9 581.5 310.8 581.5C314.7 581.5 317.3 583.8 317.3 588.2V595.1H315.5V588.2C315.5 584.9 313.6 583.2 310.8 583.2C308 583.2 306.1 584.9 306.1 588.2V595.1H304.3V588.2ZM320 588.8V581.9H321.8V588.8C321.8 592 323.7 593.8 326.5 593.8C329.3 593.8 331.2 592 331.2 588.8V581.9H333V588.8C333 593.2 330.4 595.5 326.5 595.5C322.6 595.5 320 593.2 320 588.8ZM335.7 590.3V577.3H337.5V582H345.3V583.6H337.5V590.3C337.5 592.7 338.8 593.8 340.9 593.8C343 593.8 344.3 592.7 344.3 590.3V590H346V590.3C346 593.8 343.9 595.5 340.9 595.5C337.9 595.5 335.7 593.7 335.7 590.3ZM347.8 591.4H349.6C349.7 592.8 351 593.8 353.2 593.8C355.4 593.8 356.8 592.7 356.8 591.3C356.8 589.7 355.1 589.5 353.2 589.3C350.8 589 348.1 588.6 348.1 585.7C348.1 583.2 350.1 581.5 353.1 581.5C356.1 581.5 358.1 583.2 358.2 585.5H356.4C356.3 584.2 355.1 583.2 353.1 583.2C351.1 583.2 349.9 584.2 349.9 585.6C349.9 587.2 351.6 587.4 353.5 587.7C355.6 588 358.6 588.3 358.6 591.3C358.6 593.8 356.5 595.6 353.2 595.6C349.9 595.6 347.9 593.7 347.8 591.4ZM361.2 576.2H363V584.5C363.9 582.6 365.9 581.5 368 581.6C371.5 581.6 374.3 583.7 374.3 588.3V595.2H372.5V588.3C372.5 585 370.6 583.3 367.8 583.3C365 583.3 363.1 585.1 363.1 588.3V595.2H361.3L361.2 576.2ZM376.3 588.5C376.3 584.6 379.5 581.4 383.4 581.4C387.3 581.4 390.5 584.6 390.5 588.5V589.1H378.2C378.4 591.9 380.7 594 383.5 593.8C385.3 593.9 387.1 593 388 591.4H390C388.3 595 384 596.5 380.4 594.7C378 593.6 376.4 591.2 376.3 588.5ZM388.6 587.5C388 584.6 385.3 582.7 382.4 583.3C380.3 583.7 378.6 585.4 378.2 587.5H388.6ZM393.1 576.2H394.9V595.2H393.1V576.2ZM398.5 576.2H400.3V595.2H398.5V576.2ZM404 584.3C404 583.6 404.6 582.9 405.3 582.9C405.3 582.9 405.3 582.9 405.4 582.9C406.2 582.9 406.8 583.5 406.8 584.3C406.8 585.1 406.2 585.7 405.4 585.7C404.6 585.7 404 585 404 584.3ZM404 594.2C404 593.5 404.6 592.8 405.3 592.8C405.3 592.8 405.3 592.8 405.4 592.8C406.2 592.8 406.8 593.4 406.8 594.2C406.8 595 406.2 595.6 405.4 595.6C404.6 595.5 404 594.9 404 594.2Z" fill="url(#paint2_linear_8_6)"/>
<path d="M439.1 617C437.1 617 435.5 615.4 435.5 613.4C435.5 611.4 437.1 609.8 439.1 609.8C441.1 609.8 442.7 611.4 442.7 613.4C442.8 615.4 441.1 617 439.1 617ZM426.4 613.4C426.4 611.4 424.8 609.8 422.8 609.8C420.8 609.8 419.2 611.4 419.2 613.4C419.2 615.4 420.8 617 422.8 617C424.8 617 426.4 615.4 426.4 613.4ZM415.1 613.4C415.1 611.4 413.5 609.8 411.5 609.8C409.5 609.8 407.9 611.4 407.9 613.4C407.9 615.4 409.5 617 411.5 617C413.5 617 415.2 615.4 415.1 613.4C415.2 613.4 415.2 613.4 415.1 613.4ZM403.9 613.4C403.9 611.4 402.3 609.8 400.3 609.8C398.3 609.8 396.7 611.4 396.7 613.4C396.7 615.4 398.3 617 400.3 617C402.3 617 403.9 615.4 403.9 613.4ZM392.6 613.4C392.6 611.4 391 609.8 389 609.8C387 609.8 385.4 611.4 385.4 613.4C385.4 615.4 387 617 389 617C391 617 392.6 615.4 392.6 613.4ZM381.3 613.4C381.3 611.4 379.7 609.8 377.7 609.8C375.7 609.8 374.1 611.4 374.1 613.4C374.1 615.4 375.7 617 377.7 617C379.7 617 381.3 615.4 381.3 613.4ZM370.1 613.4C370.1 611.4 368.5 609.8 366.5 609.8C364.5 609.8 362.9 611.4 362.9 613.4C362.9 615.4 364.5 617 366.5 617C368.4 617 370.1 615.4 370.1 613.4ZM435.6 620.6C435.6 618.6 434 617 432 617C430 617 428.4 618.6 428.4 620.6C428.4 622.6 430 624.2 432 624.2C433.9 624.2 435.6 622.6 435.6 620.6ZM428.4 627.8C428.4 625.8 426.8 624.2 424.8 624.2C422.8 624.2 421.2 625.8 421.2 627.8C421.2 629.8 422.8 631.4 424.8 631.4C426.7 631.4 428.4 629.8 428.4 627.8ZM432 602.6C430 602.6 428.4 604.2 428.4 606.2C428.4 608.2 430 609.8 432 609.8C434 609.8 435.6 608.2 435.6 606.2C435.6 604.2 434 602.6 432 602.6ZM424.8 595.4C422.8 595.4 421.2 597 421.2 599C421.2 601 422.8 602.6 424.8 602.6C426.8 602.6 428.4 601 428.4 599C428.4 597 426.8 595.4 424.8 595.4Z" fill="url(#paint3_linear_8_6)"/>
<path d="M324.433 251.147C319.773 251.014 313.909 250.68 311.402 250.405L306.843 249.906L305.547 248.517C303.227 246.03 303.952 244.348 309.783 238.684C314.492 234.109 316.516 232.645 320.959 230.603C323.394 229.484 324.717 229.121 327.921 228.693C332.849 228.034 332.782 228.034 335.48 228.733C338.541 229.529 340.982 230.978 344.312 233.974C347.791 237.104 348.232 238.147 347.314 241.065C346.328 244.201 344.449 246.754 341.952 248.35C337.531 251.176 335.709 251.467 324.433 251.144V251.147Z" fill="url(#paint4_linear_8_6)"/>
<path d="M349.509 208.592C345.239 204.275 339.222 202.907 341.471 201.91C344.046 200.75 356.193 198.039 357.099 197.599C358.005 197.158 358.915 196.839 359.122 196.888C359.327 196.937 360.122 197.494 360.888 198.122C362.85 199.734 365.338 200.139 369.227 199.481C370.874 199.203 372.412 198.843 372.645 198.681C372.892 198.508 371.28 198.302 368.771 198.183C363.508 197.934 363.498 197.931 361.64 196.345C359.95 194.902 359.261 193.326 358.118 188.291C356.884 182.856 357.466 180.943 360.929 179.051C363.928 177.412 367.652 176.885 372.15 177.463C374.202 177.726 376.25 178.153 376.702 178.41C378.275 179.304 379.907 182.981 381.034 188.17C382.627 195.504 382.647 196.118 381.365 198.593C379.724 201.761 375.317 206.213 367.812 212.286C364.48 214.983 355.646 218.937 354.845 218.85C353.433 214.761 352.716 212.386 349.509 208.592Z" fill="url(#paint5_linear_8_6)" fill-opacity="0.992157"/>
<path fill-rule="evenodd" clip-rule="evenodd" d="M178.568 88.9879C163.295 89.0806 150.818 95.6301 143.01 109.164C140.249 113.623 140.584 116.554 145.885 119.311C150.893 121.974 151.236 116.912 153.78 113.117C159.707 104.873 168.669 98.9112 178.85 99.7563C184.457 99.4454 192.751 102.791 196.838 107.134C200.296 110.001 201.04 118.117 199.092 122.308C195.878 131.811 187.393 137.878 180.99 145.161C168.856 158.082 155.257 169.931 145.498 184.866C140.579 192.512 136.945 201.524 138.215 210.776C138.814 220.693 148.331 231.439 160.962 238.393C172.764 243.767 185.787 249.706 214.845 249.465C225.665 249.505 246.139 244.784 241.723 238.361C245.058 234.59 237.16 228.451 230.345 230.161C220.797 237.088 186.104 234.486 169.343 227.382C165.06 225.291 156.931 219.926 154.25 213.905C151.582 206.123 151.824 198.988 158.264 190.637C163.111 184.352 164.409 181.482 167.962 177.491C180.53 163.622 193.864 151.09 205.72 136.581C214.387 125.725 217.461 111.388 207.949 100.615C200.308 92.0581 189.534 89.0069 178.568 88.9879Z" fill="url(#paint6_linear_8_6)"/>
<path d="M236.244 246.354C224.836 236.705 225.01 232.452 222.862 215.708C222.479 212.724 222.475 200.93 222.856 197.008C223.925 185.992 226.077 176.698 229.369 168.874C229.965 167.459 230.706 165.683 231.016 164.929C232.269 161.874 236.65 153.381 238.765 149.906C246.408 136.555 257.277 125.659 270.141 119.549C278.362 114.564 290.473 111.423 300.913 109.171C301.872 108.833 303.862 108.001 305.336 107.322C322.647 132.569 310.325 129.601 316.26 137.145C318.335 141.914 321.269 145.538 323.41 149.152C324.459 153.212 326.559 154.692 329.941 173.245C330.595 176.831 332.145 182.565 332.752 184.403C333.519 186.652 334.224 188.921 334.933 191.189C338.526 197.789 344.2 216.381 344.2 216.381C341.861 215.194 326.662 205.102 323.382 204.392C322.06 204.107 321.896 202.818 320.103 202.425C318.31 202.032 312.454 206.954 311.078 206.749C311.078 206.749 302.501 188.862 299.899 183.613C293.298 171.299 296.613 170.106 296.4 175.78C295.974 177.2 287.51 191.271 292.298 196.353C293.707 198.296 296.405 198.22 299.485 197.85C301.609 197.737 303.545 197.582 303.789 197.506C304.516 197.281 318.912 197.996 321.878 198.406C326.023 198.978 329.916 200.474 336.203 203.008C339.31 204.261 344.467 206.764 347.207 208.811C349.975 210.878 350.048 210.971 351.996 214.935C354.469 219.968 354.718 221.634 353.646 225.986C352.872 229.13 351.665 231.9 350.733 232.674C350.272 233.056 349.982 232.932 348.762 231.831C347.039 230.274 341.773 227.752 338.598 226.962C337.045 226.576 334.833 226.387 331.83 226.384C327.834 226.379 327.082 226.477 324.623 227.329C321.505 228.41 315.928 231.399 313.127 233.493C312.088 234.268 309.231 236.838 306.778 239.204C304.324 241.57 301.235 244.189 299.914 245.024C292.52 249.777 289.092 252.681 280.503 254.774C256.027 258.911 249.118 254.569 236.244 246.354Z" fill="url(#paint7_linear_8_6)"/>
<path fill-rule="evenodd" clip-rule="evenodd" d="M350.188 84.782C345.585 84.7864 341.006 86.3542 337.027 88.5683C335.596 89.7647 338.255 90.9102 338.936 91.7024C342.842 95.1028 345.616 100.275 345.554 105.484C344.005 104.412 343.562 101.896 342.315 100.369C339.199 95.8223 335.128 90.3189 329.029 90.3232C322.162 90.1767 316.384 96.4005 316.235 103.12C315.059 110.385 319.88 117.248 325.715 121.089C320.107 121.056 315.656 116.561 314.189 111.399C313.256 109.771 313.841 106.161 311.254 106.174C308.876 106.562 306.343 106.992 304.153 107.902C304.789 113.152 305.527 118.467 306.975 123.56C309.634 128.438 314.392 131.763 317.608 136.262C323.319 144.302 329.6 152.224 333.041 161.569C334.494 165.686 334.621 171.375 339.373 173.203C343.867 175.41 348.275 178.091 352.988 179.683C358.831 177.615 364.506 174.606 370.866 174.536C374.751 173.952 378.969 174.818 382.637 173.278C386.425 170.436 388.234 165.678 389.638 161.312C390.041 156.294 390.384 150.93 387.91 146.333C387.415 144.129 384.731 142.113 386.327 139.879C390.288 130.251 393.66 119.087 389.605 108.919C383.469 93.5313 366.274 84.4601 350.188 84.782Z" fill="url(#paint8_linear_8_6)"/>
<path d="M350.266 119.288L368.157 118.603C368.454 120.46 369.349 122.235 370.835 123.612C374.365 126.881 379.875 126.671 383.145 123.141C386.415 119.612 386.204 114.101 382.674 110.831C379.145 107.562 373.634 107.772 370.365 111.302C368.988 112.788 368.231 114.626 368.077 116.5L350.186 117.185C349.888 115.328 348.994 113.553 347.506 112.175C343.976 108.905 338.466 109.116 335.196 112.646C331.926 116.175 332.137 121.686 335.666 124.955C337.153 126.332 338.99 127.089 340.865 127.243L341.534 144.746C339.677 145.043 337.902 145.938 336.525 147.424C333.256 150.953 333.466 156.464 336.996 159.734C340.525 163.003 346.036 162.793 349.306 159.263C352.575 155.734 352.365 150.223 348.835 146.953C347.349 145.577 345.511 144.82 343.637 144.666L342.968 127.163C344.497 126.918 345.97 126.266 347.212 125.213L355.079 132.5C353.674 134.743 354.012 137.735 356.024 139.599C358.3 141.708 361.854 141.571 363.961 139.296C366.068 137.021 365.933 133.466 363.659 131.359C361.646 129.495 358.636 129.385 356.508 130.958L348.641 123.67C349.6 122.351 350.137 120.833 350.266 119.288Z" fill="url(#paint9_linear_8_6)"/>
<path d="M103.017 411.408C100.351 411.408 98.2815 409.744 98.2815 406.352V397.179H100.159V406.352C100.159 408.592 101.439 409.68 103.145 409.68C104.873 409.68 106.153 408.55 106.153 406.352V397.179H108.031V406.352C108.031 408.55 109.289 409.68 111.017 409.68C112.724 409.68 114.004 408.592 114.004 406.352V397.179H115.881V406.352C115.881 409.744 113.812 411.408 111.145 411.408C109.289 411.408 107.817 410.555 107.092 408.955C106.345 410.555 104.895 411.408 103.017 411.408ZM123.278 411.408C119.95 411.408 117.603 409.062 117.603 405.862C117.603 402.662 119.95 400.315 123.278 400.315C126.606 400.315 128.91 402.662 128.91 405.862V406.48H119.438C119.673 408.507 121.187 409.787 123.278 409.787C124.793 409.787 125.881 409.232 126.542 408.187H128.462C127.651 410.15 125.731 411.408 123.278 411.408ZM119.481 404.923H127.075C126.691 403.024 125.177 401.936 123.278 401.936C121.315 401.936 119.843 403.067 119.481 404.923ZM141.444 411.408C138.329 411.408 136.238 409.616 136.238 406.096V400.592H137.988V406.096C137.988 408.507 139.353 409.787 141.444 409.787C143.534 409.787 144.9 408.507 144.9 406.096V400.592H146.649V406.096C146.649 409.595 144.558 411.408 141.444 411.408ZM148.738 411.131V405.648C148.738 402.128 150.829 400.315 153.944 400.315C157.058 400.315 159.149 402.107 159.149 405.648V411.131H157.4V405.648C157.4 403.216 156.034 401.936 153.944 401.936C151.853 401.936 150.488 403.216 150.488 405.648V411.131H148.738ZM166.508 411.408C163.158 411.408 160.812 409.083 160.812 405.798C160.812 402.427 163.308 400.315 166.209 400.315C168.065 400.315 169.601 401.168 170.369 402.64V395.984H172.118V405.776C172.118 409.211 169.772 411.408 166.508 411.408ZM166.486 409.787C168.812 409.787 170.369 408.123 170.369 405.862C170.369 403.579 168.812 401.936 166.486 401.936C164.161 401.936 162.582 403.579 162.582 405.862C162.582 408.123 164.161 409.787 166.486 409.787ZM179.465 411.408C176.137 411.408 173.791 409.062 173.791 405.862C173.791 402.662 176.137 400.315 179.465 400.315C182.793 400.315 185.097 402.662 185.097 405.862V406.48H175.625C175.86 408.507 177.375 409.787 179.465 409.787C180.98 409.787 182.068 409.232 182.729 408.187H184.649C183.839 410.15 181.919 411.408 179.465 411.408ZM175.668 404.923H183.263C182.879 403.024 181.364 401.936 179.465 401.936C177.503 401.936 176.031 403.067 175.668 404.923ZM186.759 411.131V404.88C186.759 401.808 188.594 400.315 191.26 400.315C193.906 400.315 195.719 401.808 195.719 404.902V405.008H193.991V404.88C193.991 402.811 192.882 401.936 191.26 401.936C189.596 401.936 188.508 402.811 188.508 404.88V411.131H186.759ZM201.019 411.408C198.395 411.408 196.731 410 196.667 408.123H198.437C198.501 409.104 199.419 409.83 201.019 409.83C202.704 409.83 203.6 409.062 203.6 408.102C203.6 406.971 202.384 406.822 200.955 406.651C199.099 406.416 196.901 406.096 196.901 403.728C196.901 401.702 198.501 400.315 200.997 400.315C203.493 400.315 205.029 401.723 205.072 403.515H203.344C203.28 402.598 202.448 401.894 200.997 401.894C199.525 401.894 198.672 402.619 198.672 403.579C198.672 404.71 199.909 404.838 201.296 405.03C203.045 405.243 205.371 405.542 205.371 407.952C205.371 410.022 203.664 411.408 201.019 411.408ZM211.253 411.408C208.778 411.408 207.071 410 207.071 407.184V396.859H208.821V400.592H214.815V402.192H208.821V407.184C208.821 408.976 209.781 409.787 211.253 409.787C212.725 409.787 213.706 408.998 213.706 407.184V406.95H215.413V407.184C215.413 410 213.727 411.408 211.253 411.408ZM222.125 411.408C219.288 411.408 216.728 409.36 216.728 405.947C216.728 402.64 219.075 400.315 222.424 400.315C225.731 400.315 228.035 402.576 228.035 405.947V411.131H226.435V408.678C225.709 410.47 224.067 411.408 222.125 411.408ZM222.403 409.787C224.728 409.787 226.307 408.123 226.307 405.862C226.307 403.579 224.728 401.936 222.403 401.936C220.077 401.936 218.499 403.579 218.499 405.862C218.499 408.123 220.077 409.787 222.403 409.787ZM230.134 411.131V405.648C230.134 402.128 232.225 400.315 235.339 400.315C238.454 400.315 240.545 402.107 240.545 405.648V411.131H238.795V405.648C238.795 403.216 237.43 401.936 235.339 401.936C233.249 401.936 231.883 403.216 231.883 405.648V411.131H230.134ZM247.903 411.408C244.554 411.408 242.207 409.083 242.207 405.798C242.207 402.427 244.703 400.315 247.605 400.315C249.461 400.315 250.997 401.168 251.765 402.64V395.984H253.514V405.776C253.514 409.211 251.167 411.408 247.903 411.408ZM247.882 409.787C250.207 409.787 251.765 408.123 251.765 405.862C251.765 403.579 250.207 401.936 247.882 401.936C245.557 401.936 243.978 403.579 243.978 405.862C243.978 408.123 245.557 409.787 247.882 409.787ZM266.528 411.408C263.2 411.408 260.853 409.062 260.853 405.862C260.853 402.662 263.2 400.315 266.528 400.315C269.856 400.315 272.16 402.662 272.16 405.862V406.48H262.688C262.922 408.507 264.437 409.787 266.528 409.787C268.042 409.787 269.13 409.232 269.792 408.187H271.712C270.901 410.15 268.981 411.408 266.528 411.408ZM262.73 404.923H270.325C269.941 403.024 268.426 401.936 266.528 401.936C264.565 401.936 263.093 403.067 262.73 404.923ZM278.792 411.408C275.955 411.408 273.395 409.36 273.395 405.947C273.395 402.64 275.741 400.315 279.091 400.315C282.397 400.315 284.701 402.576 284.701 405.947V411.131H283.101V408.678C282.376 410.47 280.733 411.408 278.792 411.408ZM279.069 409.787C281.395 409.787 282.973 408.123 282.973 405.862C282.973 403.579 281.395 401.936 279.069 401.936C276.744 401.936 275.165 403.579 275.165 405.862C275.165 408.123 276.744 409.787 279.069 409.787ZM292.048 411.408C288.721 411.408 286.374 409.062 286.374 405.862C286.374 402.662 288.721 400.315 292.048 400.315C294.822 400.315 296.891 401.936 297.488 404.326H295.718C295.163 402.875 293.819 401.936 292.048 401.936C289.723 401.936 288.145 403.579 288.145 405.862C288.145 408.123 289.723 409.787 292.048 409.787C293.819 409.787 295.163 408.848 295.718 407.398H297.488C296.891 409.787 294.822 411.408 292.048 411.408ZM299.517 411.131V395.984H301.266V402.47C301.991 401.062 303.314 400.315 304.999 400.315C307.709 400.315 309.927 401.979 309.927 405.648V411.131H308.178V405.648C308.178 403.216 306.813 401.936 304.722 401.936C302.674 401.936 301.266 403.238 301.266 405.648V411.131H299.517ZM322.923 411.408C319.595 411.408 317.249 409.062 317.249 405.862C317.249 402.662 319.595 400.315 322.923 400.315C325.697 400.315 327.766 401.936 328.363 404.326H326.593C326.038 402.875 324.694 401.936 322.923 401.936C320.598 401.936 319.019 403.579 319.019 405.862C319.019 408.123 320.598 409.787 322.923 409.787C324.694 409.787 326.038 408.848 326.593 407.398H328.363C327.766 409.787 325.697 411.408 322.923 411.408ZM335.256 411.408C332.141 411.408 330.05 409.616 330.05 406.096V400.592H331.8V406.096C331.8 408.507 333.165 409.787 335.256 409.787C337.346 409.787 338.712 408.507 338.712 406.096V400.592H340.461V406.096C340.461 409.595 338.37 411.408 335.256 411.408ZM346.518 411.408C343.894 411.408 342.23 410 342.166 408.123H343.937C344.001 409.104 344.918 409.83 346.518 409.83C348.204 409.83 349.1 409.062 349.1 408.102C349.1 406.971 347.884 406.822 346.454 406.651C344.598 406.416 342.401 406.096 342.401 403.728C342.401 401.702 344.001 400.315 346.497 400.315C348.993 400.315 350.529 401.723 350.572 403.515H348.844C348.78 402.598 347.948 401.894 346.497 401.894C345.025 401.894 344.172 402.619 344.172 403.579C344.172 404.71 345.409 404.838 346.796 405.03C348.545 405.243 350.87 405.542 350.87 407.952C350.87 410.022 349.164 411.408 346.518 411.408ZM356.753 411.408C354.278 411.408 352.571 410 352.571 407.184V396.859H354.321V400.592H360.315V402.192H354.321V407.184C354.321 408.976 355.281 409.787 356.753 409.787C358.225 409.787 359.206 408.998 359.206 407.184V406.95H360.913V407.184C360.913 410 359.227 411.408 356.753 411.408ZM367.903 411.408C364.575 411.408 362.228 409.062 362.228 405.862C362.228 402.662 364.575 400.315 367.903 400.315C371.231 400.315 373.577 402.662 373.577 405.862C373.577 409.062 371.231 411.408 367.903 411.408ZM367.903 409.787C370.228 409.787 371.807 408.123 371.807 405.862C371.807 403.579 370.228 401.936 367.903 401.936C365.577 401.936 363.999 403.579 363.999 405.862C363.999 408.123 365.577 409.787 367.903 409.787ZM375.238 411.131V405.008C375.238 401.808 377.094 400.315 379.547 400.315C381.211 400.315 382.598 401.083 383.302 402.534C384.006 401.083 385.371 400.315 387.056 400.315C389.51 400.315 391.366 401.808 391.366 405.008V411.131H389.616V405.008C389.616 402.918 388.486 401.936 386.907 401.936C385.35 401.936 384.198 402.96 384.198 405.008V411.131H382.448V405.008C382.448 402.96 381.254 401.936 379.696 401.936C378.118 401.936 376.987 402.918 376.987 405.008V411.131H375.238ZM398.694 411.408C395.366 411.408 393.019 409.062 393.019 405.862C393.019 402.662 395.366 400.315 398.694 400.315C402.022 400.315 404.326 402.662 404.326 405.862V406.48H394.854C395.089 408.507 396.603 409.787 398.694 409.787C400.209 409.787 401.297 409.232 401.958 408.187H403.878C403.067 410.15 401.147 411.408 398.694 411.408ZM394.897 404.923H402.491C402.107 403.024 400.593 401.936 398.694 401.936C396.731 401.936 395.259 403.067 394.897 404.923ZM405.988 411.131V404.88C405.988 401.808 407.823 400.315 410.489 400.315C413.134 400.315 414.948 401.808 414.948 404.902V405.008H413.22V404.88C413.22 402.811 412.11 401.936 410.489 401.936C408.825 401.936 407.737 402.811 407.737 404.88V411.131H405.988ZM423.288 398.758C422.563 398.758 422.029 398.203 422.029 397.478C422.029 396.752 422.563 396.219 423.288 396.219C424.013 396.219 424.547 396.752 424.547 397.478C424.547 398.203 424.013 398.758 423.288 398.758ZM422.413 411.131V400.592H424.163V411.131H422.413ZM430.602 411.408C427.978 411.408 426.314 410 426.25 408.123H428.02C428.084 409.104 429.002 409.83 430.602 409.83C432.287 409.83 433.183 409.062 433.183 408.102C433.183 406.971 431.967 406.822 430.538 406.651C428.682 406.416 426.484 406.096 426.484 403.728C426.484 401.702 428.084 400.315 430.58 400.315C433.076 400.315 434.612 401.723 434.655 403.515H432.927C432.863 402.598 432.031 401.894 430.58 401.894C429.108 401.894 428.255 402.619 428.255 403.579C428.255 404.71 429.492 404.838 430.879 405.03C432.628 405.243 434.954 405.542 434.954 407.952C434.954 410.022 433.247 411.408 430.602 411.408Z" fill="#F9F9F9"/>
<path d="M102.517 438.075C99.4019 438.075 97.3112 436.283 97.3112 432.763V427.259H99.0606V432.763C99.0606 435.174 100.426 436.454 102.517 436.454C104.607 436.454 105.973 435.174 105.973 432.763V427.259H107.722V432.763C107.722 436.262 105.631 438.075 102.517 438.075ZM109.811 437.798V432.315C109.811 428.795 111.902 426.982 115.017 426.982C118.131 426.982 120.222 428.774 120.222 432.315V437.798H118.473V432.315C118.473 429.883 117.107 428.603 115.017 428.603C112.926 428.603 111.561 429.883 111.561 432.315V437.798H109.811ZM123.57 425.424C122.845 425.424 122.311 424.87 122.311 424.144C122.311 423.419 122.845 422.886 123.57 422.886C124.295 422.886 124.829 423.419 124.829 424.144C124.829 424.87 124.295 425.424 123.57 425.424ZM122.695 437.798V427.259H124.445V437.798H122.695ZM137.795 442.299H136.046V435.75C135.278 437.222 133.742 438.075 131.886 438.075C128.985 438.075 126.489 435.963 126.489 432.592C126.489 429.307 128.835 426.982 132.185 426.982C135.449 426.982 137.795 429.179 137.795 432.614V442.299ZM132.163 436.454C134.489 436.454 136.046 434.79 136.046 432.528C136.046 430.246 134.489 428.603 132.163 428.603C129.838 428.603 128.259 430.246 128.259 432.528C128.259 434.79 129.838 436.454 132.163 436.454ZM145.1 438.075C141.985 438.075 139.894 436.283 139.894 432.763V427.259H141.644V432.763C141.644 435.174 143.009 436.454 145.1 436.454C147.19 436.454 148.556 435.174 148.556 432.763V427.259H150.305V432.763C150.305 436.262 148.214 438.075 145.1 438.075ZM157.642 438.075C154.314 438.075 151.968 435.728 151.968 432.528C151.968 429.328 154.314 426.982 157.642 426.982C160.97 426.982 163.274 429.328 163.274 432.528V433.147H153.802C154.037 435.174 155.552 436.454 157.642 436.454C159.157 436.454 160.245 435.899 160.906 434.854H162.826C162.016 436.816 160.096 438.075 157.642 438.075ZM153.845 431.59H161.44C161.056 429.691 159.541 428.603 157.642 428.603C155.68 428.603 154.208 429.734 153.845 431.59ZM164.862 440.528L165.608 437.99C165.118 437.84 164.776 437.371 164.776 436.816C164.776 436.091 165.31 435.558 166.035 435.558C166.76 435.558 167.294 436.091 167.294 436.816C167.294 437.03 167.23 437.307 167.144 437.499L165.886 440.528H164.862ZM180.323 438.075C177.486 438.075 174.926 436.027 174.926 432.614C174.926 429.307 177.273 426.982 180.622 426.982C183.929 426.982 186.233 429.243 186.233 432.614V437.798H184.633V435.344C183.907 437.136 182.265 438.075 180.323 438.075ZM180.601 436.454C182.926 436.454 184.505 434.79 184.505 432.528C184.505 430.246 182.926 428.603 180.601 428.603C178.275 428.603 176.697 430.246 176.697 432.528C176.697 434.79 178.275 436.454 180.601 436.454ZM188.332 437.798V432.315C188.332 428.795 190.423 426.982 193.537 426.982C196.652 426.982 198.743 428.774 198.743 432.315V437.798H196.993V432.315C196.993 429.883 195.628 428.603 193.537 428.603C191.447 428.603 190.081 429.883 190.081 432.315V437.798H188.332ZM206.101 438.075C202.752 438.075 200.405 435.75 200.405 432.464C200.405 429.094 202.901 426.982 205.803 426.982C207.659 426.982 209.195 427.835 209.963 429.307V422.651H211.712V432.443C211.712 435.878 209.365 438.075 206.101 438.075ZM206.08 436.454C208.405 436.454 209.963 434.79 209.963 432.528C209.963 430.246 208.405 428.603 206.08 428.603C203.755 428.603 202.176 430.246 202.176 432.528C202.176 434.79 203.755 436.454 206.08 436.454ZM224.448 438.075C221.611 438.075 219.051 436.027 219.051 432.614C219.051 429.307 221.398 426.982 224.747 426.982C228.054 426.982 230.358 429.243 230.358 432.614V437.798H228.758V435.344C228.032 437.136 226.39 438.075 224.448 438.075ZM224.726 436.454C227.051 436.454 228.63 434.79 228.63 432.528C228.63 430.246 227.051 428.603 224.726 428.603C222.4 428.603 220.822 430.246 220.822 432.528C220.822 434.79 222.4 436.454 224.726 436.454ZM237.726 438.075C234.377 438.075 232.03 435.75 232.03 432.464C232.03 429.094 234.526 426.982 237.428 426.982C239.284 426.982 240.819 427.835 241.587 429.307V422.651H243.337V432.443C243.337 435.878 240.99 438.075 237.726 438.075ZM237.705 436.454C240.03 436.454 241.587 434.79 241.587 432.528C241.587 430.246 240.03 428.603 237.705 428.603C235.38 428.603 233.801 430.246 233.801 432.528C233.801 434.79 235.38 436.454 237.705 436.454ZM250.407 438.075C247.569 438.075 245.009 436.027 245.009 432.614C245.009 429.307 247.356 426.982 250.705 426.982C254.012 426.982 256.316 429.243 256.316 432.614V437.798H254.716V435.344C253.991 437.136 252.348 438.075 250.407 438.075ZM250.684 436.454C253.009 436.454 254.588 434.79 254.588 432.528C254.588 430.246 253.009 428.603 250.684 428.603C248.359 428.603 246.78 430.246 246.78 432.528C246.78 434.79 248.359 436.454 250.684 436.454ZM258.415 442.299V432.614C258.415 429.179 260.762 426.982 264.026 426.982C267.375 426.982 269.722 429.307 269.722 432.592C269.722 435.963 267.247 438.075 264.324 438.075C262.49 438.075 260.932 437.222 260.164 435.75V442.299H258.415ZM264.047 436.454C266.394 436.454 267.951 434.79 267.951 432.528C267.951 430.246 266.394 428.603 264.047 428.603C261.722 428.603 260.164 430.246 260.164 432.528C260.164 434.79 261.722 436.454 264.047 436.454ZM275.576 438.075C273.101 438.075 271.394 436.667 271.394 433.851V423.526H273.144V427.259H279.138V428.859H273.144V433.851C273.144 435.643 274.104 436.454 275.576 436.454C277.048 436.454 278.029 435.664 278.029 433.851V433.616H279.736V433.851C279.736 436.667 278.05 438.075 275.576 438.075ZM292.392 438.075C289.064 438.075 286.718 435.728 286.718 432.528C286.718 429.328 289.064 426.982 292.392 426.982C295.72 426.982 298.067 429.328 298.067 432.528C298.067 435.728 295.72 438.075 292.392 438.075ZM292.392 436.454C294.718 436.454 296.296 434.79 296.296 432.528C296.296 430.246 294.718 428.603 292.392 428.603C290.067 428.603 288.488 430.246 288.488 432.528C288.488 434.79 290.067 436.454 292.392 436.454ZM304.933 438.075C301.818 438.075 299.728 436.283 299.728 432.763V427.259H301.477V432.763C301.477 435.174 302.842 436.454 304.933 436.454C307.024 436.454 308.389 435.174 308.389 432.763V427.259H310.138V432.763C310.138 436.262 308.048 438.075 304.933 438.075ZM312.228 437.798V431.547C312.228 428.475 314.062 426.982 316.729 426.982C319.374 426.982 321.188 428.475 321.188 431.568V431.675H319.46V431.547C319.46 429.478 318.35 428.603 316.729 428.603C315.065 428.603 313.977 429.478 313.977 431.547V437.798H312.228ZM333.24 438.075C330.403 438.075 327.843 436.027 327.843 432.614C327.843 429.307 330.189 426.982 333.539 426.982C336.845 426.982 339.149 429.243 339.149 432.614V437.798H337.549V435.344C336.824 437.136 335.181 438.075 333.24 438.075ZM333.517 436.454C335.843 436.454 337.421 434.79 337.421 432.528C337.421 430.246 335.843 428.603 333.517 428.603C331.192 428.603 329.613 430.246 329.613 432.528C329.613 434.79 331.192 436.454 333.517 436.454ZM341.632 437.798V422.651H343.382V437.798H341.632ZM351.164 442.576C348.604 442.576 346.577 441.51 345.852 439.12H347.644C348.177 440.464 349.521 441.04 351.164 441.04C353.468 441.04 355.025 439.931 355.025 437.008V435.643C354.257 437.136 352.721 437.99 350.844 437.99C348.007 437.99 345.447 436.048 345.447 432.528C345.447 429.328 347.793 426.982 351.121 426.982C354.449 426.982 356.753 429.222 356.753 432.614V436.944C356.753 440.998 354.3 442.576 351.164 442.576ZM351.121 436.368C353.447 436.368 355.025 434.79 355.025 432.528C355.025 430.246 353.447 428.603 351.121 428.603C348.796 428.603 347.217 430.246 347.217 432.528C347.217 434.79 348.796 436.368 351.121 436.368ZM364.1 438.075C360.772 438.075 358.426 435.728 358.426 432.528C358.426 429.328 360.772 426.982 364.1 426.982C367.428 426.982 369.775 429.328 369.775 432.528C369.775 435.728 367.428 438.075 364.1 438.075ZM364.1 436.454C366.426 436.454 368.004 434.79 368.004 432.528C368.004 430.246 366.426 428.603 364.1 428.603C361.775 428.603 360.196 430.246 360.196 432.528C360.196 434.79 361.775 436.454 364.1 436.454ZM371.436 437.798V431.547C371.436 428.475 373.27 426.982 375.937 426.982C378.582 426.982 380.396 428.475 380.396 431.568V431.675H378.668V431.547C378.668 429.478 377.558 428.603 375.937 428.603C374.273 428.603 373.185 429.478 373.185 431.547V437.798H371.436ZM383.069 425.424C382.344 425.424 381.811 424.87 381.811 424.144C381.811 423.419 382.344 422.886 383.069 422.886C383.795 422.886 384.328 423.419 384.328 424.144C384.328 424.87 383.795 425.424 383.069 425.424ZM382.195 437.798V427.259H383.944V437.798H382.195ZM390.596 438.075C388.122 438.075 386.415 436.667 386.415 433.851V423.526H388.164V427.259H394.159V428.859H388.164V433.851C388.164 435.643 389.124 436.454 390.596 436.454C392.068 436.454 393.05 435.664 393.05 433.851V433.616H394.756V433.851C394.756 436.667 393.071 438.075 390.596 438.075ZM396.84 437.798V422.651H398.589V429.136C399.314 427.728 400.637 426.982 402.322 426.982C405.032 426.982 407.25 428.646 407.25 432.315V437.798H405.501V432.315C405.501 429.883 404.136 428.603 402.045 428.603C399.997 428.603 398.589 429.904 398.589 432.315V437.798H396.84ZM409.332 437.798V431.675C409.332 428.475 411.188 426.982 413.641 426.982C415.305 426.982 416.692 427.75 417.396 429.2C418.1 427.75 419.465 426.982 421.15 426.982C423.604 426.982 425.46 428.475 425.46 431.675V437.798H423.71V431.675C423.71 429.584 422.58 428.603 421.001 428.603C419.444 428.603 418.292 429.627 418.292 431.675V437.798H416.542V431.675C416.542 429.627 415.348 428.603 413.79 428.603C412.212 428.603 411.081 429.584 411.081 431.675V437.798H409.332ZM431.508 438.075C428.884 438.075 427.22 436.667 427.156 434.79H428.927C428.991 435.771 429.908 436.496 431.508 436.496C433.193 436.496 434.089 435.728 434.089 434.768C434.089 433.638 432.873 433.488 431.444 433.318C429.588 433.083 427.391 432.763 427.391 430.395C427.391 428.368 428.991 426.982 431.487 426.982C433.983 426.982 435.519 428.39 435.561 430.182H433.833C433.769 429.264 432.937 428.56 431.487 428.56C430.015 428.56 429.161 429.286 429.161 430.246C429.161 431.376 430.399 431.504 431.785 431.696C433.535 431.91 435.86 432.208 435.86 434.619C435.86 436.688 434.153 438.075 431.508 438.075Z" fill="#F9F9F9"/>
<path d="M92.9486 464.742C90.1112 464.742 87.5512 462.694 87.5512 459.28C87.5512 455.974 89.8979 453.648 93.2472 453.648C96.5539 453.648 98.8579 455.91 98.8579 459.28V464.464H97.2579V462.011C96.5326 463.803 94.8899 464.742 92.9486 464.742ZM93.2259 463.12C95.5512 463.12 97.1299 461.456 97.1299 459.195C97.1299 456.912 95.5512 455.27 93.2259 455.27C90.9006 455.27 89.3219 456.912 89.3219 459.195C89.3219 461.456 90.9006 463.12 93.2259 463.12ZM100.957 464.464V458.982C100.957 455.462 103.048 453.648 106.162 453.648C109.277 453.648 111.368 455.44 111.368 458.982V464.464H109.618V458.982C109.618 456.55 108.253 455.27 106.162 455.27C104.072 455.27 102.706 456.55 102.706 458.982V464.464H100.957ZM118.726 464.742C115.377 464.742 113.03 462.416 113.03 459.131C113.03 455.76 115.526 453.648 118.428 453.648C120.284 453.648 121.82 454.502 122.588 455.974V449.318H124.337V459.11C124.337 462.544 121.99 464.742 118.726 464.742ZM118.705 463.12C121.03 463.12 122.588 461.456 122.588 459.195C122.588 456.912 121.03 455.27 118.705 455.27C116.38 455.27 114.801 456.912 114.801 459.195C114.801 461.456 116.38 463.12 118.705 463.12ZM133.361 452.091C132.636 452.091 132.103 451.536 132.103 450.811C132.103 450.086 132.636 449.552 133.361 449.552C134.087 449.552 134.62 450.086 134.62 450.811C134.62 451.536 134.087 452.091 133.361 452.091ZM132.487 464.464V453.926H134.236V464.464H132.487ZM136.707 464.464V458.982C136.707 455.462 138.798 453.648 141.912 453.648C145.027 453.648 147.118 455.44 147.118 458.982V464.464H145.368V458.982C145.368 456.55 144.003 455.27 141.912 455.27C139.822 455.27 138.456 456.55 138.456 458.982V464.464H136.707ZM153.388 464.742C150.914 464.742 149.207 463.334 149.207 460.518V450.192H150.956V453.926H156.951V455.526H150.956V460.518C150.956 462.31 151.916 463.12 153.388 463.12C154.86 463.12 155.842 462.331 155.842 460.518V460.283H157.548V460.518C157.548 463.334 155.863 464.742 153.388 464.742ZM164.538 464.742C161.21 464.742 158.864 462.395 158.864 459.195C158.864 455.995 161.21 453.648 164.538 453.648C167.866 453.648 170.17 455.995 170.17 459.195V459.814H160.698C160.933 461.84 162.448 463.12 164.538 463.12C166.053 463.12 167.141 462.566 167.802 461.52H169.722C168.912 463.483 166.992 464.742 164.538 464.742ZM160.741 458.256H168.336C167.952 456.358 166.437 455.27 164.538 455.27C162.576 455.27 161.104 456.4 160.741 458.256ZM171.832 464.464V458.214C171.832 455.142 173.667 453.648 176.333 453.648C178.979 453.648 180.792 455.142 180.792 458.235V458.342H179.064V458.214C179.064 456.144 177.955 455.27 176.333 455.27C174.669 455.27 173.581 456.144 173.581 458.214V464.464H171.832ZM182.548 464.464V453.563C182.548 450.555 184.383 449.04 187.05 449.04C189.695 449.04 191.508 450.576 191.508 453.606H189.78C189.78 451.558 188.671 450.662 187.05 450.662C185.386 450.662 184.298 451.579 184.298 453.563V455.376H190.271V456.976H184.298V464.464H182.548ZM197.282 464.742C194.444 464.742 191.884 462.694 191.884 459.28C191.884 455.974 194.231 453.648 197.58 453.648C200.887 453.648 203.191 455.91 203.191 459.28V464.464H201.591V462.011C200.866 463.803 199.223 464.742 197.282 464.742ZM197.559 463.12C199.884 463.12 201.463 461.456 201.463 459.195C201.463 456.912 199.884 455.27 197.559 455.27C195.234 455.27 193.655 456.912 193.655 459.195C193.655 461.456 195.234 463.12 197.559 463.12ZM210.538 464.742C207.21 464.742 204.864 462.395 204.864 459.195C204.864 455.995 207.21 453.648 210.538 453.648C213.312 453.648 215.381 455.27 215.978 457.659H214.208C213.653 456.208 212.309 455.27 210.538 455.27C208.213 455.27 206.634 456.912 206.634 459.195C206.634 461.456 208.213 463.12 210.538 463.12C212.309 463.12 213.653 462.182 214.208 460.731H215.978C215.381 463.12 213.312 464.742 210.538 464.742ZM222.913 464.742C219.585 464.742 217.239 462.395 217.239 459.195C217.239 455.995 219.585 453.648 222.913 453.648C226.241 453.648 228.545 455.995 228.545 459.195V459.814H219.073C219.308 461.84 220.823 463.12 222.913 463.12C224.428 463.12 225.516 462.566 226.177 461.52H228.097C227.287 463.483 225.367 464.742 222.913 464.742ZM219.116 458.256H226.711C226.327 456.358 224.812 455.27 222.913 455.27C220.951 455.27 219.479 456.4 219.116 458.256ZM234.175 464.742C231.551 464.742 229.887 463.334 229.823 461.456H231.594C231.658 462.438 232.575 463.163 234.175 463.163C235.86 463.163 236.756 462.395 236.756 461.435C236.756 460.304 235.54 460.155 234.111 459.984C232.255 459.75 230.058 459.43 230.058 457.062C230.058 455.035 231.658 453.648 234.154 453.648C236.65 453.648 238.186 455.056 238.228 456.848H236.5C236.436 455.931 235.604 455.227 234.154 455.227C232.682 455.227 231.828 455.952 231.828 456.912C231.828 458.043 233.066 458.171 234.452 458.363C236.202 458.576 238.527 458.875 238.527 461.286C238.527 463.355 236.82 464.742 234.175 464.742ZM250.076 464.742C247.601 464.742 245.894 463.334 245.894 460.518V450.192H247.644V453.926H253.638V455.526H247.644V460.518C247.644 462.31 248.604 463.12 250.076 463.12C251.548 463.12 252.529 462.331 252.529 460.518V460.283H254.236V460.518C254.236 463.334 252.55 464.742 250.076 464.742ZM261.226 464.742C257.898 464.742 255.551 462.395 255.551 459.195C255.551 455.995 257.898 453.648 261.226 453.648C264.554 453.648 266.9 455.995 266.9 459.195C266.9 462.395 264.554 464.742 261.226 464.742ZM261.226 463.12C263.551 463.12 265.13 461.456 265.13 459.195C265.13 456.912 263.551 455.27 261.226 455.27C258.9 455.27 257.322 456.912 257.322 459.195C257.322 461.456 258.9 463.12 261.226 463.12ZM274.228 464.464V458.342C274.228 455.142 276.084 453.648 278.537 453.648C280.201 453.648 281.588 454.416 282.292 455.867C282.996 454.416 284.361 453.648 286.046 453.648C288.5 453.648 290.356 455.142 290.356 458.342V464.464H288.606V458.342C288.606 456.251 287.476 455.27 285.897 455.27C284.34 455.27 283.188 456.294 283.188 458.342V464.464H281.438V458.342C281.438 456.294 280.244 455.27 278.686 455.27C277.108 455.27 275.977 456.251 275.977 458.342V464.464H274.228ZM297.684 464.742C294.356 464.742 292.009 462.395 292.009 459.195C292.009 455.995 294.356 453.648 297.684 453.648C301.012 453.648 303.316 455.995 303.316 459.195V459.814H293.844C294.079 461.84 295.593 463.12 297.684 463.12C299.199 463.12 300.287 462.566 300.948 461.52H302.868C302.057 463.483 300.137 464.742 297.684 464.742ZM293.887 458.256H301.481C301.097 456.358 299.583 455.27 297.684 455.27C295.721 455.27 294.249 456.4 293.887 458.256ZM310.226 464.742C306.898 464.742 304.551 462.395 304.551 459.195C304.551 455.995 306.898 453.648 310.226 453.648C313.554 453.648 315.858 455.995 315.858 459.195V459.814H306.386C306.62 461.84 308.135 463.12 310.226 463.12C311.74 463.12 312.828 462.566 313.49 461.52H315.41C314.599 463.483 312.679 464.742 310.226 464.742ZM306.428 458.256H314.023C313.639 456.358 312.124 455.27 310.226 455.27C308.263 455.27 306.791 456.4 306.428 458.256ZM321.701 464.742C319.226 464.742 317.519 463.334 317.519 460.518V450.192H319.269V453.926H325.263V455.526H319.269V460.518C319.269 462.31 320.229 463.12 321.701 463.12C323.173 463.12 324.154 462.331 324.154 460.518V460.283H325.861V460.518C325.861 463.334 324.175 464.742 321.701 464.742ZM338.432 469.243C336 469.243 333.995 468.112 333.355 465.787H335.104C335.637 467.088 336.789 467.707 338.432 467.707C340.523 467.707 341.93 466.683 341.93 464.144V462.502C341.226 463.91 339.883 464.656 338.197 464.656C335.488 464.656 333.269 462.992 333.269 459.344V453.926H335.019V459.344C335.019 461.776 336.384 463.035 338.475 463.035C340.523 463.035 341.93 461.734 341.93 459.344V453.926H343.68V464.102C343.68 467.771 341.354 469.243 338.432 469.243ZM351.351 464.742C348.023 464.742 345.676 462.395 345.676 459.195C345.676 455.995 348.023 453.648 351.351 453.648C354.679 453.648 357.025 455.995 357.025 459.195C357.025 462.395 354.679 464.742 351.351 464.742ZM351.351 463.12C353.676 463.12 355.255 461.456 355.255 459.195C355.255 456.912 353.676 455.27 351.351 455.27C349.025 455.27 347.447 456.912 347.447 459.195C347.447 461.456 349.025 463.12 351.351 463.12ZM363.891 464.742C360.776 464.742 358.686 462.95 358.686 459.43V453.926H360.435V459.43C360.435 461.84 361.8 463.12 363.891 463.12C365.982 463.12 367.347 461.84 367.347 459.43V453.926H369.096V459.43C369.096 462.928 367.006 464.742 363.891 464.742ZM371.186 464.464V458.214C371.186 455.142 373.02 453.648 375.687 453.648C378.332 453.648 380.146 455.142 380.146 458.235V458.342H378.418V458.214C378.418 456.144 377.308 455.27 375.687 455.27C374.023 455.27 372.935 456.144 372.935 458.214V464.464H371.186ZM392.475 464.742C389.147 464.742 386.801 462.395 386.801 459.195C386.801 455.995 389.147 453.648 392.475 453.648C395.803 453.648 398.107 455.995 398.107 459.195V459.814H388.635C388.87 461.84 390.385 463.12 392.475 463.12C393.99 463.12 395.078 462.566 395.739 461.52H397.659C396.849 463.483 394.929 464.742 392.475 464.742ZM388.678 458.256H396.273C395.889 456.358 394.374 455.27 392.475 455.27C390.513 455.27 389.041 456.4 388.678 458.256ZM398.482 464.464L402.792 459.11L398.653 453.926H400.829L404.093 458.171L407.378 453.926H409.469L405.309 459.11L409.64 464.464H407.485L404.029 460.027L400.594 464.464H398.482ZM415.427 464.742C412.59 464.742 410.03 462.694 410.03 459.28C410.03 455.974 412.377 453.648 415.726 453.648C419.033 453.648 421.337 455.91 421.337 459.28V464.464H419.737V462.011C419.011 463.803 417.369 464.742 415.427 464.742ZM415.705 463.12C418.03 463.12 419.609 461.456 419.609 459.195C419.609 456.912 418.03 455.27 415.705 455.27C413.379 455.27 411.801 456.912 411.801 459.195C411.801 461.456 413.379 463.12 415.705 463.12ZM428.684 464.742C425.356 464.742 423.009 462.395 423.009 459.195C423.009 455.995 425.356 453.648 428.684 453.648C431.457 453.648 433.526 455.27 434.124 457.659H432.353C431.798 456.208 430.454 455.27 428.684 455.27C426.358 455.27 424.78 456.912 424.78 459.195C424.78 461.456 426.358 463.12 428.684 463.12C430.454 463.12 431.798 462.182 432.353 460.731H434.124C433.526 463.12 431.457 464.742 428.684 464.742ZM439.992 464.742C437.517 464.742 435.811 463.334 435.811 460.518V450.192H437.56V453.926H443.555V455.526H437.56V460.518C437.56 462.31 438.52 463.12 439.992 463.12C441.464 463.12 442.445 462.331 442.445 460.518V460.283H444.152V460.518C444.152 463.334 442.467 464.742 439.992 464.742Z" fill="#F9F9F9"/>
<path d="M75.8217 491.131V484.88C75.8217 481.808 77.6563 480.315 80.323 480.315C82.9683 480.315 84.7817 481.808 84.7817 484.902V485.008H83.0537V484.88C83.0537 482.811 81.9443 481.936 80.323 481.936C78.659 481.936 77.571 482.811 77.571 484.88V491.131H75.8217ZM91.4446 491.408C88.1167 491.408 85.77 489.062 85.77 485.862C85.77 482.662 88.1167 480.315 91.4446 480.315C94.7726 480.315 97.0766 482.662 97.0766 485.862V486.48H87.6047C87.8393 488.507 89.354 489.787 91.4446 489.787C92.9593 489.787 94.0473 489.232 94.7086 488.187H96.6286C95.818 490.15 93.898 491.408 91.4446 491.408ZM87.6473 484.923H95.242C94.858 483.024 93.3433 481.936 91.4446 481.936C89.482 481.936 88.01 483.067 87.6473 484.923ZM109.618 495.632H107.869V489.083C107.101 490.555 105.565 491.408 103.709 491.408C100.808 491.408 98.3116 489.296 98.3116 485.926C98.3116 482.64 100.658 480.315 104.008 480.315C107.272 480.315 109.618 482.512 109.618 485.947V495.632ZM103.986 489.787C106.312 489.787 107.869 488.123 107.869 485.862C107.869 483.579 106.312 481.936 103.986 481.936C101.661 481.936 100.082 483.579 100.082 485.862C100.082 488.123 101.661 489.787 103.986 489.787ZM116.923 491.408C113.808 491.408 111.717 489.616 111.717 486.096V480.592H113.467V486.096C113.467 488.507 114.832 489.787 116.923 489.787C119.013 489.787 120.379 488.507 120.379 486.096V480.592H122.128V486.096C122.128 489.595 120.037 491.408 116.923 491.408ZM125.476 478.758C124.751 478.758 124.217 478.203 124.217 477.478C124.217 476.752 124.751 476.219 125.476 476.219C126.201 476.219 126.735 476.752 126.735 477.478C126.735 478.203 126.201 478.758 125.476 478.758ZM124.601 491.131V480.592H126.351V491.131H124.601ZM128.822 491.131V484.88C128.822 481.808 130.656 480.315 133.323 480.315C135.968 480.315 137.782 481.808 137.782 484.902V485.008H136.054V484.88C136.054 482.811 134.944 481.936 133.323 481.936C131.659 481.936 130.571 482.811 130.571 484.88V491.131H128.822ZM144.445 491.408C141.117 491.408 138.77 489.062 138.77 485.862C138.77 482.662 141.117 480.315 144.445 480.315C147.773 480.315 150.077 482.662 150.077 485.862V486.48H140.605C140.839 488.507 142.354 489.787 144.445 489.787C145.959 489.787 147.047 489.232 147.709 488.187H149.629C148.818 490.15 146.898 491.408 144.445 491.408ZM140.647 484.923H148.242C147.858 483.024 146.343 481.936 144.445 481.936C142.482 481.936 141.01 483.067 140.647 484.923ZM151.738 491.131V485.008C151.738 481.808 153.594 480.315 156.048 480.315C157.712 480.315 159.098 481.083 159.802 482.534C160.506 481.083 161.872 480.315 163.557 480.315C166.01 480.315 167.866 481.808 167.866 485.008V491.131H166.117V485.008C166.117 482.918 164.986 481.936 163.408 481.936C161.85 481.936 160.698 482.96 160.698 485.008V491.131H158.949V485.008C158.949 482.96 157.754 481.936 156.197 481.936C154.618 481.936 153.488 482.918 153.488 485.008V491.131H151.738ZM175.195 491.408C171.867 491.408 169.52 489.062 169.52 485.862C169.52 482.662 171.867 480.315 175.195 480.315C178.523 480.315 180.827 482.662 180.827 485.862V486.48H171.355C171.589 488.507 173.104 489.787 175.195 489.787C176.709 489.787 177.797 489.232 178.459 488.187H180.379C179.568 490.15 177.648 491.408 175.195 491.408ZM171.397 484.923H178.992C178.608 483.024 177.093 481.936 175.195 481.936C173.232 481.936 171.76 483.067 171.397 484.923ZM182.488 491.131V485.648C182.488 482.128 184.579 480.315 187.693 480.315C190.808 480.315 192.899 482.107 192.899 485.648V491.131H191.149V485.648C191.149 483.216 189.784 481.936 187.693 481.936C185.603 481.936 184.238 483.216 184.238 485.648V491.131H182.488ZM199.169 491.408C196.695 491.408 194.988 490 194.988 487.184V476.859H196.737V480.592H202.732V482.192H196.737V487.184C196.737 488.976 197.697 489.787 199.169 489.787C200.641 489.787 201.623 488.998 201.623 487.184V486.95H203.329V487.184C203.329 490 201.644 491.408 199.169 491.408ZM209.039 491.408C206.415 491.408 204.751 490 204.687 488.123H206.458C206.522 489.104 207.439 489.83 209.039 489.83C210.725 489.83 211.621 489.062 211.621 488.102C211.621 486.971 210.405 486.822 208.975 486.651C207.119 486.416 204.922 486.096 204.922 483.728C204.922 481.702 206.522 480.315 209.018 480.315C211.514 480.315 213.05 481.723 213.093 483.515H211.365C211.301 482.598 210.469 481.894 209.018 481.894C207.546 481.894 206.693 482.619 206.693 483.579C206.693 484.71 207.93 484.838 209.317 485.03C211.066 485.243 213.391 485.542 213.391 487.952C213.391 490.022 211.685 491.408 209.039 491.408ZM216.42 491.408C215.695 491.408 215.162 490.875 215.162 490.15C215.162 489.424 215.695 488.891 216.42 488.891C217.146 488.891 217.679 489.424 217.679 490.15C217.679 490.875 217.146 491.408 216.42 491.408ZM229.834 491.131V478.907H225.269V477.179H236.298V478.907H231.711V491.131H229.834ZM238.267 491.131V475.984H240.016V482.47C240.742 481.062 242.064 480.315 243.75 480.315C246.459 480.315 248.678 481.979 248.678 485.648V491.131H246.928V485.648C246.928 483.216 245.563 481.936 243.472 481.936C241.424 481.936 240.016 483.238 240.016 485.648V491.131H238.267ZM256.007 491.408C252.679 491.408 250.332 489.062 250.332 485.862C250.332 482.662 252.679 480.315 256.007 480.315C259.335 480.315 261.639 482.662 261.639 485.862V486.48H252.167C252.402 488.507 253.916 489.787 256.007 489.787C257.522 489.787 258.61 489.232 259.271 488.187H261.191C260.38 490.15 258.46 491.408 256.007 491.408ZM252.21 484.923H259.804C259.42 483.024 257.906 481.936 256.007 481.936C254.044 481.936 252.572 483.067 252.21 484.923ZM268.967 491.131V485.008C268.967 481.808 270.823 480.315 273.277 480.315C274.941 480.315 276.327 481.083 277.031 482.534C277.735 481.083 279.101 480.315 280.786 480.315C283.239 480.315 285.095 481.808 285.095 485.008V491.131H283.346V485.008C283.346 482.918 282.215 481.936 280.637 481.936C279.079 481.936 277.927 482.96 277.927 485.008V491.131H276.178V485.008C276.178 482.96 274.983 481.936 273.426 481.936C271.847 481.936 270.717 482.918 270.717 485.008V491.131H268.967ZM292.423 491.408C289.096 491.408 286.749 489.062 286.749 485.862C286.749 482.662 289.096 480.315 292.423 480.315C295.751 480.315 298.055 482.662 298.055 485.862V486.48H288.584C288.818 488.507 290.333 489.787 292.423 489.787C293.938 489.787 295.026 489.232 295.687 488.187H297.607C296.797 490.15 294.877 491.408 292.423 491.408ZM288.626 484.923H296.221C295.837 483.024 294.322 481.936 292.423 481.936C290.461 481.936 288.989 483.067 288.626 484.923ZM303.898 491.408C301.424 491.408 299.717 490 299.717 487.184V476.859H301.466V480.592H307.461V482.192H301.466V487.184C301.466 488.976 302.426 489.787 303.898 489.787C305.37 489.787 306.352 488.998 306.352 487.184V486.95H308.058V487.184C308.058 490 306.373 491.408 303.898 491.408ZM310.142 491.131V475.984H311.891V482.47C312.616 481.062 313.939 480.315 315.624 480.315C318.334 480.315 320.552 481.979 320.552 485.648V491.131H318.803V485.648C318.803 483.216 317.438 481.936 315.347 481.936C313.299 481.936 311.891 483.238 311.891 485.648V491.131H310.142ZM327.882 491.408C324.554 491.408 322.207 489.062 322.207 485.862C322.207 482.662 324.554 480.315 327.882 480.315C331.21 480.315 333.556 482.662 333.556 485.862C333.556 489.062 331.21 491.408 327.882 491.408ZM327.882 489.787C330.207 489.787 331.786 488.123 331.786 485.862C331.786 483.579 330.207 481.936 327.882 481.936C325.556 481.936 323.978 483.579 323.978 485.862C323.978 488.123 325.556 489.787 327.882 489.787ZM340.486 491.408C337.137 491.408 334.79 489.083 334.79 485.798C334.79 482.427 337.286 480.315 340.188 480.315C342.044 480.315 343.58 481.168 344.348 482.64V475.984H346.097V485.776C346.097 489.211 343.75 491.408 340.486 491.408ZM340.465 489.787C342.79 489.787 344.348 488.123 344.348 485.862C344.348 483.579 342.79 481.936 340.465 481.936C338.14 481.936 336.561 483.579 336.561 485.862C336.561 488.123 338.14 489.787 340.465 489.787ZM355.122 478.758C354.396 478.758 353.863 478.203 353.863 477.478C353.863 476.752 354.396 476.219 355.122 476.219C355.847 476.219 356.38 476.752 356.38 477.478C356.38 478.203 355.847 478.758 355.122 478.758ZM354.247 491.131V480.592H355.996V491.131H354.247ZM362.435 491.408C359.811 491.408 358.147 490 358.083 488.123H359.854C359.918 489.104 360.835 489.83 362.435 489.83C364.12 489.83 365.016 489.062 365.016 488.102C365.016 486.971 363.8 486.822 362.371 486.651C360.515 486.416 358.318 486.096 358.318 483.728C358.318 481.702 359.918 480.315 362.414 480.315C364.91 480.315 366.446 481.723 366.488 483.515H364.76C364.696 482.598 363.864 481.894 362.414 481.894C360.942 481.894 360.088 482.619 360.088 483.579C360.088 484.71 361.326 484.838 362.712 485.03C364.462 485.243 366.787 485.542 366.787 487.952C366.787 490.022 365.08 491.408 362.435 491.408ZM374.155 491.131V485.648C374.155 482.128 376.245 480.315 379.36 480.315C382.475 480.315 384.565 482.107 384.565 485.648V491.131H382.816V485.648C382.816 483.216 381.451 481.936 379.36 481.936C377.269 481.936 375.904 483.216 375.904 485.648V491.131H374.155ZM387.913 478.758C387.188 478.758 386.655 478.203 386.655 477.478C386.655 476.752 387.188 476.219 387.913 476.219C388.639 476.219 389.172 476.752 389.172 477.478C389.172 478.203 388.639 478.758 387.913 478.758ZM387.039 491.131V480.592H388.788V491.131H387.039ZM391.259 491.131V485.008C391.259 481.808 393.115 480.315 395.568 480.315C397.232 480.315 398.619 481.083 399.323 482.534C400.027 481.083 401.392 480.315 403.077 480.315C405.531 480.315 407.387 481.808 407.387 485.008V491.131H405.637V485.008C405.637 482.918 404.507 481.936 402.928 481.936C401.371 481.936 400.219 482.96 400.219 485.008V491.131H398.469V485.008C398.469 482.96 397.275 481.936 395.717 481.936C394.139 481.936 393.008 482.918 393.008 485.008V491.131H391.259ZM415.078 491.408C411.814 491.408 409.467 489.211 409.467 485.776V475.984H411.216V482.64C411.984 481.168 413.542 480.315 415.376 480.315C418.299 480.315 420.774 482.427 420.774 485.798C420.774 489.083 418.427 491.408 415.078 491.408ZM415.099 489.787C417.446 489.787 419.003 488.123 419.003 485.862C419.003 483.579 417.446 481.936 415.099 481.936C412.774 481.936 411.216 483.579 411.216 485.862C411.216 488.123 412.774 489.787 415.099 489.787ZM422.83 491.131V475.984H424.579V491.131H422.83ZM432.319 491.408C428.991 491.408 426.644 489.062 426.644 485.862C426.644 482.662 428.991 480.315 432.319 480.315C435.647 480.315 437.951 482.662 437.951 485.862V486.48H428.479C428.714 488.507 430.228 489.787 432.319 489.787C433.834 489.787 434.922 489.232 435.583 488.187H437.503C436.692 490.15 434.772 491.408 432.319 491.408ZM428.522 484.923H436.116C435.732 483.024 434.218 481.936 432.319 481.936C430.356 481.936 428.884 483.067 428.522 484.923ZM439.538 493.862L440.285 491.323C439.794 491.174 439.453 490.704 439.453 490.15C439.453 489.424 439.986 488.891 440.712 488.891C441.437 488.891 441.97 489.424 441.97 490.15C441.97 490.363 441.906 490.64 441.821 490.832L440.562 493.862H439.538ZM451.288 478.758C450.563 478.758 450.029 478.203 450.029 477.478C450.029 476.752 450.563 476.219 451.288 476.219C452.013 476.219 452.547 476.752 452.547 477.478C452.547 478.203 452.013 478.758 451.288 478.758ZM450.413 491.131V480.592H452.163V491.131H450.413ZM458.815 491.408C456.34 491.408 454.634 490 454.634 487.184V476.859H456.383V480.592H462.378V482.192H456.383V487.184C456.383 488.976 457.343 489.787 458.815 489.787C460.287 489.787 461.268 488.998 461.268 487.184V486.95H462.975V487.184C462.975 490 461.29 491.408 458.815 491.408Z" fill="#F9F9F9"/>
<path d="M66.8614 518.075C63.5334 518.075 61.1867 515.728 61.1867 512.528C61.1867 509.328 63.5334 506.982 66.8614 506.982C70.1894 506.982 72.4934 509.328 72.4934 512.528V513.147H63.0214C63.256 515.174 64.7707 516.454 66.8614 516.454C68.376 516.454 69.464 515.899 70.1254 514.854H72.0454C71.2347 516.816 69.3147 518.075 66.8614 518.075ZM63.064 511.59H70.6587C70.2747 509.691 68.76 508.603 66.8614 508.603C64.8987 508.603 63.4267 509.734 63.064 511.59ZM74.539 517.798V502.651H76.2883V517.798H74.539ZM80.0387 505.424C79.3133 505.424 78.78 504.87 78.78 504.144C78.78 503.419 79.3133 502.886 80.0387 502.886C80.764 502.886 81.2973 503.419 81.2973 504.144C81.2973 504.87 80.764 505.424 80.0387 505.424ZM79.164 517.798V507.259H80.9133V517.798H79.164ZM83.3842 517.798V511.675C83.3842 508.475 85.2402 506.982 87.6935 506.982C89.3575 506.982 90.7442 507.75 91.4482 509.2C92.1522 507.75 93.5175 506.982 95.2028 506.982C97.6561 506.982 99.5121 508.475 99.5121 511.675V517.798H97.7628V511.675C97.7628 509.584 96.6321 508.603 95.0535 508.603C93.4962 508.603 92.3442 509.627 92.3442 511.675V517.798H90.5948V511.675C90.5948 509.627 89.4002 508.603 87.8428 508.603C86.2642 508.603 85.1335 509.584 85.1335 511.675V517.798H83.3842ZM102.851 505.424C102.126 505.424 101.592 504.87 101.592 504.144C101.592 503.419 102.126 502.886 102.851 502.886C103.576 502.886 104.11 503.419 104.11 504.144C104.11 504.87 103.576 505.424 102.851 505.424ZM101.976 517.798V507.259H103.726V517.798H101.976ZM106.197 517.798V512.315C106.197 508.795 108.287 506.982 111.402 506.982C114.517 506.982 116.607 508.774 116.607 512.315V517.798H114.858V512.315C114.858 509.883 113.493 508.603 111.402 508.603C109.311 508.603 107.946 509.883 107.946 512.315V517.798H106.197ZM123.667 518.075C120.83 518.075 118.27 516.027 118.27 512.614C118.27 509.307 120.617 506.982 123.966 506.982C127.273 506.982 129.577 509.243 129.577 512.614V517.798H127.977V515.344C127.251 517.136 125.609 518.075 123.667 518.075ZM123.945 516.454C126.27 516.454 127.849 514.79 127.849 512.528C127.849 510.246 126.27 508.603 123.945 508.603C121.619 508.603 120.041 510.246 120.041 512.528C120.041 514.79 121.619 516.454 123.945 516.454ZM135.857 518.075C133.382 518.075 131.676 516.667 131.676 513.851V503.526H133.425V507.259H139.42V508.859H133.425V513.851C133.425 515.643 134.385 516.454 135.857 516.454C137.329 516.454 138.31 515.664 138.31 513.851V513.616H140.017V513.851C140.017 516.667 138.332 518.075 135.857 518.075ZM147.007 518.075C143.679 518.075 141.332 515.728 141.332 512.528C141.332 509.328 143.679 506.982 147.007 506.982C150.335 506.982 152.639 509.328 152.639 512.528V513.147H143.167C143.402 515.174 144.916 516.454 147.007 516.454C148.522 516.454 149.61 515.899 150.271 514.854H152.191C151.38 516.816 149.46 518.075 147.007 518.075ZM143.21 511.59H150.804C150.42 509.691 148.906 508.603 147.007 508.603C145.044 508.603 143.572 509.734 143.21 511.59ZM158.269 518.075C155.645 518.075 153.981 516.667 153.917 514.79H155.687C155.751 515.771 156.669 516.496 158.269 516.496C159.954 516.496 160.85 515.728 160.85 514.768C160.85 513.638 159.634 513.488 158.205 513.318C156.349 513.083 154.151 512.763 154.151 510.395C154.151 508.368 155.751 506.982 158.247 506.982C160.743 506.982 162.279 508.39 162.322 510.182H160.594C160.53 509.264 159.698 508.56 158.247 508.56C156.775 508.56 155.922 509.286 155.922 510.246C155.922 511.376 157.159 511.504 158.546 511.696C160.295 511.91 162.621 512.208 162.621 514.619C162.621 516.688 160.914 518.075 158.269 518.075ZM175.258 518.075C171.908 518.075 169.562 515.75 169.562 512.464C169.562 509.094 172.058 506.982 174.959 506.982C176.815 506.982 178.351 507.835 179.119 509.307V502.651H180.868V512.443C180.868 515.878 178.522 518.075 175.258 518.075ZM175.236 516.454C177.562 516.454 179.119 514.79 179.119 512.528C179.119 510.246 177.562 508.603 175.236 508.603C172.911 508.603 171.332 510.246 171.332 512.528C171.332 514.79 172.911 516.454 175.236 516.454ZM184.226 505.424C183.501 505.424 182.967 504.87 182.967 504.144C182.967 503.419 183.501 502.886 184.226 502.886C184.951 502.886 185.485 503.419 185.485 504.144C185.485 504.87 184.951 505.424 184.226 505.424ZM183.351 517.798V507.259H185.101V517.798H183.351ZM191.54 518.075C188.916 518.075 187.252 516.667 187.188 514.79H188.958C189.022 515.771 189.94 516.496 191.54 516.496C193.225 516.496 194.121 515.728 194.121 514.768C194.121 513.638 192.905 513.488 191.476 513.318C189.62 513.083 187.422 512.763 187.422 510.395C187.422 508.368 189.022 506.982 191.518 506.982C194.014 506.982 195.55 508.39 195.593 510.182H193.865C193.801 509.264 192.969 508.56 191.518 508.56C190.046 508.56 189.193 509.286 189.193 510.246C189.193 511.376 190.43 511.504 191.817 511.696C193.566 511.91 195.891 512.208 195.891 514.619C195.891 516.688 194.185 518.075 191.54 518.075ZM197.592 517.798V511.547C197.592 508.475 199.427 506.982 202.094 506.982C204.739 506.982 206.552 508.475 206.552 511.568V511.675H204.824V511.547C204.824 509.478 203.715 508.603 202.094 508.603C200.43 508.603 199.342 509.478 199.342 511.547V517.798H197.592ZM213.173 518.075C210.058 518.075 207.967 516.283 207.967 512.763V507.259H209.717V512.763C209.717 515.174 211.082 516.454 213.173 516.454C215.263 516.454 216.629 515.174 216.629 512.763V507.259H218.378V512.763C218.378 516.262 216.287 518.075 213.173 518.075ZM220.467 522.299V512.614C220.467 509.179 222.814 506.982 226.078 506.982C229.427 506.982 231.774 509.307 231.774 512.592C231.774 515.963 229.299 518.075 226.377 518.075C224.542 518.075 222.985 517.222 222.217 515.75V522.299H220.467ZM226.099 516.454C228.446 516.454 230.003 514.79 230.003 512.528C230.003 510.246 228.446 508.603 226.099 508.603C223.774 508.603 222.217 510.246 222.217 512.528C222.217 514.79 223.774 516.454 226.099 516.454ZM237.628 518.075C235.153 518.075 233.446 516.667 233.446 513.851V503.526H235.196V507.259H241.19V508.859H235.196V513.851C235.196 515.643 236.156 516.454 237.628 516.454C239.1 516.454 240.081 515.664 240.081 513.851V513.616H241.788V513.851C241.788 516.667 240.102 518.075 237.628 518.075ZM244.788 505.424C244.063 505.424 243.53 504.87 243.53 504.144C243.53 503.419 244.063 502.886 244.788 502.886C245.514 502.886 246.047 503.419 246.047 504.144C246.047 504.87 245.514 505.424 244.788 505.424ZM243.914 517.798V507.259H245.663V517.798H243.914ZM253.382 518.075C250.054 518.075 247.707 515.728 247.707 512.528C247.707 509.328 250.054 506.982 253.382 506.982C256.71 506.982 259.057 509.328 259.057 512.528C259.057 515.728 256.71 518.075 253.382 518.075ZM253.382 516.454C255.707 516.454 257.286 514.79 257.286 512.528C257.286 510.246 255.707 508.603 253.382 508.603C251.057 508.603 249.478 510.246 249.478 512.528C249.478 514.79 251.057 516.454 253.382 516.454ZM260.717 517.798V512.315C260.717 508.795 262.808 506.982 265.923 506.982C269.037 506.982 271.128 508.774 271.128 512.315V517.798H269.379V512.315C269.379 509.883 268.013 508.603 265.923 508.603C263.832 508.603 262.467 509.883 262.467 512.315V517.798H260.717ZM283.855 518.075C281.017 518.075 278.457 516.027 278.457 512.614C278.457 509.307 280.804 506.982 284.153 506.982C287.46 506.982 289.764 509.243 289.764 512.614V517.798H288.164V515.344C287.439 517.136 285.796 518.075 283.855 518.075ZM284.132 516.454C286.457 516.454 288.036 514.79 288.036 512.528C288.036 510.246 286.457 508.603 284.132 508.603C281.807 508.603 280.228 510.246 280.228 512.528C280.228 514.79 281.807 516.454 284.132 516.454ZM291.863 517.798V512.315C291.863 508.795 293.954 506.982 297.068 506.982C300.183 506.982 302.274 508.774 302.274 512.315V517.798H300.524V512.315C300.524 509.883 299.159 508.603 297.068 508.603C294.978 508.603 293.612 509.883 293.612 512.315V517.798H291.863ZM309.632 518.075C306.283 518.075 303.936 515.75 303.936 512.464C303.936 509.094 306.432 506.982 309.334 506.982C311.19 506.982 312.726 507.835 313.494 509.307V502.651H315.243V512.443C315.243 515.878 312.896 518.075 309.632 518.075ZM309.611 516.454C311.936 516.454 313.494 514.79 313.494 512.528C313.494 510.246 311.936 508.603 309.611 508.603C307.286 508.603 305.707 510.246 305.707 512.528C305.707 514.79 307.286 516.454 309.611 516.454ZM323.009 517.798V511.675C323.009 508.475 324.865 506.982 327.318 506.982C328.982 506.982 330.369 507.75 331.073 509.2C331.777 507.75 333.142 506.982 334.827 506.982C337.281 506.982 339.137 508.475 339.137 511.675V517.798H337.387V511.675C337.387 509.584 336.257 508.603 334.678 508.603C333.121 508.603 331.969 509.627 331.969 511.675V517.798H330.219V511.675C330.219 509.627 329.025 508.603 327.467 508.603C325.889 508.603 324.758 509.584 324.758 511.675V517.798H323.009ZM342.476 505.424C341.75 505.424 341.217 504.87 341.217 504.144C341.217 503.419 341.75 502.886 342.476 502.886C343.201 502.886 343.734 503.419 343.734 504.144C343.734 504.87 343.201 505.424 342.476 505.424ZM341.601 517.798V507.259H343.35V517.798H341.601ZM345.821 517.798V512.315C345.821 508.795 347.912 506.982 351.027 506.982C354.141 506.982 356.232 508.774 356.232 512.315V517.798H354.483V512.315C354.483 509.883 353.117 508.603 351.027 508.603C348.936 508.603 347.571 509.883 347.571 512.315V517.798H345.821ZM359.58 505.424C358.855 505.424 358.321 504.87 358.321 504.144C358.321 503.419 358.855 502.886 359.58 502.886C360.305 502.886 360.839 503.419 360.839 504.144C360.839 504.87 360.305 505.424 359.58 505.424ZM358.705 517.798V507.259H360.455V517.798H358.705ZM362.925 517.798V511.675C362.925 508.475 364.781 506.982 367.235 506.982C368.899 506.982 370.285 507.75 370.989 509.2C371.693 507.75 373.059 506.982 374.744 506.982C377.197 506.982 379.053 508.475 379.053 511.675V517.798H377.304V511.675C377.304 509.584 376.173 508.603 374.595 508.603C373.037 508.603 371.885 509.627 371.885 511.675V517.798H370.136V511.675C370.136 509.627 368.941 508.603 367.384 508.603C365.805 508.603 364.675 509.584 364.675 511.675V517.798H362.925ZM382.392 505.424C381.667 505.424 381.134 504.87 381.134 504.144C381.134 503.419 381.667 502.886 382.392 502.886C383.118 502.886 383.651 503.419 383.651 504.144C383.651 504.87 383.118 505.424 382.392 505.424ZM381.518 517.798V507.259H383.267V517.798H381.518ZM389.706 518.075C387.082 518.075 385.418 516.667 385.354 514.79H387.125C387.189 515.771 388.106 516.496 389.706 516.496C391.391 516.496 392.287 515.728 392.287 514.768C392.287 513.638 391.071 513.488 389.642 513.318C387.786 513.083 385.589 512.763 385.589 510.395C385.589 508.368 387.189 506.982 389.684 506.982C392.18 506.982 393.716 508.39 393.759 510.182H392.031C391.967 509.264 391.135 508.56 389.684 508.56C388.212 508.56 387.359 509.286 387.359 510.246C387.359 511.376 388.596 511.504 389.983 511.696C391.732 511.91 394.058 512.208 394.058 514.619C394.058 516.688 392.351 518.075 389.706 518.075ZM401.007 518.075C397.679 518.075 395.332 515.728 395.332 512.528C395.332 509.328 397.679 506.982 401.007 506.982C404.335 506.982 406.639 509.328 406.639 512.528V513.147H397.167C397.401 515.174 398.916 516.454 401.007 516.454C402.521 516.454 403.609 515.899 404.271 514.854H406.191C405.38 516.816 403.46 518.075 401.007 518.075ZM397.209 511.59H404.804C404.42 509.691 402.905 508.603 401.007 508.603C399.044 508.603 397.572 509.734 397.209 511.59ZM412.268 518.075C409.644 518.075 407.98 516.667 407.916 514.79H409.687C409.751 515.771 410.668 516.496 412.268 516.496C413.954 516.496 414.85 515.728 414.85 514.768C414.85 513.638 413.634 513.488 412.204 513.318C410.348 513.083 408.151 512.763 408.151 510.395C408.151 508.368 409.751 506.982 412.247 506.982C414.743 506.982 416.279 508.39 416.322 510.182H414.594C414.53 509.264 413.698 508.56 412.247 508.56C410.775 508.56 409.922 509.286 409.922 510.246C409.922 511.376 411.159 511.504 412.546 511.696C414.295 511.91 416.62 512.208 416.62 514.619C416.62 516.688 414.914 518.075 412.268 518.075ZM429.236 518.075C425.908 518.075 423.561 515.728 423.561 512.528C423.561 509.328 425.908 506.982 429.236 506.982C432.009 506.982 434.078 508.603 434.676 510.992H432.905C432.35 509.542 431.006 508.603 429.236 508.603C426.91 508.603 425.332 510.246 425.332 512.528C425.332 514.79 426.91 516.454 429.236 516.454C431.006 516.454 432.35 515.515 432.905 514.064H434.676C434.078 516.454 432.009 518.075 429.236 518.075ZM441.611 518.075C438.283 518.075 435.936 515.728 435.936 512.528C435.936 509.328 438.283 506.982 441.611 506.982C444.939 506.982 447.285 509.328 447.285 512.528C447.285 515.728 444.939 518.075 441.611 518.075ZM441.611 516.454C443.936 516.454 445.515 514.79 445.515 512.528C445.515 510.246 443.936 508.603 441.611 508.603C439.285 508.603 437.707 510.246 437.707 512.528C437.707 514.79 439.285 516.454 441.611 516.454ZM452.914 518.075C450.29 518.075 448.626 516.667 448.562 514.79H450.333C450.397 515.771 451.314 516.496 452.914 516.496C454.599 516.496 455.495 515.728 455.495 514.768C455.495 513.638 454.279 513.488 452.85 513.318C450.994 513.083 448.797 512.763 448.797 510.395C448.797 508.368 450.397 506.982 452.893 506.982C455.389 506.982 456.925 508.39 456.967 510.182H455.239C455.175 509.264 454.343 508.56 452.893 508.56C451.421 508.56 450.567 509.286 450.567 510.246C450.567 511.376 451.805 511.504 453.191 511.696C454.941 511.91 457.266 512.208 457.266 514.619C457.266 516.688 455.559 518.075 452.914 518.075ZM463.148 518.075C460.674 518.075 458.967 516.667 458.967 513.851V503.526H460.716V507.259H466.711V508.859H460.716V513.851C460.716 515.643 461.676 516.454 463.148 516.454C464.62 516.454 465.602 515.664 465.602 513.851V513.616H467.308V513.851C467.308 516.667 465.623 518.075 463.148 518.075ZM470.608 518.075C469.882 518.075 469.349 517.542 469.349 516.816C469.349 516.091 469.882 515.558 470.608 515.558C471.333 515.558 471.866 516.091 471.866 516.816C471.866 517.542 471.333 518.075 470.608 518.075Z" fill="#F9F9F9"/>
</g>
<defs>
<linearGradient id="paint0_linear_8_6" x1="494.057" y1="28.288" x2="113.537" y2="677.738" gradientUnits="userSpaceOnUse">
<stop offset="0.01" stop-color="#35435F"/>
<stop offset="1"/>
</linearGradient>
<linearGradient id="paint1_linear_8_6" x1="12.0466" y1="541.202" x2="630.487" y2="22.2718" gradientUnits="userSpaceOnUse">
<stop offset="0.04" stop-color="#44CCF9"/>
<stop offset="0.12" stop-color="#48C4EF"/>
<stop offset="0.25" stop-color="#53AED4"/>
<stop offset="0.42" stop-color="#648BA9"/>
<stop offset="0.63" stop-color="#7C596D"/>
<stop offset="0.85" stop-color="#9B1B21"/>
<stop offset="0.95" stop-color="#A80000"/>
</linearGradient>
<linearGradient id="paint2_linear_8_6" x1="88" y1="588.465" x2="676.27" y2="588.465" gradientUnits="userSpaceOnUse">
<stop offset="0.04" stop-color="#44CCF9"/>
<stop offset="0.12" stop-color="#48C4EF"/>
<stop offset="0.25" stop-color="#53AED4"/>
<stop offset="0.42" stop-color="#648BA9"/>
<stop offset="0.63" stop-color="#7C596D"/>
<stop offset="0.85" stop-color="#9B1B21"/>
<stop offset="0.95" stop-color="#A80000"/>
</linearGradient>
<linearGradient id="paint3_linear_8_6" x1="362.85" y1="613.369" x2="442.75" y2="613.383" gradientUnits="userSpaceOnUse">
<stop stop-color="white"/>
<stop offset="1" stop-color="white"/>
</linearGradient>
<linearGradient id="paint4_linear_8_6" x1="304.318" y1="239.726" x2="347.729" y2="239.726" gradientUnits="userSpaceOnUse">
<stop stop-color="#6589A7"/>
<stop offset="1" stop-color="#6A7F9B"/>
</linearGradient>
<linearGradient id="paint5_linear_8_6" x1="340.983" y1="198.044" x2="382.282" y2="198.044" gradientUnits="userSpaceOnUse">
<stop stop-color="#6A7C98"/>
<stop offset="1" stop-color="#6E748E"/>
</linearGradient>
<linearGradient id="paint6_linear_8_6" x1="137.96" y1="169.23" x2="242.512" y2="169.23" gradientUnits="userSpaceOnUse">
<stop stop-color="#50B3DA"/>
<stop offset="1" stop-color="#57A5C9"/>
</linearGradient>
<linearGradient id="paint7_linear_8_6" x1="222.573" y1="170.568" x2="391.44" y2="170.568" gradientUnits="userSpaceOnUse">
<stop stop-color="#5AA0C3"/>
<stop offset="1" stop-color="#6F738C"/>
</linearGradient>
<linearGradient id="paint8_linear_8_6" x1="222.573" y1="170.568" x2="391.44" y2="170.568" gradientUnits="userSpaceOnUse">
<stop stop-color="#5AA0C3"/>
<stop offset="1" stop-color="#6F738C"/>
</linearGradient>
<linearGradient id="paint9_linear_8_6" x1="332.875" y1="135.283" x2="385.466" y2="135.283" gradientUnits="userSpaceOnUse">
<stop stop-color="#F9F9F9"/>
<stop offset="1" stop-color="#A8D8E2"/>
</linearGradient>
<clipPath id="clip0_8_6">
<rect width="529.4" height="839.5" fill="white"/>
</clipPath>
</defs>
</svg>
