<svg width="401" height="79" viewBox="0 0 401 79" fill="none" xmlns="http://www.w3.org/2000/svg">
<path d="M375.733 63.9941C373.949 63.9427 371.705 63.8141 370.746 63.7085L369.001 63.5165L368.506 62.9823C367.618 62.0259 367.895 61.3789 370.126 59.2003C371.928 57.4406 372.703 56.8775 374.403 56.092C375.335 55.6614 375.841 55.5218 377.067 55.3571C378.953 55.1037 378.927 55.1037 379.96 55.3726C381.131 55.6786 382.065 56.236 383.34 57.3885C384.671 58.5925 384.84 58.9937 384.489 60.1161C384.111 61.3222 383.392 62.3041 382.437 62.918C380.745 64.0053 380.048 64.1183 375.733 63.9941Z" fill="url(#paint0_linear_7_3)"/>
<path d="M385.329 47.6257C383.694 45.9652 381.392 45.4388 382.253 45.0554C383.238 44.6093 387.887 43.5664 388.233 43.3971C388.58 43.2276 388.928 43.105 389.007 43.1242C389.086 43.1428 389.39 43.3571 389.683 43.5987C390.434 44.2186 391.386 44.3745 392.874 44.1215C393.504 44.0146 394.093 43.8758 394.182 43.8136C394.277 43.7473 393.66 43.668 392.7 43.6221C390.686 43.5264 390.682 43.5252 389.971 42.9151C389.324 42.3601 389.06 41.7538 388.623 39.8173C388.151 37.7268 388.374 36.9908 389.699 36.2631C390.846 35.6329 392.271 35.4301 393.993 35.6525C394.778 35.7537 395.562 35.9179 395.735 36.0165C396.337 36.3604 396.961 37.7747 397.393 39.7707C398.002 42.5916 398.01 42.828 397.519 43.7799C396.891 44.9984 395.205 46.7108 392.333 49.0467C391.057 50.084 387.677 51.6051 387.37 51.5715C386.83 49.9986 386.556 49.0849 385.329 47.6257Z" fill="url(#paint1_linear_7_3)"/>
<path fill-rule="evenodd" clip-rule="evenodd" d="M319.539 1.62097C313.695 1.65665 308.92 4.17585 305.933 9.38148C304.876 11.0967 305.004 12.2241 307.033 13.2845C308.949 14.3086 309.08 12.3616 310.054 10.902C312.322 7.73124 315.752 5.43789 319.648 5.76293C321.793 5.64347 324.967 6.93022 326.531 8.60067C327.854 9.7034 328.139 12.8252 327.393 14.4371C326.164 18.0926 322.917 20.426 320.466 23.2273C315.823 28.1975 310.619 32.755 306.885 38.4997C305.002 41.4407 303.612 44.9069 304.098 48.4656C304.327 52.2799 307.969 56.4136 312.802 59.0884C317.319 61.1554 322.302 63.4397 333.422 63.347C337.562 63.3625 345.397 61.5465 343.707 59.0761C344.984 57.6255 341.961 55.264 339.353 55.9218C335.7 58.5864 322.423 57.5854 316.01 54.853C314.371 54.0485 311.26 51.9849 310.234 49.6691C309.213 46.676 309.306 43.9314 311.77 40.7195C313.625 38.3018 314.121 37.1981 315.481 35.6628C320.29 30.3281 325.393 25.5078 329.93 19.9271C333.247 15.7514 334.423 10.2368 330.783 6.09316C327.859 2.8019 323.736 1.62829 319.539 1.62097Z" fill="url(#paint2_linear_7_3)"/>
<path fill-rule="evenodd" clip-rule="evenodd" d="M385.214 0.00318729C383.452 0.00487559 381.7 0.607925 380.178 1.45955C379.63 1.91976 380.647 2.36034 380.908 2.66505C382.403 3.97298 383.464 5.96231 383.441 7.96612C382.848 7.5536 382.678 6.58576 382.201 5.99846C381.009 4.24974 379.451 2.13292 377.117 2.13456C374.489 2.07821 372.278 4.47214 372.221 7.05661C371.771 9.85107 373.616 12.4911 375.849 13.9684C373.703 13.9557 372 12.2266 371.438 10.2411C371.081 9.6148 371.305 8.22627 370.315 8.23133C369.405 8.38054 368.436 8.54604 367.598 8.89591C367.841 10.9153 368.123 12.9598 368.678 14.9189C369.695 16.7951 371.516 18.0738 372.746 19.8046C374.932 22.8969 377.336 25.9442 378.652 29.5385C379.208 31.122 379.257 33.3102 381.075 34.0133C382.795 34.8624 384.482 35.8936 386.285 36.506C388.521 35.7107 390.693 34.553 393.127 34.5261C394.614 34.3015 396.228 34.6348 397.631 34.0422C399.081 32.9494 399.773 31.1191 400.31 29.4398C400.465 27.5095 400.596 25.4462 399.649 23.6783C399.46 22.8303 398.433 22.0552 399.043 21.1958C400.559 17.4923 401.849 13.1983 400.298 9.2873C397.95 3.36853 391.37 -0.120608 385.214 0.00318729Z" fill="url(#paint3_linear_7_3)"/>
<path d="M341.611 62.1503C337.245 58.4389 337.312 56.8032 336.49 50.3625C336.343 49.2148 336.342 44.6784 336.488 43.1701C336.896 38.9327 337.72 35.3578 338.98 32.3485C339.208 31.8042 339.491 31.1212 339.61 30.8309C340.089 29.656 341.766 26.3892 342.576 25.0524C345.5 19.9174 349.659 15.7261 354.582 13.3761C357.728 11.4587 362.363 10.2503 366.358 9.38412C366.725 9.25433 367.486 8.93434 368.05 8.67303C374.675 18.3841 369.96 17.2424 372.23 20.144C373.025 21.9786 374.147 23.3725 374.967 24.7626C375.368 26.3243 376.172 26.8935 377.466 34.0298C377.716 35.4089 378.309 37.6144 378.542 38.3215C378.835 39.1866 379.105 40.0593 379.376 40.9316C380.751 43.4701 382.923 50.6217 382.923 50.6217C382.028 50.165 376.211 46.2831 374.956 46.0101C374.45 45.9004 374.387 45.4046 373.701 45.2534C373.015 45.1023 370.774 46.9956 370.248 46.9165C370.248 46.9165 366.965 40.0364 365.97 38.0175C363.444 33.2813 364.712 32.8222 364.631 35.0047C364.468 35.551 361.229 40.9634 363.061 42.918C363.6 43.6654 364.633 43.6362 365.811 43.4938C366.624 43.4503 367.365 43.3908 367.458 43.3615C367.736 43.2747 373.245 43.5499 374.38 43.7075C375.967 43.9277 377.456 44.5031 379.862 45.4779C381.051 45.9595 383.024 46.9225 384.073 47.7098C385.133 48.5049 385.16 48.5408 385.906 50.0655C386.852 52.0013 386.947 52.6421 386.537 54.316C386.241 55.5253 385.779 56.5907 385.422 56.8884C385.246 57.0355 385.135 56.9876 384.668 56.5642C384.009 55.9654 381.994 54.9953 380.779 54.6916C380.184 54.543 379.338 54.4703 378.189 54.4689C376.66 54.4672 376.372 54.5048 375.431 54.8327C374.238 55.2484 372.104 56.3982 371.032 57.2033C370.634 57.5016 369.541 58.4902 368.602 59.4003C367.663 60.3103 366.481 61.3177 365.975 61.6389C363.146 63.4671 361.834 64.5838 358.547 65.3891C349.181 66.9803 346.537 65.31 341.611 62.1503Z" fill="url(#paint4_linear_7_3)"/>
<path d="M385.244 13.2758L392.09 13.0122C392.204 13.7264 392.546 14.4092 393.115 14.9386C394.466 16.1963 396.574 16.1153 397.826 14.7577C399.077 13.4001 398.996 11.2805 397.646 10.0228C396.295 8.76517 394.186 8.84619 392.935 10.2037C392.408 10.7753 392.119 11.4825 392.06 12.2032L385.213 12.4668C385.099 11.7525 384.757 11.0698 384.188 10.5398C382.837 9.28205 380.728 9.36309 379.477 10.7206C378.226 12.0783 378.306 14.1978 379.657 15.4555C380.226 15.985 380.929 16.2763 381.646 16.3354L381.902 23.0677C381.192 23.182 380.512 23.5261 379.986 24.0977C378.734 25.4554 378.815 27.5749 380.166 28.8326C381.516 30.0903 383.625 30.0093 384.876 28.6517C386.128 27.2941 386.047 25.1745 384.696 23.9168C384.128 23.3873 383.424 23.096 382.707 23.0369L382.451 16.3047C383.036 16.2105 383.6 15.9598 384.075 15.5545L387.085 18.3577C386.548 19.2201 386.677 20.3712 387.447 21.0882C388.318 21.8992 389.678 21.8464 390.485 20.9715C391.291 20.0965 391.239 18.7289 390.369 17.9185C389.599 17.2015 388.447 17.1595 387.632 17.7642L384.622 14.9611C384.989 14.4539 385.194 13.8697 385.244 13.2758Z" fill="url(#paint5_linear_7_3)"/>
<path d="M21.488 60.79C15.1153 60.79 9.243 59.052 3.871 55.576C3.50233 55.3127 3.397 55.0493 3.555 54.786L4.661 52.495C4.87167 52.1263 5.135 52.0737 5.451 52.337C10.7177 55.813 16.0633 57.551 21.488 57.551C25.6487 57.551 28.993 56.6293 31.521 54.786C34.365 52.6793 35.787 49.651 35.787 45.701C35.787 41.6457 33.496 38.5647 28.914 36.458C27.2813 35.7207 24.6743 34.8517 21.093 33.851C17.5117 32.7977 14.6677 31.8233 12.561 30.928C6.82033 28.4527 3.95 24.6343 3.95 19.473C3.95 15.2597 5.34567 11.9943 8.137 9.677C11.2443 6.88566 15.958 5.49 22.278 5.49C28.1767 5.49 33.1273 6.72766 37.13 9.203C37.5513 9.361 37.6303 9.62433 37.367 9.993L36.34 12.205C36.2347 12.5737 35.945 12.6263 35.471 12.363C31.4157 9.993 26.9653 8.808 22.12 8.808C16.906 8.808 13.0613 9.96667 10.586 12.284C8.79533 14.022 7.9 16.3657 7.9 19.315C7.9 21.4743 8.58467 23.265 9.954 24.687C11.376 26.109 13.43 27.3467 16.116 28.4C17.38 28.874 19.908 29.6377 23.7 30.691C27.5447 31.7443 30.4677 32.7977 32.469 33.851C37.367 36.4843 39.816 40.3027 39.816 45.306C39.816 50.4147 37.999 54.3383 34.365 57.077C31.1523 59.5523 26.86 60.79 21.488 60.79ZM60.8238 26.662C57.0845 26.662 53.2925 27.768 49.4478 29.98C49.0265 30.1907 48.7368 30.138 48.5788 29.822L47.7888 28.321C47.6835 28.005 47.7888 27.7153 48.1048 27.452C52.0022 25.082 56.3472 23.897 61.1398 23.897C65.6692 23.897 68.9872 25.1347 71.0938 27.61C73.0425 29.98 74.0168 33.2453 74.0168 37.406V59.447C74.0168 59.8157 73.8325 60 73.4638 60H71.4098C71.0412 60 70.8568 59.8157 70.8568 59.447V57.946H70.5408C67.1702 59.842 63.4045 60.79 59.2438 60.79C55.6625 60.79 52.6605 60 50.2378 58.42C47.4465 56.682 46.0508 54.075 46.0508 50.599C46.0508 46.175 48.5788 43.0413 53.6348 41.198C57.2688 39.934 62.9042 39.1177 70.5408 38.749V37.406C70.5408 33.8247 69.8035 31.1913 68.3288 29.506C66.7488 27.61 64.2472 26.662 60.8238 26.662ZM60.1128 58.025C64.0102 58.025 67.4862 57.1033 70.5408 55.26V41.356C64.6948 41.356 59.9548 41.909 56.3208 43.015C51.6335 44.3843 49.2898 46.8333 49.2898 50.362C49.2898 52.9953 50.4748 54.9703 52.8448 56.287C54.6355 57.4457 57.0582 58.025 60.1128 58.025ZM88.2152 27.294V55.813C91.0066 57.235 94.1402 57.946 97.6162 57.946C101.777 57.946 105.253 56.524 108.044 53.68C110.678 50.8887 111.994 47.0703 111.994 42.225C111.994 37.5903 110.493 33.851 107.491 31.007C104.489 28.163 100.381 26.741 95.1672 26.741C92.4286 26.741 90.1112 26.9253 88.2152 27.294ZM85.3712 24.766C88.1626 24.1867 91.3489 23.897 94.9302 23.897C101.092 23.897 106.017 25.5297 109.703 28.795C113.495 32.0603 115.391 36.537 115.391 42.225C115.391 47.755 113.89 52.1527 110.888 55.418C107.465 58.9993 103.146 60.79 97.9322 60.79C94.1929 60.79 90.9539 60.1053 88.2152 58.736V77.617C88.2152 77.9857 88.0309 78.17 87.6622 78.17H85.2922C84.9236 78.17 84.7392 77.9857 84.7392 77.617V25.635C84.7392 25.2137 84.9499 24.924 85.3712 24.766ZM124.531 25.161C124.531 24.7923 124.715 24.608 125.084 24.608H127.454C127.823 24.608 128.007 24.7923 128.007 25.161V59.447C128.007 59.8157 127.823 60 127.454 60H125.084C124.715 60 124.531 59.8157 124.531 59.447V25.161ZM126.19 9.282C125.558 9.282 125.031 9.07133 124.61 8.65C124.189 8.176 123.978 7.64933 123.978 7.07C123.978 6.49066 124.189 5.99033 124.61 5.569C125.031 5.095 125.558 4.858 126.19 4.858C126.769 4.858 127.27 5.095 127.691 5.569C128.112 5.99033 128.323 6.49066 128.323 7.07C128.323 7.64933 128.112 8.176 127.691 8.65C127.27 9.07133 126.769 9.282 126.19 9.282ZM140.67 40.329H167.609C167.556 36.4843 166.424 33.3243 164.212 30.849C161.684 28.0577 158.471 26.662 154.574 26.662C150.045 26.662 146.516 28.2157 143.988 31.323C142.039 33.5877 140.933 36.5897 140.67 40.329ZM155.68 58.025C159.946 58.025 163.896 56.8663 167.53 54.549C167.951 54.2857 168.267 54.312 168.478 54.628L169.268 56.208C169.426 56.4713 169.321 56.7347 168.952 56.998C164.897 59.526 160.42 60.79 155.522 60.79C149.623 60.79 144.936 58.7623 141.46 54.707C138.563 51.389 137.115 47.123 137.115 41.909C137.115 36.8003 138.616 32.587 141.618 29.269C144.778 25.6877 149.097 23.897 154.574 23.897C159.735 23.897 163.87 25.714 166.977 29.348C169.821 32.6133 171.164 36.932 171.006 42.304C171.006 42.778 170.743 43.015 170.216 43.015H140.67C140.881 47.0177 142.013 50.2567 144.067 52.732C146.858 56.2607 150.729 58.025 155.68 58.025ZM183.363 31.639H183.6C186.233 26.4777 190.683 23.897 196.951 23.897C201.269 23.897 204.666 24.924 207.142 26.978C209.986 29.506 211.408 33.5877 211.408 39.223V59.447C211.408 59.8157 211.223 60 210.855 60H208.564C208.195 60 208.011 59.8157 208.011 59.447V40.092C208.011 35.194 206.878 31.718 204.614 29.664C202.718 27.926 199.979 27.057 196.398 27.057C191.605 27.057 188.05 29.1373 185.733 33.298C184.258 36.0893 183.521 39.065 183.521 42.225V59.447C183.521 59.8157 183.336 60 182.968 60H180.598C180.229 60 180.045 59.8157 180.045 59.447V25.161C180.045 24.7923 180.229 24.608 180.598 24.608H182.81C183.178 24.608 183.363 24.7923 183.363 25.161V31.639ZM232.026 57.946C234.817 57.946 237.003 57.3667 238.583 56.208C240.163 55.0493 240.953 53.364 240.953 51.152C240.953 49.4667 240.453 48.15 239.452 47.202C238.451 46.254 236.95 45.3323 234.949 44.437C234.264 44.121 232.816 43.5943 230.604 42.857C228.445 42.067 226.865 41.435 225.864 40.961C221.967 39.223 220.018 36.537 220.018 32.903C220.018 30.059 221.098 27.847 223.257 26.267C225.416 24.687 228.497 23.897 232.5 23.897C236.45 23.897 239.9 24.687 242.849 26.267C243.218 26.4777 243.297 26.7673 243.086 27.136L242.296 28.874C242.191 29.19 241.927 29.269 241.506 29.111C238.346 27.5837 235.423 26.82 232.737 26.82C226.575 26.82 223.494 28.8477 223.494 32.903C223.494 35.3783 225.074 37.3007 228.234 38.67C229.129 39.0387 230.657 39.618 232.816 40.408C235.028 41.198 236.529 41.7773 237.319 42.146C239.636 43.1993 241.401 44.3843 242.612 45.701C243.876 46.965 244.508 48.6767 244.508 50.836C244.508 53.996 243.376 56.445 241.111 58.183C238.899 59.921 235.897 60.79 232.105 60.79C227.576 60.79 223.494 59.8157 219.86 57.867C219.544 57.6563 219.465 57.393 219.623 57.077L220.571 55.181C220.729 54.8123 220.992 54.7333 221.361 54.944C224.679 56.9453 228.234 57.946 232.026 57.946ZM299.598 25.398L285.22 59.605C285.062 60.0263 284.773 60.237 284.351 60.237H281.586C281.165 60.237 280.849 60.0263 280.638 59.605L266.497 25.398C266.287 24.8713 266.445 24.608 266.971 24.608H269.499C269.868 24.608 270.131 24.7923 270.289 25.161L283.008 56.761H283.166L295.885 25.161C295.938 24.7923 296.201 24.608 296.675 24.608H299.124C299.651 24.608 299.809 24.8713 299.598 25.398Z" fill="url(#paint6_linear_7_3)"/>
<defs>
<linearGradient id="paint0_linear_7_3" x1="368.035" y1="59.6011" x2="384.647" y2="59.6011" gradientUnits="userSpaceOnUse">
<stop stop-color="#717189" stop-opacity="0.988235"/>
<stop offset="1" stop-color="#75687E" stop-opacity="0.992157"/>
</linearGradient>
<linearGradient id="paint1_linear_7_3" x1="382.066" y1="43.5687" x2="397.87" y2="43.5687" gradientUnits="userSpaceOnUse">
<stop stop-color="#736B83" stop-opacity="0.988235"/>
<stop offset="1" stop-color="#786075" stop-opacity="0.996078"/>
</linearGradient>
<linearGradient id="paint2_linear_7_3" x1="304" y1="32.4854" x2="344.009" y2="32.4854" gradientUnits="userSpaceOnUse">
<stop stop-color="#6C7C97"/>
<stop offset="1" stop-color="#70738C"/>
</linearGradient>
<linearGradient id="paint3_linear_7_3" x1="336.379" y1="33" x2="401" y2="33" gradientUnits="userSpaceOnUse">
<stop offset="0.408582" stop-color="#70748C" stop-opacity="0.984314"/>
<stop offset="1" stop-color="#796075"/>
</linearGradient>
<linearGradient id="paint4_linear_7_3" x1="336.379" y1="33" x2="401" y2="33" gradientUnits="userSpaceOnUse">
<stop offset="0.408582" stop-color="#70748C" stop-opacity="0.984314"/>
<stop offset="1" stop-color="#796075"/>
</linearGradient>
<linearGradient id="paint5_linear_7_3" x1="378.589" y1="19.4277" x2="398.714" y2="19.4277" gradientUnits="userSpaceOnUse">
<stop stop-color="#8CCEE5" stop-opacity="0.937255"/>
<stop offset="1" stop-color="#E5D6D6"/>
</linearGradient>
<linearGradient id="paint6_linear_7_3" x1="0" y1="39.5" x2="300" y2="39.5" gradientUnits="userSpaceOnUse">
<stop offset="0.280223" stop-color="#51B4DA"/>
<stop offset="0.331236" stop-color="#57A7CB"/>
<stop offset="0.42426" stop-color="#58A4C8"/>
<stop offset="0.643318" stop-color="#6192B2"/>
<stop offset="1" stop-color="#6A7E99"/>
</linearGradient>
</defs>
</svg>
